<?xml version="1.0" standalone="no"?>
<!DOCTYPE svg PUBLIC "-//W3C//DTD SVG 20010904//EN"
 "http://www.w3.org/TR/2001/REC-SVG-20010904/DTD/svg10.dtd">
<svg version="1.0" xmlns="http://www.w3.org/2000/svg"
 width="862.000000pt" height="999.000000pt" viewBox="0 0 862.000000 999.000000"
 preserveAspectRatio="xMidYMid meet">

<g transform="translate(0.000000,999.000000) scale(0.100000,-0.100000)"
fill="#000000" stroke="none">
<path d="M4052 9820 c-1282 -85 -2464 -812 -3089 -1900 -321 -559 -483 -1161
-483 -1794 0 -243 33 -583 63 -645 l12 -26 3754 -3 c3268 -2 3757 0 3777 12
26 18 39 80 60 296 29 302 15 695 -36 995 -122 714 -475 1390 -1005 1921 -201
201 -316 299 -514 438 -545 381 -1156 612 -1831 691 -157 18 -534 26 -708 15z
m619 -85 c1173 -112 2188 -710 2816 -1660 157 -237 301 -529 383 -779 110
-335 168 -641 173 -925 3 -180 2 -191 -17 -191 -7 0 -27 -16 -45 -35 -48 -53
-81 -42 -81 27 0 33 5 41 40 63 23 14 39 29 36 34 -3 4 -23 13 -45 21 -38 12
-40 12 -70 -21 -17 -19 -31 -44 -31 -56 0 -13 -9 -44 -21 -71 -23 -53 -60 -77
-103 -66 -28 7 -32 14 -15 31 6 6 8 16 5 22 -10 16 -36 13 -42 -4 -4 -8 -17
-15 -30 -15 -19 0 -24 -5 -24 -27 0 -24 -34 -73 -50 -73 -4 0 -13 18 -20 40
-16 48 -43 56 -34 10 5 -23 2 -31 -12 -36 -11 -3 -31 -12 -46 -20 -15 -8 -33
-14 -40 -13 -7 2 -23 -1 -36 -5 -14 -5 -28 -3 -37 4 -11 9 -18 7 -34 -9 -27
-27 -56 -27 -75 1 -14 20 -17 21 -31 7 -13 -12 -14 -21 -5 -44 16 -43 7 -55
-43 -55 -31 0 -49 6 -62 20 -21 23 -41 13 -56 -27 -11 -30 -36 -40 -60 -24
-17 10 -19 8 -19 -19 0 -24 -5 -31 -27 -36 -16 -3 -50 -13 -76 -21 -26 -8 -59
-12 -73 -9 -22 6 -25 11 -19 35 9 40 -7 46 -50 17 -46 -32 -70 -39 -101 -32
-30 8 -30 16 -2 77 15 31 28 47 36 44 9 -3 12 2 10 17 -4 26 -28 37 -28 13 0
-10 -11 -26 -25 -37 -14 -11 -25 -26 -25 -34 0 -22 -29 -74 -40 -74 -6 0 -16
11 -22 25 -8 18 -14 22 -24 14 -9 -7 -19 -3 -38 16 -14 14 -29 25 -34 25 -5 0
-14 11 -20 24 -8 18 -16 23 -31 19 -14 -3 -34 5 -59 23 -46 36 -137 74 -177
74 -16 0 -43 8 -60 18 -67 40 -122 54 -197 49 -40 -3 -87 -8 -104 -12 -22 -5
-34 -2 -43 9 -8 9 -25 16 -40 16 -15 0 -35 9 -45 21 -9 12 -50 36 -90 54 -39
19 -89 50 -110 69 -20 20 -44 36 -51 36 -8 0 -20 12 -27 27 -15 31 -55 45
-173 65 l-79 13 51 41 c47 37 61 42 175 63 157 29 172 34 282 89 50 24 120 55
156 68 36 12 96 34 134 48 38 14 79 26 92 26 12 0 26 5 30 11 4 7 20 8 41 4
25 -4 38 -2 46 8 18 23 63 29 77 12 14 -17 70 -21 70 -5 0 6 -11 15 -25 20
-18 7 -25 17 -25 38 0 26 -3 28 -42 27 -24 0 -50 -4 -58 -10 -20 -13 -132 -22
-175 -14 -29 6 -32 -30 -4 -52 22 -16 22 -18 6 -25 -9 -3 -30 -3 -45 0 -15 4
-40 9 -57 12 -16 2 -53 10 -82 16 -41 9 -56 8 -67 -1 -19 -16 -86 -32 -86 -21
0 4 13 10 29 13 41 9 50 37 11 37 -23 0 -30 5 -30 19 0 26 -23 43 -94 67 -166
58 -187 67 -182 81 8 21 -28 30 -191 48 -138 15 -153 15 -198 0 -89 -30 -309
-157 -344 -198 -10 -13 -9 -18 11 -31 13 -8 45 -18 73 -22 119 -17 144 -42
152 -158 5 -79 4 -92 -22 -155 -31 -79 -29 -111 11 -137 20 -14 32 -15 58 -7
26 8 37 7 54 -8 12 -9 22 -22 22 -28 0 -17 19 -23 97 -32 52 -6 89 -17 126
-37 29 -17 73 -33 99 -36 70 -10 77 -57 26 -162 -33 -68 -57 -91 -121 -118
-22 -9 -37 -21 -35 -28 6 -20 97 -47 155 -48 63 0 97 14 112 47 12 25 13 26
110 21 83 -4 101 -8 119 -26 12 -12 27 -22 32 -22 6 0 10 -7 10 -15 0 -8 10
-17 23 -20 201 -43 265 -55 337 -61 105 -8 199 -27 241 -48 18 -9 42 -16 53
-16 24 0 113 -77 101 -88 -8 -9 -2956 -15 -3041 -7 -53 5 -63 10 -77 35 -10
16 -33 44 -53 62 -64 59 -82 118 -43 139 12 6 58 14 103 18 65 6 98 15 152 43
38 19 93 43 123 54 62 22 169 118 216 194 15 25 65 82 110 127 62 62 99 91
155 118 41 19 81 35 90 35 9 0 26 7 38 16 31 22 74 33 163 44 42 5 96 18 120
29 24 10 65 27 91 36 46 16 138 97 138 121 0 27 -45 65 -101 85 -33 12 -64 30
-70 41 -5 10 -20 18 -32 18 -22 0 -117 53 -117 65 0 4 18 28 41 55 36 43 40
52 34 82 -14 63 -56 119 -146 192 -63 52 -213 78 -321 56 -63 -13 -168 -63
-168 -81 0 -5 -8 -9 -17 -9 -41 1 -105 44 -223 150 -214 192 -283 240 -348
240 -24 0 -89 -12 -145 -26 -127 -33 -189 -45 -194 -40 -3 2 3 26 12 53 9 26
25 89 35 138 10 50 29 113 42 140 29 64 28 156 -1 239 -12 33 -21 75 -21 95 0
20 -8 50 -18 66 -31 50 -74 128 -94 168 l-19 38 58 86 c32 47 76 107 98 132
23 25 60 78 84 116 25 39 54 79 65 90 24 22 43 73 45 120 1 27 -4 33 -36 45
-21 8 -45 15 -54 16 -19 1 -69 34 -69 44 0 15 -92 71 -106 66 -23 -9 -16 -24
16 -41 29 -15 50 -49 50 -79 0 -7 -21 -19 -47 -27 -36 -11 -48 -20 -48 -34 0
-14 6 -19 20 -18 84 8 90 8 93 -7 1 -8 -19 -36 -45 -61 -27 -26 -59 -58 -73
-71 -14 -14 -36 -40 -50 -59 -27 -36 -112 -123 -148 -151 -29 -23 -43 -23 -16
0 29 24 44 55 44 90 0 46 -38 123 -86 172 -24 25 -76 80 -116 123 -40 43 -84
80 -98 84 -14 3 -36 12 -49 20 -18 11 -29 12 -45 5 -11 -6 -54 -22 -95 -36
-111 -38 -144 -63 -169 -133 -11 -32 -24 -71 -28 -87 -4 -17 -20 -54 -36 -84
-15 -30 -28 -69 -28 -86 0 -22 -8 -39 -25 -54 -33 -29 -31 -51 7 -65 26 -9 24
-77 -2 -100 -29 -24 -25 -55 9 -74 27 -16 29 -22 35 -100 8 -90 5 -103 -24
-103 -10 0 -22 -5 -25 -10 -9 -15 47 -70 80 -78 l28 -8 -29 -26 c-16 -14 -45
-40 -64 -58 -32 -28 -33 -31 -10 -24 31 8 94 63 140 122 58 74 163 138 116 70
-9 -12 -16 -34 -16 -48 0 -18 -21 -46 -73 -98 -85 -86 -102 -98 -122 -82 -17
14 -35 5 -35 -16 0 -30 -40 -91 -82 -127 -24 -20 -52 -45 -63 -55 -52 -49
-136 -112 -149 -112 -9 0 -12 7 -9 20 6 24 -13 26 -40 6 -13 -10 -15 -15 -5
-18 20 -7 -42 -36 -86 -39 -29 -3 -40 0 -41 12 -4 21 -69 160 -88 184 -8 10
-38 24 -68 31 l-54 13 -120 -92 c-167 -128 -187 -146 -179 -171 4 -12 36 -52
73 -91 37 -38 83 -90 104 -114 75 -90 52 -7 -35 122 -30 46 -44 75 -38 81 16
16 91 16 97 0 3 -10 22 -14 57 -14 46 0 57 -5 92 -35 46 -42 57 -43 109 -10
55 34 124 33 210 -1 64 -26 66 -26 86 -8 11 10 32 43 47 74 26 55 55 86 244
263 116 108 141 125 198 132 25 3 63 11 84 18 38 11 40 10 71 -26 38 -43 105
-176 105 -206 0 -11 -5 -31 -11 -45 -11 -24 -13 -24 -108 -19 -88 5 -98 3
-123 -16 -16 -13 -32 -40 -38 -62 l-11 -41 -69 7 c-46 5 -75 3 -90 -5 -23 -13
-63 2 -119 43 -39 28 -44 22 -36 -47 6 -58 4 -67 -14 -83 -28 -23 -26 -39 4
-59 33 -21 75 -93 75 -126 0 -15 -7 -28 -17 -32 -10 -4 -31 -14 -47 -22 -25
-14 -26 -18 -14 -31 8 -8 30 -15 47 -15 24 -1 35 -7 41 -24 5 -12 17 -27 27
-33 15 -8 16 -12 5 -23 -11 -11 -15 -10 -25 3 -7 10 -35 19 -67 23 -30 4 -65
12 -76 18 -17 8 -37 4 -93 -16 -39 -14 -84 -32 -99 -40 -42 -21 -72 -28 -72
-18 0 8 105 133 197 233 20 22 22 30 14 52 -6 15 -17 27 -24 27 -8 0 -62 -54
-121 -119 -59 -66 -113 -125 -121 -131 -11 -9 -30 0 -92 43 -168 117 -205 115
-69 -3 53 -47 110 -94 126 -105 27 -18 41 -55 22 -55 -4 0 -14 -17 -21 -37
-24 -68 -62 -95 -219 -157 -73 -29 -114 -39 -190 -45 -76 -7 -113 -16 -172
-41 -112 -49 -239 -90 -256 -83 -21 8 -14 65 31 268 113 507 324 960 649 1390
172 227 409 464 661 660 314 245 672 439 1068 579 287 102 610 171 957 205
143 14 506 12 671 -4z m-2236 -815 c15 -17 15 -21 0 -50 -16 -30 -17 -31 -38
-16 -12 9 -29 19 -37 23 -8 4 -20 14 -27 22 -31 42 65 62 102 21z m131 -127
c-10 -10 -19 5 -10 18 6 11 8 11 12 0 2 -7 1 -15 -2 -18z m44 -37 c0 -2 -7 -9
-15 -16 -12 -10 -15 -10 -15 4 0 9 7 16 15 16 8 0 15 -2 15 -4z m-82 -23 c-2
-10 -10 -18 -18 -18 -8 0 -16 8 -18 18 -2 12 3 17 18 17 15 0 20 -5 18 -17z
m136 -73 c19 0 22 -16 4 -23 -20 -6 -68 13 -68 28 0 19 23 25 36 9 6 -8 19
-14 28 -14z m-557 -162 c-3 -7 -5 -2 -5 12 0 14 2 19 5 13 2 -7 2 -19 0 -25z
m101 -45 c-3 -25 -8 -28 -42 -31 -25 -2 -36 0 -31 7 3 6 14 11 24 11 10 0 21
9 24 20 8 31 29 24 25 -7z m375 -92 c32 -30 36 -40 31 -67 -5 -28 -2 -33 28
-47 35 -17 60 -41 97 -94 17 -25 21 -40 15 -68 -3 -19 -12 -35 -18 -35 -19 0
-128 80 -177 131 -37 37 -51 45 -82 45 -20 0 -42 5 -48 11 -18 18 65 37 103
24 62 -22 83 -2 26 23 -65 29 -116 95 -92 119 15 15 82 -9 117 -42z m-199 -87
c25 -10 19 -22 -8 -17 -20 4 -30 -3 -51 -35 -25 -37 -75 -68 -89 -55 -3 3 4
24 17 46 29 52 86 78 131 61z m-904 -729 c0 -13 -84 -56 -98 -50 -12 4 -2 13
33 30 52 24 65 28 65 20z m815 -75 c8 -8 16 -31 20 -50 5 -29 2 -39 -14 -54
-28 -25 -18 -36 34 -36 24 0 46 -4 50 -9 8 -14 -44 -51 -71 -51 -12 0 -34 -4
-48 -10 -40 -15 -65 18 -64 83 0 41 -4 55 -22 69 -33 26 -18 52 43 76 35 13
53 16 56 8 2 -6 9 -18 16 -26z m310 -259 c-25 -24 -100 -41 -93 -20 2 7 27 18
54 25 27 6 51 12 54 13 2 0 -4 -8 -15 -18z m-265 -70 c36 -4 58 -10 50 -13
-74 -30 -118 -30 -152 0 -22 19 -12 36 16 27 11 -4 50 -11 86 -14z m-74 -152
c3 -6 1 -16 -5 -22 -13 -13 -65 8 -56 23 8 13 52 13 61 -1z m262 -189 c12 0
22 -4 22 -10 0 -11 -49 -14 -74 -4 -25 9 -19 27 7 20 12 -3 32 -6 45 -6z
m-169 -90 c0 -64 -51 -168 -97 -197 -41 -25 -244 44 -261 89 -5 13 -18 32 -30
42 -11 11 -21 29 -21 40 0 12 -11 33 -25 48 -30 32 -31 38 -7 38 10 0 59 -40
109 -89 96 -93 133 -117 133 -84 0 11 4 23 9 29 6 5 11 29 13 54 l3 45 45 1
c25 0 55 4 67 8 16 5 23 2 26 -11 3 -10 5 -5 6 13 2 66 29 43 30 -26z m3031
40 c0 -4 -9 -10 -20 -13 -19 -5 -28 12 -14 26 8 7 34 -3 34 -13z m-3615 -356
c77 -8 207 -19 288 -26 176 -14 167 -5 167 -159 0 -107 -9 -139 -40 -139 -10
0 -21 -4 -24 -8 -3 -5 -27 -9 -53 -10 -61 -1 -199 -44 -247 -77 -20 -14 -46
-25 -57 -25 -12 0 -32 -9 -46 -20 -14 -11 -33 -20 -42 -20 -9 -1 -34 -12 -56
-25 -22 -14 -50 -29 -62 -35 -13 -5 -45 -32 -72 -59 -27 -27 -60 -51 -73 -53
-17 -2 -24 -10 -26 -30 -2 -20 -9 -28 -23 -28 -10 0 -27 -8 -37 -18 -18 -18
-19 -18 -42 0 -28 22 -76 24 -88 2 -7 -13 -13 -14 -31 -5 -19 11 -25 8 -22
-11 0 -5 -2 -8 -6 -9 -11 -1 -79 -8 -139 -13 -27 -2 -56 -1 -62 3 -7 4 -39 4
-72 -1 -41 -5 -68 -4 -87 4 -38 16 -81 17 -87 1 -3 -7 -14 -13 -25 -13 -22 0
-38 38 -28 65 4 8 -5 38 -18 67 -28 63 -55 252 -55 392 0 108 2 110 90 136 25
7 70 22 100 33 160 57 260 84 375 101 54 8 457 -6 600 -20z m3275 -44 c0 -11
-7 -20 -15 -20 -18 0 -19 12 -3 28 16 16 18 15 18 -8z m-44 -15 c7 -17 -12
-45 -31 -45 -7 0 -15 11 -17 24 -4 17 -1 23 9 19 7 -3 13 0 13 6 0 16 20 13
26 -4z m-2251 -57 c27 -6 57 -14 66 -19 45 -23 520 -89 646 -89 102 0 123 -10
123 -59 0 -37 -42 -75 -118 -106 -52 -21 -80 -26 -179 -28 -98 -2 -126 -6
-163 -24 -83 -40 -100 -42 -148 -17 -24 13 -60 26 -80 29 -70 11 -81 15 -109
38 -15 13 -50 29 -78 36 -27 7 -57 15 -66 17 -26 7 -34 100 -15 164 19 63 34
83 55 75 9 -4 38 -11 66 -17z m-308 -40 c-3 -7 -5 -2 -5 12 0 14 2 19 5 13 2
-7 2 -19 0 -25z m4941 -320 c3 -25 1 -26 -42 -26 -55 1 -60 18 -13 40 41 20
51 17 55 -14z m-5348 -7 c0 -6 -4 -13 -10 -16 -5 -3 -10 1 -10 9 0 9 5 16 10
16 6 0 10 -4 10 -9z m518 -54 c7 -15 19 -27 25 -27 14 0 41 -39 33 -48 -4 -3
-21 10 -40 29 -18 19 -41 40 -50 47 -21 17 -21 34 1 30 10 -2 24 -16 31 -31z
m-355 -35 c21 -18 23 -52 2 -52 -16 0 -20 -18 -7 -35 10 -16 82 -56 95 -54 28
3 36 -3 42 -32 4 -18 3 -35 -4 -42 -6 -6 -11 -19 -11 -28 0 -21 -20 -29 -76
-29 -38 0 -44 3 -44 21 0 11 4 28 9 38 6 11 4 34 -8 70 -20 63 -48 82 -123 84
-28 1 -53 7 -55 12 -7 23 26 48 78 59 58 14 74 12 102 -12z m337 -59 c0 -13
-3 -13 -15 -3 -8 7 -12 16 -9 21 8 13 24 1 24 -18z m300 9 c0 -5 -7 -17 -15
-28 -15 -19 -20 -8 -9 20 6 17 24 22 24 8z m3674 -4 c10 -10 7 -17 -16 -36
-15 -13 -28 -32 -28 -42 0 -22 -24 -32 -39 -17 -17 17 -14 24 27 67 42 46 39
44 56 28z m-4609 -8 c-3 -5 -10 -10 -16 -10 -5 0 -9 5 -9 10 0 6 7 10 16 10 8
0 12 -4 9 -10z m798 -18 c3 -4 3 -29 0 -55 -5 -38 -11 -51 -29 -59 -22 -10
-57 -6 -81 10 -21 13 7 78 42 96 33 16 61 20 68 8z m97 -44 c0 -19 -1 -19 -25
-4 -13 9 -31 16 -40 16 -9 0 -14 4 -11 8 3 4 21 6 40 4 28 -3 36 -9 36 -24z
m-1035 -28 c-25 -27 -64 -31 -76 -8 -10 18 -11 18 -47 -3 -20 -12 -42 -29 -49
-37 -6 -7 -16 -11 -22 -7 -17 10 -13 45 7 51 9 3 31 12 48 20 17 9 41 13 55 9
13 -3 36 -2 49 3 35 14 57 -4 35 -28z m349 21 c6 -9 -43 -35 -52 -27 -2 3 -2
12 1 21 7 16 42 21 51 6z m-100 -27 c25 -24 21 -48 -6 -39 -37 12 -90 6 -110
-12 -24 -21 -32 -11 -21 24 7 19 19 30 39 34 52 12 82 9 98 -7z m5880 -3 c11
-16 -31 -43 -56 -35 l-23 7 23 8 c12 5 22 13 22 19 0 12 27 13 34 1z m-4653
-34 c-1 -12 -15 -9 -19 4 -3 6 1 10 8 8 6 -3 11 -8 11 -12z m-1101 -9 c-1 -22
-37 -61 -49 -54 -7 5 -4 16 11 37 23 31 38 37 38 17z m327 -20 c36 -13 44 -28
14 -28 -29 0 -71 18 -71 30 0 13 16 13 57 -2z m-513 -29 c-3 -5 -10 -7 -15 -3
-5 3 -7 10 -3 15 3 5 10 7 15 3 5 -3 7 -10 3 -15z m971 1 c19 -1 19 -1 2 -11
-19 -11 -47 3 -47 24 0 7 4 7 12 -1 7 -7 21 -12 33 -12z"/>
<path d="M5792 9418 c-13 -17 -62 -138 -62 -155 0 -7 6 -13 14 -13 18 0 27
-59 13 -85 -6 -11 -10 -58 -8 -107 2 -60 -1 -88 -9 -88 -6 0 -13 7 -16 15 -11
28 -43 27 -89 -2 -63 -39 -56 -58 18 -58 49 0 61 -4 76 -24 10 -13 23 -21 29
-17 12 7 78 -30 99 -56 7 -7 16 -33 22 -57 10 -47 48 -93 95 -116 45 -23 60
-20 44 8 -7 12 -11 30 -9 40 2 14 -2 17 -23 11 -27 -7 -56 9 -56 31 0 6 16 16
35 22 29 9 39 8 57 -6 18 -15 27 -16 61 -6 57 17 68 46 41 109 -7 19 -6 19 23
-2 49 -34 97 -28 151 21 33 31 27 45 -25 60 -44 13 -47 17 -57 58 l-11 44 -49
-2 c-27 -1 -53 -6 -59 -12 -16 -16 -36 -13 -64 9 -20 15 -29 17 -45 9 -34 -18
-33 -39 3 -69 33 -27 33 -29 16 -47 -25 -26 -177 -33 -196 -9 -7 9 -20 16 -27
16 -30 0 -6 55 28 64 13 3 34 15 48 26 l25 20 -37 0 c-42 0 -46 7 -46 87 0 29
-7 69 -16 88 -16 34 -16 37 14 107 16 40 30 78 30 85 0 17 -24 17 -38 1z m305
-470 c26 -24 31 -58 9 -58 -18 0 -59 56 -51 70 9 15 16 13 42 -12z"/>
<path d="M5660 9208 c-24 -26 -26 -38 -5 -38 15 0 55 38 55 52 0 16 -30 8 -50
-14z"/>
<path d="M6437 9023 c-13 -21 -30 -56 -38 -78 -7 -22 -19 -47 -26 -56 -15 -18
-17 -29 -4 -29 5 0 28 26 52 58 23 31 56 64 73 73 29 15 32 14 49 -1 9 -9 17
-19 17 -23 0 -3 -24 -19 -54 -36 -30 -17 -70 -50 -90 -74 -20 -23 -49 -56 -66
-72 -36 -36 -37 -46 -9 -71 12 -10 28 -35 37 -54 14 -34 15 -34 23 -12 5 13 6
35 3 48 -7 26 8 32 36 14 12 -7 8 -21 -23 -82 -43 -86 -38 -99 38 -100 51 -1
67 -17 47 -49 -17 -26 -15 -46 6 -58 16 -9 16 -11 0 -39 -10 -17 -18 -41 -18
-55 0 -52 -6 -56 -66 -42 -46 10 -56 10 -66 -2 -10 -12 -7 -18 12 -33 14 -11
36 -20 49 -22 37 -5 -69 -54 -170 -79 -83 -20 -109 -32 -96 -45 9 -9 147 21
212 46 28 11 69 22 92 26 24 4 48 13 54 20 13 16 114 19 153 4 19 -7 25 -16
25 -37 -3 -131 3 -213 16 -213 18 0 23 9 41 76 11 45 12 63 3 89 -17 45 5 67
69 69 34 1 47 5 47 16 0 12 -13 15 -57 15 -32 0 -58 3 -58 6 0 6 14 19 103 91
l33 27 18 -29 c14 -24 14 -33 4 -49 -14 -23 1 -48 34 -53 14 -2 25 -16 34 -41
18 -50 31 -62 81 -70 53 -9 93 6 93 33 0 45 -60 120 -107 135 -14 4 -23 14
-23 26 0 15 -5 18 -24 13 -19 -4 -30 2 -55 33 -17 20 -31 44 -30 53 0 8 15 42
32 75 27 51 36 60 57 57 13 -1 28 -9 33 -17 4 -8 15 -15 22 -15 20 0 19 -17
-1 -28 -13 -7 -14 -13 -5 -31 7 -11 18 -21 26 -21 17 0 20 -26 5 -35 -17 -10
-11 -32 10 -38 16 -4 22 2 30 31 5 21 16 47 25 59 14 20 13 24 -8 56 -13 19
-44 55 -69 80 -26 25 -48 53 -50 64 -2 10 -18 25 -36 34 -18 8 -73 54 -122
102 -49 47 -100 89 -114 93 -14 3 -26 12 -26 20 0 8 -4 14 -8 14 -4 0 -27 18
-51 40 -23 22 -49 40 -56 40 -8 0 -39 20 -69 45 -31 25 -60 45 -66 45 -5 0
-20 -17 -33 -37z m124 -213 c-50 -49 -71 -60 -71 -40 0 6 -7 10 -15 10 -22 0
-18 28 5 35 12 4 27 1 35 -5 17 -14 36 -5 29 14 -7 18 46 60 59 47 7 -7 -7
-27 -42 -61z m55 -127 c-10 -10 -19 5 -10 18 6 11 8 11 12 0 2 -7 1 -15 -2
-18z m-36 -20 c0 -30 -14 -43 -38 -36 l-23 6 22 23 c27 28 39 30 39 7z m300
-3 c0 -5 -4 -10 -10 -10 -5 0 -10 5 -10 10 0 6 5 10 10 10 6 0 10 -4 10 -10z
m30 -26 c0 -8 -4 -12 -10 -9 -5 3 -10 10 -10 16 0 5 5 9 10 9 6 0 10 -7 10
-16z m-260 -74 c0 -21 28 -40 59 -40 15 0 21 -6 21 -22 0 -25 -35 -88 -47 -88
-14 1 -43 27 -43 39 0 16 -16 14 -46 -5 -13 -9 -27 -14 -30 -11 -13 12 9 47
41 67 31 19 33 24 28 57 -4 26 -3 34 5 29 7 -4 12 -16 12 -26z m244 -82 c-8
-28 -12 -33 -20 -25 -9 8 6 47 17 47 6 0 7 -10 3 -22z m-54 -89 c0 -11 -74
-89 -85 -89 -3 0 -1 9 5 19 5 11 7 27 3 37 -4 11 1 22 12 30 22 17 65 18 65 3z"/>
<path d="M5455 8890 c-4 -13 3 -37 19 -66 31 -56 32 -61 6 -69 -34 -11 -70
-105 -40 -105 6 0 10 8 10 17 0 9 19 35 43 57 44 43 94 144 83 171 -4 11 -21
15 -60 15 -46 0 -56 -3 -61 -20z"/>
<path d="M5692 8708 c-6 -6 -12 -27 -12 -46 0 -26 -3 -33 -15 -28 -18 7 -45
-3 -45 -16 0 -5 15 -8 33 -6 27 2 33 8 35 31 2 19 8 27 19 25 21 -4 26 14 11
35 -11 14 -16 15 -26 5z"/>
<path d="M5865 8640 c-3 -5 3 -15 15 -22 11 -7 20 -20 20 -28 0 -9 7 -25 15
-36 8 -10 15 -29 15 -40 0 -20 17 -34 42 -34 7 0 9 15 5 40 -6 49 8 52 55 12
28 -25 101 -52 137 -52 19 0 12 40 -6 40 -24 1 -53 24 -67 52 -9 18 -18 22
-44 20 -18 -2 -38 1 -45 6 -7 5 -34 13 -60 16 -27 4 -51 14 -54 22 -6 16 -19
18 -28 4z"/>
<path d="M6153 8625 c-16 -17 -16 -32 -3 -40 13 -8 71 26 67 40 -5 16 -51 16
-64 0z"/>
<path d="M6281 8579 c8 -16 14 -18 22 -10 9 9 8 14 -3 21 -24 16 -31 11 -19
-11z"/>
<path d="M5740 8488 c0 -46 -68 -106 -104 -92 -9 3 -16 1 -16 -5 0 -6 7 -11
15 -11 29 0 14 -21 -29 -40 -41 -19 -96 -75 -96 -99 0 -19 19 -12 36 14 9 14
26 25 38 25 11 0 33 10 48 23 43 36 159 179 155 191 -2 6 -13 12 -25 14 -17 3
-22 -2 -22 -20z"/>
<path d="M6365 8431 c-10 -17 12 -21 25 -6 10 12 10 15 -3 15 -9 0 -18 -4 -22
-9z"/>
<path d="M3400 8380 c0 -5 6 -10 14 -10 8 0 18 5 21 10 3 6 -3 10 -14 10 -12
0 -21 -4 -21 -10z"/>
<path d="M7160 8332 c0 -5 7 -9 15 -9 8 0 15 4 15 9 0 4 -7 8 -15 8 -8 0 -15
-4 -15 -8z"/>
<path d="M7130 8320 c0 -5 5 -10 10 -10 6 0 10 5 10 10 0 6 -4 10 -10 10 -5 0
-10 -4 -10 -10z"/>
<path d="M3395 8301 c-6 -11 9 -23 19 -14 9 9 7 23 -3 23 -6 0 -12 -4 -16 -9z"/>
<path d="M7195 8300 c-4 -6 -3 -16 3 -22 6 -6 12 -6 17 2 4 6 3 16 -3 22 -6 6
-12 6 -17 -2z"/>
<path d="M5465 8290 c-3 -5 3 -10 14 -10 11 0 23 5 26 10 3 6 -3 10 -14 10
-11 0 -23 -4 -26 -10z"/>
<path d="M1545 8229 c-10 -15 3 -25 16 -12 7 7 7 13 1 17 -6 3 -14 1 -17 -5z"/>
<path d="M5560 8230 c0 -5 5 -10 10 -10 6 0 10 5 10 10 0 6 -4 10 -10 10 -5 0
-10 -4 -10 -10z"/>
<path d="M1525 8140 c-3 -5 1 -10 9 -10 9 0 16 5 16 10 0 6 -4 10 -9 10 -6 0
-13 -4 -16 -10z"/>
<path d="M6896 8126 c-16 -26 -23 -131 -8 -139 4 -2 23 -2 43 0 32 4 38 9 48
45 11 34 10 44 -7 76 -23 46 -53 52 -76 18z m49 -94 c-6 -32 -8 -33 -22 -19
-21 21 -19 78 4 95 16 12 18 10 21 -14 2 -15 1 -43 -3 -62z"/>
<path d="M5277 8002 c-21 -23 -22 -42 -2 -42 20 0 57 38 50 50 -10 15 -30 12
-48 -8z"/>
<path d="M1875 7867 c-43 -59 -48 -68 -33 -62 13 5 72 95 66 100 -2 2 -16 -15
-33 -38z"/>
<path d="M6945 6960 c-3 -6 1 -13 10 -16 19 -8 30 0 20 15 -8 14 -22 14 -30 1z"/>
<path d="M6641 6938 c-5 -13 -10 -32 -12 -42 -9 -45 -72 -46 -111 -1 -12 14
-25 25 -29 25 -5 0 -14 -18 -20 -40 l-12 -40 -22 20 c-23 22 -35 18 -35 -11 0
-10 -10 -24 -22 -30 -13 -6 -34 -21 -47 -33 l-23 -21 6 30 c6 27 3 32 -26 43
-40 15 -52 1 -34 -42 13 -33 49 -47 69 -27 6 6 21 11 33 11 13 0 26 5 29 10 3
6 17 10 30 10 13 0 26 4 29 9 3 4 34 11 68 14 35 4 87 15 117 26 29 11 73 23
97 27 58 8 83 27 68 51 -17 28 -41 27 -56 -3 -17 -34 -29 -34 -48 2 -21 37
-38 41 -49 12z"/>
<path d="M5448 6933 c7 -3 16 -2 19 1 4 3 -2 6 -13 5 -11 0 -14 -3 -6 -6z"/>
<path d="M5545 6932 c-2 -3 -1 -10 3 -16 4 -6 7 -15 7 -20 0 -5 8 -14 18 -20
14 -8 20 -8 27 4 8 12 10 12 16 -3 3 -9 10 -14 15 -11 6 3 31 6 57 6 35 0 51
-5 63 -21 17 -20 69 -30 69 -13 0 19 -49 50 -100 65 -66 18 -168 35 -175 29z"/>
<path d="M6840 6924 c0 -9 5 -14 12 -12 18 6 21 28 4 28 -9 0 -16 -7 -16 -16z"/>
<path d="M6150 6720 c0 -13 11 -13 30 0 12 8 11 10 -7 10 -13 0 -23 -4 -23
-10z"/>
<path d="M6060 6376 c-9 -33 -9 -49 -1 -65 14 -26 22 -26 72 0 43 21 46 38 12
54 -12 5 -26 19 -32 32 -16 36 -37 27 -51 -21z"/>
<path d="M6861 6319 c-29 -39 -21 -59 24 -59 39 0 45 17 23 65 -14 32 -19 32
-47 -6z"/>
<path d="M7132 6221 c-35 -61 -84 -213 -73 -224 15 -15 41 0 41 23 0 11 14 63
31 115 35 111 35 148 1 86z"/>
<path d="M6275 6230 c-35 -7 -36 -32 -4 -65 17 -17 21 -18 33 -5 7 8 16 27 20
41 7 31 -5 38 -49 29z"/>
<path d="M6966 5957 c-14 -10 -16 -18 -9 -31 8 -15 11 -16 22 -2 7 8 11 22 9
31 -3 14 -5 14 -22 2z"/>
<path d="M6785 5893 c4 -16 8 -30 11 -32 4 -4 54 46 54 55 0 2 -16 4 -36 4
-34 0 -36 -1 -29 -27z"/>
<path d="M1345 5700 c-3 -5 -1 -10 4 -10 6 0 11 5 11 10 0 6 -2 10 -4 10 -3 0
-8 -4 -11 -10z"/>
<path d="M2675 5710 c3 -5 8 -10 11 -10 2 0 4 5 4 10 0 6 -5 10 -11 10 -5 0
-7 -4 -4 -10z"/>
<path d="M816 5283 c-148 -2 -234 -7 -243 -14 -18 -15 -18 -162 0 -177 7 -6
46 -12 87 -14 l75 -3 5 -560 c3 -308 2 -564 -2 -569 -4 -5 -39 -10 -78 -11
-39 -1 -76 -7 -81 -12 -5 -5 -9 -45 -7 -89 l3 -79 313 -3 312 -2 0 88 0 89
-82 9 c-81 9 -82 9 -90 41 -5 17 -5 128 -1 245 l8 213 334 3 c261 2 336 -1
343 -10 4 -7 8 -120 8 -250 l0 -238 -74 0 c-108 0 -106 2 -106 -96 0 -80 1
-85 24 -94 13 -5 116 -7 228 -5 111 2 242 4 291 5 l87 0 0 90 0 90 -79 0 c-63
0 -80 3 -85 16 -3 9 -6 265 -6 569 0 432 3 556 13 562 6 4 46 10 87 13 l75 5
3 70 c2 38 0 80 -3 92 l-5 23 -313 -2 -312 -3 0 -90 0 -90 75 -5 c41 -3 81 -9
88 -13 9 -6 12 -56 12 -192 0 -154 -3 -186 -16 -199 -13 -14 -57 -16 -332 -16
-174 0 -323 4 -330 8 -9 7 -12 54 -10 203 l3 194 82 8 c71 8 82 11 87 30 8 32
7 140 -2 154 -11 17 -102 20 -386 16z"/>
<path d="M2650 5270 c-11 -7 -15 -29 -15 -92 l0 -83 80 -5 c75 -5 80 -7 83
-28 2 -13 -1 -36 -7 -50 -5 -15 -32 -88 -60 -162 -51 -139 -310 -824 -329
-872 -14 -34 -23 -39 -86 -47 l-51 -6 -6 -55 c-3 -30 -4 -70 -1 -87 l5 -33
283 0 284 0 0 90 0 90 -74 0 c-99 0 -105 8 -76 97 44 134 81 211 104 217 44
12 480 6 506 -7 19 -9 33 -37 62 -117 21 -57 45 -111 53 -119 12 -13 15 -11
24 11 5 14 15 29 21 33 8 5 8 11 -1 21 -14 18 -3 98 17 118 8 8 14 21 14 30 0
19 14 28 34 20 12 -4 13 -11 6 -24 -11 -21 -3 -53 11 -44 5 3 9 16 9 29 0 34
18 41 26 10 3 -14 10 -25 16 -25 5 0 6 10 3 23 -18 60 -115 336 -191 542 -90
246 -112 320 -100 332 4 4 44 10 89 13 l82 5 3 75 c1 41 -2 82 -8 90 -8 13
-66 15 -402 18 -242 1 -399 -2 -408 -8z m419 -352 c10 -24 51 -137 91 -251 56
-161 70 -211 61 -220 -8 -8 -64 -13 -162 -15 -178 -4 -219 1 -219 28 0 20 149
440 169 479 18 33 40 25 60 -21z m471 -648 c0 -11 -4 -20 -10 -20 -5 0 -10 2
-10 4 0 2 -3 11 -6 20 -4 11 -1 16 10 16 9 0 16 -8 16 -20z"/>
<path d="M3949 5273 c-10 -2 -20 -14 -23 -26 -10 -39 -6 -133 6 -145 7 -7 39
-12 73 -12 103 0 94 51 104 -570 5 -300 11 -554 14 -565 3 -11 6 -26 6 -32 1
-18 32 -16 59 3 30 21 43 10 30 -26 -5 -17 -14 -27 -19 -24 -5 3 -9 0 -9 -5 0
-6 5 -11 10 -11 6 0 10 -12 10 -26 0 -14 4 -23 9 -19 5 3 12 -3 16 -14 5 -17
10 -18 41 -9 20 5 38 7 42 4 10 -11 -4 -15 -77 -20 -116 -9 -96 -16 44 -16 71
0 125 3 121 8 -4 4 -19 7 -33 7 -33 0 -41 20 -13 35 16 8 25 8 42 -4 20 -14
22 -13 36 12 8 15 18 44 22 65 7 36 6 37 -21 37 -16 0 -32 0 -36 1 -5 0 -11 9
-15 20 -9 23 -12 344 -4 358 3 5 22 12 41 15 33 7 35 9 35 49 0 88 -10 117
-45 131 l-32 14 -7 328 c-4 210 -11 349 -20 384 l-12 55 -190 1 c-104 1 -196
0 -205 -3z"/>
<path d="M5296 5249 c-10 -54 -7 -134 7 -154 12 -16 23 -17 79 -11 50 5 68 3
77 -8 17 -21 16 -1117 -2 -1128 -6 -4 -42 -8 -78 -8 -87 0 -91 -5 -82 -111 l8
-84 325 -3 c297 -2 326 -1 338 15 16 22 16 155 0 171 -7 7 -44 12 -94 12 -45
0 -89 3 -98 6 -14 5 -16 30 -16 175 0 150 2 169 18 177 9 5 80 12 157 15 381
16 593 154 624 408 32 249 -100 441 -351 513 -135 39 -223 46 -568 46 l-337 0
-7 -31z m744 -174 c124 -26 189 -75 225 -169 25 -64 17 -173 -17 -248 -27 -59
-67 -95 -134 -121 -85 -32 -317 -50 -342 -25 -18 18 -17 564 1 571 27 11 200
6 267 -8z"/>
<path d="M6652 5268 c-7 -7 -12 -42 -12 -89 0 -87 2 -89 76 -89 54 0 61 -7
159 -150 39 -55 114 -165 168 -243 54 -78 114 -165 133 -194 l36 -51 5 -234
c4 -170 3 -240 -6 -256 -11 -20 -19 -22 -91 -22 -113 0 -110 3 -110 -101 0
-64 3 -89 13 -90 107 -4 662 -2 670 3 6 4 13 40 15 81 5 99 -3 107 -107 107
-56 0 -82 4 -90 14 -9 10 -11 84 -9 263 l3 249 117 164 c65 91 155 221 202
290 46 69 93 133 104 144 13 11 44 21 79 25 l58 6 3 81 c2 60 -1 84 -11 93
-11 8 -92 11 -293 9 l-279 -3 0 -90 0 -90 45 -3 c68 -4 90 -11 90 -29 0 -17
-222 -357 -240 -368 -19 -12 -58 34 -167 199 -113 170 -118 188 -57 194 78 7
75 3 72 100 l-3 87 -280 3 c-210 2 -284 -1 -293 -10z"/>
<path d="M4984 5135 c-4 -8 -4 -25 0 -38 3 -14 -2 -38 -14 -60 -11 -20 -20
-50 -20 -65 0 -15 -5 -33 -11 -39 -20 -20 8 -89 58 -138 25 -25 47 -56 48 -68
1 -12 3 -25 4 -29 0 -4 16 -4 35 -1 26 4 39 0 56 -17 29 -29 35 -18 43 68 13
137 -24 257 -107 350 -48 52 -81 66 -92 37z"/>
<path d="M3446 4006 c-23 -35 -40 -107 -37 -153 2 -33 -1 -43 -13 -43 -25 0
-29 20 -11 66 9 24 14 47 11 52 -8 13 -149 2 -158 -12 -4 -6 -8 -44 -8 -84 0
-69 1 -73 26 -82 28 -11 510 -12 559 -1 24 5 31 12 33 34 3 24 -7 37 -60 85
-34 31 -81 75 -102 97 -22 22 -45 40 -51 41 -5 0 -32 4 -60 8 -115 16 -113 16
-129 -8z"/>
<path d="M4514 3932 c-11 -7 -45 -162 -38 -173 8 -13 56 -20 69 -9 16 14 20
157 4 176 -13 16 -19 17 -35 6z"/>
<path d="M4058 3922 c-38 -3 -54 -21 -20 -23 9 0 25 -2 35 -4 10 -2 21 3 24
11 7 19 5 20 -39 16z"/>
<path d="M3940 3898 c0 -19 2 -20 10 -8 13 19 13 30 0 30 -5 0 -10 -10 -10
-22z"/>
<path d="M3988 3913 c7 -3 16 -2 19 1 4 3 -2 6 -13 5 -11 0 -14 -3 -6 -6z"/>
<path d="M4075 3831 c-3 -7 -4 -16 -1 -18 6 -6 46 16 46 25 0 14 -39 8 -45 -7z"/>
<path d="M760 3381 l-205 -6 -7 -70 c-8 -82 -2 -93 55 -97 49 -4 49 -3 112
-175 24 -68 53 -142 64 -165 24 -55 194 -499 263 -691 30 -81 62 -157 71 -167
23 -27 125 -28 155 -2 25 21 58 97 162 382 46 124 119 322 163 440 44 118 91
247 105 285 28 80 51 105 97 105 21 0 35 6 39 16 9 23 7 117 -2 132 -7 9 -62
12 -243 10 l-234 -3 -3 -77 -3 -78 53 0 c29 0 59 -4 67 -9 20 -13 10 -58 -46
-211 -28 -74 -80 -218 -117 -320 -85 -235 -83 -230 -100 -230 -20 0 -29 18
-75 147 -21 60 -56 153 -76 208 -72 194 -126 359 -123 379 2 16 11 22 38 24
83 6 81 3 78 95 l-3 82 -40 1 c-22 0 -132 -2 -245 -5z"/>
<path d="M2123 3383 c-9 -3 -13 -28 -13 -78 0 -48 4 -77 13 -82 6 -4 41 -10
77 -13 62 -5 65 -6 64 -30 -1 -14 -43 -133 -93 -265 -51 -132 -121 -319 -157
-415 -36 -96 -77 -204 -92 -240 -26 -61 -30 -65 -62 -68 -81 -6 -80 -5 -80
-87 0 -61 3 -75 18 -79 9 -3 122 -4 251 -3 l233 1 9 24 c13 34 11 116 -3 130
-7 7 -39 12 -75 12 -45 0 -65 4 -69 14 -6 16 58 207 81 243 15 23 16 23 245
23 184 0 231 -3 243 -14 18 -18 89 -223 85 -245 -3 -12 -18 -17 -68 -19 -36
-2 -69 -7 -75 -13 -11 -11 -9 -139 3 -151 5 -5 127 -7 273 -6 l264 3 0 80 0
80 -65 5 -65 5 -34 85 c-18 47 -66 173 -106 280 -40 107 -91 242 -114 300 -22
58 -41 109 -41 114 0 5 -16 53 -36 107 -20 54 -34 105 -31 113 5 12 22 16 69
16 35 0 69 4 76 9 9 5 12 30 10 87 l-3 79 -360 1 c-198 1 -366 -1 -372 -3z
m371 -305 c20 -47 126 -336 139 -379 20 -69 17 -70 -165 -67 -160 3 -163 3
-166 25 -2 13 27 105 64 205 85 230 92 248 104 248 6 0 17 -15 24 -32z"/>
<path d="M4505 3381 l-100 -6 -3 -68 c-2 -41 2 -74 8 -82 7 -9 37 -15 78 -17
61 -3 66 -5 71 -28 3 -14 4 -241 1 -505 l-5 -480 -67 -5 c-37 -3 -72 -10 -78
-16 -6 -6 -10 -39 -8 -80 l3 -69 385 2 c468 2 608 6 619 19 11 11 23 325 13
341 -7 12 -73 18 -159 15 l-53 -2 0 -88 c0 -55 -5 -94 -12 -104 -11 -13 -43
-17 -184 -21 -95 -2 -179 0 -188 5 -14 8 -16 55 -16 494 0 315 4 492 10 505 9
16 22 19 89 19 91 0 91 1 91 88 0 90 7 87 -207 88 -103 0 -233 -2 -288 -5z
m891 -1300 c6 -29 5 -33 -12 -29 -12 2 -18 11 -17 23 1 11 -4 23 -10 27 -9 6
-8 11 3 18 19 12 28 2 36 -39z m-68 7 c-4 -30 -16 -38 -55 -38 -23 0 -33 5
-33 15 0 8 7 15 15 15 8 0 15 4 15 9 0 9 20 17 48 20 8 1 12 -8 10 -21z"/>
<path d="M5556 3377 c-14 -10 -16 -26 -14 -87 l3 -75 70 -3 c40 -2 73 -8 77
-15 4 -7 8 -219 9 -472 0 -253 4 -471 8 -484 l7 -25 22 28 c12 16 22 35 22 42
0 8 5 14 10 14 6 0 10 7 10 17 0 9 3 14 6 10 4 -3 -2 -33 -12 -67 -13 -45 -22
-60 -36 -60 -10 0 -18 -5 -18 -11 0 -5 -4 -8 -9 -4 -6 3 -14 -3 -20 -12 -6
-11 -11 -13 -11 -5 0 10 -17 12 -62 10 l-63 -3 -3 -33 c-4 -36 14 -66 32 -55
6 4 18 8 26 8 8 0 14 5 13 11 -3 16 34 47 46 39 14 -8 14 -82 1 -90 -16 -10
-11 -22 11 -28 22 -6 69 34 69 57 0 7 9 29 20 51 11 22 20 47 20 57 0 9 10 23
23 29 12 6 32 21 45 32 17 16 25 18 34 9 9 -9 7 -20 -7 -46 -17 -31 -17 -38
-5 -61 24 -45 65 -60 155 -58 44 1 95 5 113 8 l34 6 -4 -43 -3 -43 239 -3
c185 -2 241 1 248 10 12 19 10 336 -2 359 -9 17 -22 19 -103 19 -59 0 -97 -4
-105 -12 -8 -8 -12 -46 -12 -104 0 -75 -3 -93 -16 -98 -9 -3 -117 -6 -240 -6
-205 0 -225 2 -232 18 -4 9 -7 108 -7 218 0 157 3 205 14 218 12 15 35 17 165
16 83 -1 168 -1 189 0 l38 0 -3 88 -3 87 -184 3 c-115 1 -189 7 -198 13 -16
14 -19 344 -4 354 12 7 461 14 478 8 9 -4 13 -30 13 -82 0 -42 4 -82 8 -89 6
-9 34 -12 103 -10 l94 3 3 164 c1 91 -1 168 -6 173 -5 5 -250 11 -544 13 -413
3 -539 1 -552 -8z"/>
<path d="M3270 3300 l0 -80 63 0 c34 0 69 -5 77 -10 13 -8 15 -73 12 -507 -2
-274 -7 -501 -10 -505 -4 -4 -38 -8 -77 -10 l-70 -3 0 -80 0 -80 493 -3 c332
-1 499 1 513 8 18 10 19 20 17 193 l-3 182 -105 0 -105 0 -5 -95 c-3 -52 -9
-101 -13 -107 -6 -10 -55 -13 -187 -13 -132 0 -181 3 -187 13 -8 13 -15 961
-7 990 5 14 18 17 89 17 46 0 86 3 88 8 2 4 2 42 -1 85 l-4 77 -289 0 -289 0
0 -80z"/>
<path d="M6837 3373 c-11 -18 -18 -95 -12 -123 6 -28 9 -30 55 -30 58 0 57 1
228 -245 62 -88 137 -194 167 -235 l54 -75 -2 -235 -2 -235 -88 -3 -88 -3 3
-82 3 -82 290 -2 c160 -2 296 1 304 6 20 13 28 133 9 148 -8 7 -50 13 -93 15
l-80 3 -3 231 -2 231 37 54 c20 30 68 97 107 149 39 52 92 127 118 165 116
171 143 195 224 195 23 0 24 2 24 80 l0 80 -257 -2 -258 -3 -3 -54 c-5 -87 2
-101 47 -101 52 0 71 -8 71 -31 0 -35 -198 -334 -221 -334 -16 0 -75 79 -172
229 -77 119 -77 133 -4 138 l42 3 0 75 0 75 -247 3 c-136 1 -249 -1 -251 -5z"/>
<path d="M5560 2055 c0 -8 5 -15 10 -15 6 0 10 7 10 15 0 8 -4 15 -10 15 -5 0
-10 -7 -10 -15z"/>
<path d="M838 1726 c-140 -41 -238 -151 -254 -287 -7 -66 6 -119 45 -181 47
-74 143 -120 415 -197 179 -50 236 -97 236 -194 0 -79 -31 -124 -114 -169 -33
-17 -52 -20 -116 -16 -128 7 -202 61 -266 191 -32 65 -41 70 -129 65 l-60 -3
0 -185 0 -185 74 0 75 0 8 32 c5 18 13 35 18 38 5 3 38 -10 73 -29 92 -52 172
-69 289 -64 83 4 107 9 161 36 34 17 80 48 100 68 130 130 127 372 -5 473 -78
59 -138 82 -433 162 -110 30 -155 75 -155 154 0 95 62 152 178 162 111 10 189
-34 254 -143 34 -56 50 -64 133 -64 36 0 44 4 49 23 8 29 7 145 0 229 -8 79
-15 84 -100 73 -44 -5 -54 -10 -54 -25 0 -34 -21 -33 -102 5 -73 35 -90 38
-177 41 -60 2 -113 -2 -143 -10z"/>
<path d="M2130 1729 c-293 -43 -519 -323 -496 -612 15 -186 55 -275 174 -388
90 -87 137 -117 237 -153 192 -68 417 -49 570 49 92 58 215 217 215 277 0 16
-10 18 -99 18 l-99 0 -32 -49 c-57 -90 -138 -135 -270 -150 -110 -12 -186 1
-272 46 -81 42 -116 80 -164 174 -43 87 -51 142 -34 262 15 111 40 164 115
245 47 51 67 64 133 89 67 24 91 28 182 28 90 0 112 -4 154 -24 65 -32 110
-73 151 -137 l33 -52 79 -4 c43 -3 81 -2 85 1 4 4 4 87 0 186 l-7 180 -75 0
-74 0 -7 -33 c-9 -42 -16 -49 -37 -34 -39 29 -142 71 -197 81 -66 12 -183 13
-265 0z"/>
<path d="M4832 1725 c-98 -19 -135 -31 -216 -73 -138 -72 -258 -224 -301 -382
-27 -101 -9 -276 40 -370 20 -40 79 -120 122 -166 91 -101 254 -174 416 -189
98 -8 107 -1 107 89 l0 73 -91 11 c-173 21 -297 108 -353 248 -24 59 -28 82
-28 174 0 130 23 200 89 272 94 100 179 137 343 148 95 7 123 6 158 -7 48 -18
54 -16 45 16 -5 19 -10 22 -38 17 l-32 -6 3 40 c1 23 9 52 18 64 14 22 13 24
-12 36 -40 18 -186 21 -270 5z"/>
<path d="M6300 1730 c-129 -17 -236 -62 -338 -142 -85 -68 -97 -118 -27 -118
38 0 85 -18 85 -33 0 -5 -24 -32 -54 -61 l-54 -51 -7 -78 c-4 -42 -4 -116 0
-163 6 -80 5 -87 -15 -109 -19 -21 -22 -30 -15 -62 5 -21 9 -60 10 -88 1 -65
13 -85 83 -138 118 -91 228 -132 380 -143 298 -20 537 109 660 355 46 92 47
96 51 204 5 171 -24 263 -123 392 -108 138 -251 215 -439 235 -101 11 -117 11
-197 0z m298 -200 c84 -39 164 -117 205 -199 31 -63 32 -70 32 -191 0 -121 -1
-127 -32 -191 -84 -171 -248 -250 -472 -226 -102 10 -169 43 -245 119 -87 88
-111 153 -111 304 0 107 1 112 38 187 64 129 175 205 335 226 98 14 177 4 250
-29z"/>
<path d="M2977 1713 c-6 -9 -11 -76 -8 -110 1 -21 6 -23 55 -23 32 0 58 -5 65
-13 15 -19 16 -836 1 -851 -6 -6 -34 -13 -63 -16 l-52 -5 0 -65 0 -65 235 0
235 0 3 67 3 68 -55 0 c-85 0 -86 2 -86 199 0 116 4 171 12 179 15 15 504 17
513 3 3 -5 6 -89 8 -186 2 -199 4 -195 -76 -195 -40 0 -49 -4 -56 -22 -8 -21
-5 -76 4 -105 3 -10 57 -13 222 -13 120 0 224 4 231 9 9 5 12 26 10 67 l-3 59
-50 3 c-76 5 -88 21 -81 112 3 41 5 224 6 405 0 182 4 336 9 344 5 7 35 16 67
20 l59 6 0 65 0 65 -229 3 c-164 2 -232 -1 -243 -9 -10 -9 -13 -29 -11 -68 l3
-56 55 -5 c30 -3 61 -9 68 -13 9 -6 12 -48 12 -152 0 -104 -3 -146 -12 -152
-20 -13 -502 -3 -510 11 -11 16 -9 268 2 286 5 9 31 17 67 20 l58 5 0 65 0 65
-232 3 c-127 1 -234 -1 -236 -5z"/>
<path d="M7191 1706 c-7 -8 -11 -37 -9 -68 l3 -53 45 -3 c25 -1 55 -5 68 -7
l22 -5 0 -418 c0 -229 -4 -422 -8 -428 -4 -6 -34 -15 -67 -20 l-60 -9 0 -65 0
-65 430 0 430 0 0 160 0 160 -73 3 c-46 2 -79 -2 -88 -9 -10 -8 -14 -34 -14
-85 0 -63 -3 -75 -20 -84 -12 -6 -77 -9 -167 -8 l-148 3 -3 425 c-3 485 -10
450 89 450 l58 0 7 45 c3 25 3 56 0 70 l-6 25 -239 0 c-194 0 -241 -3 -250
-14z"/>
<path d="M5140 1670 c0 -16 5 -30 10 -30 6 0 10 6 10 14 0 8 3 21 6 30 4 11 1
16 -10 16 -11 0 -16 -9 -16 -30z"/>
<path d="M5450 1468 c-21 -55 -54 -123 -64 -130 -6 -4 -5 -33 4 -75 33 -164 6
-304 -80 -410 -54 -67 -57 -73 -35 -73 8 0 21 12 29 28 8 15 15 23 16 17 0 -5
5 -3 10 5 7 10 9 0 6 -35 -2 -27 -5 -54 -7 -60 -4 -18 20 -65 34 -65 21 0 149
138 181 195 53 96 69 160 69 280 -1 95 -4 120 -27 180 -31 81 -90 175 -110
175 -7 0 -19 -15 -26 -32z"/>
<path d="M5040 700 c0 -5 5 -10 10 -10 6 0 10 5 10 10 0 6 -4 10 -10 10 -5 0
-10 -4 -10 -10z"/>
<path d="M5037 655 c-4 -8 -2 -17 3 -20 6 -4 10 3 10 14 0 25 -6 27 -13 6z"/>
</g>
</svg>
