<?xml version="1.0" standalone="no"?>
<!DOCTYPE svg PUBLIC "-//W3C//DTD SVG 20010904//EN"
 "http://www.w3.org/TR/2001/REC-SVG-20010904/DTD/svg10.dtd">
<svg version="1.0" xmlns="http://www.w3.org/2000/svg"
 width="500.000000pt" height="500.000000pt" viewBox="0 0 500.000000 500.000000"
 preserveAspectRatio="xMidYMid meet">

<g transform="translate(0.000000,500.000000) scale(0.100000,-0.100000)"
fill="#000000" stroke="none">
<path d="M2400 4232 l0 -88 -97 -12 c-54 -6 -101 -8 -104 -4 -3 4 -18 41 -33
84 l-27 76 -77 -24 c-42 -13 -94 -29 -114 -34 -21 -6 -38 -17 -38 -24 0 -7 11
-46 25 -86 14 -40 24 -74 22 -76 -8 -7 -168 -84 -176 -84 -4 0 -32 31 -61 69
l-53 70 -81 -56 c-132 -91 -127 -79 -67 -159 28 -37 50 -70 49 -74 -2 -3 -36
-37 -76 -75 l-73 -68 -75 51 -74 51 -70 -93 c-39 -51 -70 -95 -70 -98 0 -3 33
-29 74 -58 l74 -53 -22 -36 c-13 -20 -36 -61 -51 -91 -15 -30 -28 -56 -30 -58
-1 -1 -40 11 -86 27 -46 17 -87 27 -90 23 -4 -4 -22 -55 -42 -114 l-35 -107
41 -16 c23 -8 60 -21 82 -29 45 -15 43 -6 24 -138 l-13 -87 -91 -3 -90 -3 -3
-116 -3 -116 38 -7 c21 -3 63 -6 93 -6 l56 0 11 -92 c6 -51 13 -99 14 -107 3
-9 -24 -23 -84 -43 -61 -21 -87 -34 -83 -43 3 -8 19 -59 37 -114 17 -56 37
-101 44 -101 6 0 45 11 85 25 40 14 75 25 77 25 3 0 93 -184 93 -192 0 -3 -32
-29 -70 -58 -42 -31 -67 -57 -63 -63 12 -22 135 -187 139 -187 2 0 35 24 74
54 l71 55 41 -45 c30 -33 43 -41 49 -32 5 7 38 77 75 155 l67 142 -36 48
c-199 272 -271 643 -187 968 26 101 114 280 179 365 63 84 199 214 280 269
334 227 738 269 1092 112 230 -101 438 -301 553 -528 81 -162 116 -313 116
-503 0 -246 -69 -471 -201 -660 -21 -31 -39 -60 -39 -64 0 -5 34 -74 77 -154
l76 -146 38 43 c42 47 37 48 121 -16 31 -24 60 -43 65 -43 4 0 38 45 75 99
l67 98 -75 53 c-41 30 -73 56 -71 59 2 3 22 46 45 94 29 60 47 87 56 84 39
-15 158 -48 162 -44 6 6 73 221 70 224 -2 2 -41 16 -87 32 -46 16 -83 33 -82
39 1 6 8 51 14 101 l13 91 88 0 88 0 0 120 0 120 -90 0 c-65 0 -90 3 -90 13
-1 6 -7 48 -15 92 -8 44 -15 85 -15 92 0 7 38 24 86 39 50 16 83 31 81 38 -2
6 -19 57 -38 114 -18 56 -38 102 -44 102 -5 0 -45 -12 -88 -26 -43 -14 -80
-24 -81 -23 -2 2 -22 44 -45 92 -48 101 -53 84 47 154 28 20 52 39 52 42 0 10
-130 186 -139 189 -4 1 -34 -17 -67 -41 -32 -23 -65 -46 -72 -51 -8 -5 -36 17
-82 65 l-70 72 51 69 c28 38 49 73 47 78 -3 10 -179 140 -188 140 -3 0 -30
-33 -59 -74 l-53 -74 -78 44 c-43 24 -83 44 -89 44 -15 0 -14 7 14 90 14 40
25 79 25 85 0 6 -46 26 -102 44 -57 19 -108 36 -114 38 -6 2 -23 -30 -38 -74
-16 -43 -31 -82 -35 -86 -4 -4 -51 0 -104 9 l-97 18 0 88 0 88 -120 0 -120 0
0 -88z m120 -197 c0 -10 -11 -15 -35 -15 -44 0 -46 -18 -3 -22 46 -4 49 -28 4
-28 -51 0 -49 -28 2 -32 53 -4 41 -23 -15 -23 l-48 0 -3 54 c-2 29 -1 60 2 67
8 20 96 19 96 -1z m-136 -4 c3 -5 -3 -11 -14 -14 -18 -5 -20 -11 -14 -49 4
-23 7 -47 8 -53 0 -5 -6 -10 -14 -10 -10 0 -17 16 -23 53 -8 46 -11 52 -28 47
-13 -4 -19 -2 -19 9 0 21 93 36 104 17z m270 -7 c32 -31 9 -49 -25 -19 -15 14
-18 14 -33 0 -20 -21 -21 -49 -1 -65 12 -10 19 -10 27 -2 17 17 38 15 38 -3 0
-37 -81 -41 -100 -5 -37 70 41 147 94 94z m82 -30 c-4 -13 -2 -24 3 -24 5 0
16 -3 24 -6 11 -4 16 2 19 17 4 29 28 38 28 10 0 -11 -5 -42 -11 -70 -8 -37
-14 -48 -25 -44 -11 4 -13 14 -9 34 6 26 4 29 -19 29 -19 0 -26 -5 -26 -19 0
-23 -18 -38 -29 -25 -4 5 -1 37 6 71 11 48 18 60 29 56 11 -4 14 -13 10 -29z
m159 -54 l11 -44 14 37 c10 23 19 34 26 29 9 -5 7 -24 -7 -69 -23 -72 -42 -75
-60 -9 l-12 41 -10 -32 c-5 -18 -16 -33 -23 -33 -17 0 -17 -2 3 71 20 72 42
76 58 9z m-755 32 c0 -5 -11 -14 -25 -20 -36 -16 -32 -35 5 -27 37 8 41 -11 5
-25 -22 -8 -24 -13 -15 -30 11 -21 6 -40 -10 -40 -8 0 -50 100 -50 120 0 9 46
28 73 29 9 1 17 -3 17 -7z m928 -58 c50 -35 7 -135 -52 -120 -56 14 -72 63
-35 110 23 29 54 33 87 10z m-1034 -16 c24 -34 20 -73 -10 -97 -34 -27 -50
-26 -79 4 -47 46 -23 115 41 115 23 0 38 -7 48 -22z m1130 -26 c3 -5 -6 -28
-20 -52 -13 -23 -23 -44 -22 -45 2 -1 13 -8 26 -14 12 -6 22 -18 22 -26 0 -12
-9 -10 -44 7 l-45 21 30 59 c28 55 42 68 53 50z m-1384 -81 c0 -4 -11 -14 -25
-21 -14 -7 -25 -19 -25 -27 0 -17 5 -16 36 3 36 24 44 7 11 -22 -22 -19 -25
-25 -13 -30 8 -3 26 2 39 11 18 11 27 13 32 5 4 -6 5 -12 4 -14 -37 -27 -69
-46 -78 -46 -11 0 -71 83 -71 99 0 14 71 62 82 55 4 -3 8 -9 8 -13z m1539 -7
c27 -34 26 -46 -5 -83 -20 -24 -32 -30 -51 -26 -34 6 -63 33 -63 60 0 35 37
75 70 75 19 0 36 -9 49 -26z m-1660 -80 c-10 -12 -6 -22 21 -55 23 -29 29 -44
22 -51 -10 -10 -46 22 -74 65 -4 7 -12 6 -22 -3 -9 -7 -20 -10 -24 -6 -10 10
66 78 79 71 6 -5 6 -12 -2 -21z m1790 -18 c13 -13 21 -32 19 -41 -4 -22 -22
-21 -26 2 -6 28 -18 36 -46 29 -29 -7 -43 -41 -26 -61 18 -22 32 -18 25 5 -8
26 7 26 30 0 15 -16 15 -22 5 -35 -19 -23 -56 -18 -79 11 -27 35 -26 59 4 89
31 32 65 32 94 1z m-1819 -140 c0 -27 -29 -56 -54 -56 -30 1 -101 69 -87 83 8
8 20 2 45 -22 22 -21 41 -31 50 -28 26 10 18 34 -19 63 -28 21 -33 29 -24 41
10 12 19 8 51 -24 21 -20 38 -46 38 -57z m1889 38 c-12 -34 -13 -32 22 -30 50
2 46 -21 -5 -28 -24 -4 -50 -14 -56 -21 -7 -8 -19 -15 -26 -15 -20 0 -17 28 5
39 10 6 24 31 31 56 10 35 15 43 26 34 9 -8 10 -17 3 -35z m-2053 -78 c-5 -19
1 -28 34 -51 22 -15 37 -31 34 -36 -9 -15 -24 -10 -60 17 -27 21 -37 24 -49
14 -8 -6 -19 -9 -25 -5 -7 4 1 21 21 46 35 44 54 51 45 15z m1 -134 c14 -10
19 -22 15 -29 -11 -18 -123 52 -115 72 4 13 11 12 42 -5 20 -12 46 -29 58 -38z
m2213 15 c0 -8 -10 -18 -22 -24 -22 -10 -21 -11 12 -18 33 -7 50 -20 50 -39 0
-4 -6 -6 -12 -3 -52 19 -54 18 -73 -23 -10 -22 -21 -40 -25 -40 -16 0 -19 33
-5 53 22 32 18 40 -15 34 -48 -10 -37 19 18 47 54 29 72 32 72 13z m-2324 -30
c-4 -19 2 -26 39 -46 25 -13 45 -27 45 -32 0 -19 -21 -17 -61 5 -39 23 -44 23
-55 8 -23 -32 -28 -1 -6 43 23 47 48 62 38 22z m2391 -104 c2 -6 -5 -14 -16
-18 -20 -6 -28 -34 -15 -48 4 -3 16 -1 27 4 15 8 22 8 28 -2 6 -10 -4 -20 -39
-36 -26 -12 -55 -22 -64 -22 -25 -1 -22 26 3 32 14 4 19 12 17 24 -3 14 -12
17 -36 15 -50 -3 -39 20 21 45 54 23 68 24 74 6z m-2437 -17 c0 -8 -7 -16 -15
-20 -8 -3 -15 -12 -15 -21 0 -22 9 -19 32 11 35 44 88 16 74 -39 -8 -33 -43
-54 -60 -37 -8 9 -6 16 12 27 22 16 30 43 12 43 -5 0 -14 -9 -20 -19 -13 -25
-47 -36 -65 -21 -19 16 -19 40 1 68 17 25 44 30 44 8z m-10 -130 c25 -7 45
-19 45 -27 0 -8 -20 -20 -45 -28 l-45 -15 38 -9 c36 -9 46 -20 28 -31 -4 -3
-34 2 -65 11 -68 19 -72 40 -11 58 41 12 39 15 -12 31 -19 5 -15 24 5 24 9 0
37 -6 62 -14z m2498 -19 c20 -16 15 -23 -45 -66 -47 -33 -59 -38 -61 -25 -2 9
2 20 9 25 17 10 -4 59 -26 59 -8 0 -15 7 -15 15 0 12 11 14 63 8 34 -3 68 -10
75 -16z m-2556 -108 c74 -15 78 -16 72 -32 -5 -15 -14 -14 -111 8 -13 3 -23
12 -23 20 0 18 -4 18 62 4z m2593 -33 c9 -48 -2 -76 -29 -76 -12 0 -27 5 -32
10 -7 7 -16 4 -29 -10 -10 -11 -22 -20 -27 -20 -16 0 -7 27 17 50 33 31 32 40
-5 40 -46 0 -39 28 8 33 92 9 91 10 97 -27z m-37 -130 c37 -13 52 -23 52 -35
0 -17 -15 -25 -117 -68 -8 -3 -13 2 -13 11 0 9 7 19 15 22 8 4 15 16 15 29 0
13 -7 25 -15 29 -8 3 -15 13 -15 22 0 9 6 14 13 12 6 -3 36 -13 65 -22z
m-2508 -36 c0 -12 -13 -26 -32 -37 l-33 -18 33 -3 c20 -2 32 -9 32 -18 0 -11
-15 -14 -65 -14 -77 0 -86 16 -27 52 l37 23 -37 3 c-25 2 -38 8 -38 18 0 11
15 14 65 14 58 0 65 -2 65 -20z m2544 -106 c21 -20 21 -78 0 -95 -13 -10 -17
-10 -24 1 -6 9 -3 18 8 26 24 18 4 48 -35 52 -34 3 -50 -18 -33 -46 9 -16 9
-16 10 1 0 9 7 17 15 17 10 0 15 -10 15 -30 0 -27 -3 -30 -30 -30 -23 0 -33 6
-40 25 -10 27 2 74 23 87 21 13 75 9 91 -8z m-2544 -18 c0 -8 -4 -18 -10 -21
-15 -10 -12 -55 5 -61 8 -4 15 -12 15 -20 0 -11 -7 -13 -27 -8 -130 32 -138
45 -56 91 67 37 73 38 73 19z m2504 -122 l48 -7 -5 -34 c-7 -41 -23 -63 -46
-63 -25 0 -41 20 -41 51 0 18 -6 28 -20 32 -11 3 -20 13 -20 22 0 11 6 15 18
11 9 -3 39 -8 66 -12z m-2484 -27 c0 -9 -22 -17 -65 -23 -59 -9 -65 -8 -65 7
0 12 10 19 33 22 71 9 97 7 97 -6z m-3 -55 c12 -8 33 -55 33 -76 0 -7 -28 -19
-65 -28 l-64 -15 -7 45 c-6 40 -4 48 16 64 23 18 66 24 87 10z m2505 -61 c4
-3 4 -12 0 -18 -6 -10 -17 -10 -42 -3 -52 15 -70 13 -70 -9 0 -15 12 -22 50
-31 56 -14 63 -37 10 -32 -79 6 -115 57 -72 100 18 18 26 19 69 10 26 -6 51
-13 55 -17z m-2452 -72 c0 -6 -12 -27 -27 -47 -24 -31 -25 -35 -8 -28 43 18
55 18 55 3 0 -22 -116 -61 -124 -41 -3 7 6 27 19 43 32 37 31 43 -1 31 -34
-13 -44 -13 -44 3 0 8 21 21 48 29 57 19 82 22 82 7z m2356 -45 c27 -9 52 -20
56 -23 12 -11 -14 -81 -34 -92 -13 -7 -23 -4 -38 11 -14 14 -27 18 -50 14 -42
-9 -39 13 5 32 39 16 45 30 15 39 -19 6 -29 35 -12 35 5 0 31 -7 58 -16z
m-2313 -78 c4 -9 -4 -18 -21 -24 -15 -6 -44 -17 -64 -26 -34 -15 -38 -15 -38
-1 0 10 22 26 53 40 63 29 63 29 70 11z m37 -101 c10 -12 10 -18 0 -30 -25
-30 -61 -7 -46 30 3 8 12 15 19 15 8 0 20 -7 27 -15z m2203 1 c8 -21 -16 -48
-36 -40 -17 6 -23 35 -10 47 11 12 41 7 46 -7z"/>
<path d="M2999 3876 c-14 -31 -6 -56 19 -56 45 0 58 72 15 78 -16 2 -26 -4
-34 -22z"/>
<path d="M1960 3885 c-15 -18 -6 -61 15 -69 42 -16 62 35 27 67 -23 21 -26 21
-42 2z"/>
<path d="M3238 3755 c-9 -21 -9 -29 4 -42 20 -19 46 -11 57 19 18 47 -40 68
-61 23z"/>
<path d="M3730 3060 c0 -5 4 -10 9 -10 6 0 13 5 16 10 3 6 -1 10 -9 10 -9 0
-16 -4 -16 -10z"/>
<path d="M3784 2935 c-3 -8 -3 -19 1 -25 11 -18 25 -11 25 15 0 27 -17 34 -26
10z"/>
<path d="M3770 2776 c0 -9 7 -12 20 -9 11 3 17 9 14 14 -8 14 -34 10 -34 -5z"/>
<path d="M1215 2600 c-3 -5 1 -10 9 -10 9 0 16 5 16 10 0 6 -4 10 -9 10 -6 0
-13 -4 -16 -10z"/>
<path d="M3780 2479 c0 -24 23 -21 28 4 2 10 -3 17 -12 17 -10 0 -16 -9 -16
-21z"/>
<path d="M1243 2423 c-7 -2 -13 -16 -13 -30 0 -23 3 -24 33 -18 40 9 49 17 41
38 -6 16 -35 21 -61 10z"/>
<path d="M3716 2224 c-9 -24 -7 -34 8 -34 18 0 27 37 11 44 -7 2 -16 -2 -19
-10z"/>
<path d="M2426 3784 c-19 -18 -20 -26 -5 -41 7 -7 -13 -14 -65 -22 -42 -7 -76
-17 -76 -23 0 -6 15 -7 40 -3 l40 7 0 -36 c0 -38 -15 -55 -33 -36 -9 9 -8 14
6 24 24 18 21 28 -5 24 -31 -4 -38 -52 -9 -67 11 -6 27 -8 35 -5 9 3 16 1 16
-5 0 -6 6 -11 13 -11 9 0 11 12 9 40 -3 31 -1 40 11 40 23 0 31 -18 16 -36
-15 -18 -8 -27 15 -18 12 5 16 16 14 38 -3 27 -7 31 -35 34 -54 5 -37 22 22
22 l55 0 0 -55 c0 -30 5 -55 10 -55 6 0 10 24 10 54 0 34 5 56 12 58 13 5 7
13 -39 64 -26 28 -36 30 -57 8z m54 -35 c10 -18 9 -20 -12 -17 -12 2 -24 11
-26 21 -5 24 25 22 38 -4z"/>
<path d="M2802 3729 c2 -6 8 -10 13 -10 5 0 11 4 13 10 2 6 -4 11 -13 11 -9 0
-15 -5 -13 -11z"/>
<path d="M2650 3711 c0 -5 10 -11 23 -13 31 -4 31 -43 -1 -42 -20 1 -22 -3
-16 -30 9 -43 12 -46 40 -46 29 0 32 16 4 23 -24 6 -26 22 -4 31 24 9 54 -12
54 -39 0 -44 19 -36 26 11 3 25 15 54 26 64 19 17 17 18 -53 34 -82 18 -99 20
-99 7z m103 -27 c21 -8 9 -43 -14 -41 -13 1 -19 9 -19 24 0 24 7 27 33 17z"/>
<path d="M2052 3703 c-23 -9 -35 -43 -21 -59 20 -24 -8 -36 -42 -18 -32 16
-69 19 -69 5 0 -6 15 -11 33 -13 41 -4 40 -18 -4 -43 -54 -31 -104 -73 -96
-81 4 -4 13 -2 19 4 19 19 29 14 16 -9 -11 -17 -10 -22 7 -35 11 -8 18 -18 15
-22 -14 -19 45 -11 66 9 13 12 24 19 24 14 0 -5 5 -4 11 2 8 8 3 23 -20 57
-31 45 -31 45 -10 56 23 13 38 0 60 -52 6 -16 18 -28 25 -28 11 0 8 13 -11 50
-29 58 -29 56 -10 64 11 4 22 -9 40 -44 14 -28 30 -50 36 -50 12 0 5 29 -18
73 -8 15 -11 37 -8 48 5 15 2 19 -17 17 -17 -2 -23 2 -23 17 0 17 6 20 48 18
53 -1 63 11 16 21 -35 7 -48 7 -67 -1z m-88 -194 c18 -31 18 -31 -3 -52 -23
-23 -41 -16 -21 8 15 19 5 34 -12 17 -20 -20 -32 -14 -14 7 9 10 14 25 10 35
-11 29 21 17 40 -15z"/>
<path d="M2168 3678 c-64 -22 -75 -37 -26 -34 26 1 34 -4 42 -26 12 -33 -1
-50 -18 -25 -16 21 -26 22 -26 3 0 -21 27 -38 50 -31 15 5 20 15 20 40 0 19
-4 37 -10 40 -16 10 -11 27 6 23 10 -2 22 -22 31 -50 8 -28 19 -48 28 -48 11
0 11 9 -5 54 -13 39 -15 57 -7 65 17 17 -19 13 -85 -11z"/>
<path d="M2830 3674 c0 -5 11 -17 25 -29 18 -15 22 -24 15 -35 -8 -12 -13 -13
-30 -2 -19 11 -20 10 -20 -23 0 -26 6 -39 25 -51 14 -9 29 -13 33 -9 4 4 -3
14 -15 22 -13 9 -23 19 -23 24 0 4 10 9 23 11 12 2 26 13 32 26 5 12 15 20 22
18 7 -3 15 -1 18 4 3 5 -9 16 -28 24 -53 22 -77 28 -77 20z"/>
<path d="M2967 3613 c-12 -11 -8 -24 6 -21 7 2 12 -1 12 -7 0 -5 -7 -9 -15 -7
-58 10 -80 11 -80 3 0 -5 9 -12 19 -16 10 -3 22 -17 25 -31 5 -17 15 -26 37
-31 23 -4 28 -10 24 -23 -13 -39 12 -26 38 21 25 43 31 48 48 39 25 -14 24
-19 -11 -66 -33 -43 -36 -54 -17 -54 6 1 24 19 39 40 15 22 35 40 43 40 8 0
15 4 15 8 0 11 -102 82 -117 82 -6 0 -16 7 -23 15 -13 16 -32 19 -43 8z m73
-52 c0 -5 -8 -19 -18 -31 -15 -18 -21 -20 -45 -11 -38 15 -36 39 3 33 21 -3
32 0 36 12 6 16 24 13 24 -3z"/>
<path d="M2379 3541 c-92 -20 -228 -79 -304 -131 -135 -93 -238 -263 -266
-440 -13 -88 0 -179 38 -254 33 -65 134 -166 203 -202 50 -26 64 -29 156 -29
97 0 105 2 172 36 l70 36 6 -36 c6 -40 8 -161 2 -161 -2 0 -25 10 -52 22 -80
35 -144 48 -239 48 -133 0 -256 -49 -334 -133 -25 -28 -540 -1143 -548 -1189
-9 -48 20 -45 140 15 208 104 332 132 543 124 210 -7 402 -68 459 -143 34 -45
74 -64 130 -64 53 0 97 22 116 58 14 25 52 47 141 83 279 111 555 97 815 -42
95 -51 127 -59 136 -34 4 8 -129 288 -295 624 l-301 610 -48 26 c-57 31 -162
55 -239 55 -30 0 -97 -9 -149 -20 -52 -11 -96 -20 -98 -20 -5 0 -1 103 6 133
l6 27 35 -24 c135 -91 358 -41 468 106 115 153 144 309 89 480 -30 95 -71 160
-140 225 -98 92 -219 164 -342 203 -100 31 -261 36 -376 11z m336 -37 c183
-45 389 -195 459 -336 70 -139 75 -282 13 -412 -45 -96 -76 -137 -139 -182
-52 -39 -149 -74 -202 -74 -44 0 -125 26 -155 49 -33 25 -22 63 26 96 47 31
63 32 63 2 0 -48 85 -96 136 -77 14 6 41 21 62 35 24 16 50 25 76 25 l39 0 -6
35 c-15 90 -107 165 -203 165 -42 0 -56 -5 -78 -26 -14 -15 -26 -36 -26 -48 0
-29 -10 -40 -47 -60 -33 -16 -33 -16 -33 7 0 33 43 90 133 174 42 39 77 76 77
82 0 6 7 11 15 11 25 0 88 35 114 64 18 19 34 26 63 26 33 0 38 3 38 24 0 29
-55 80 -114 107 -54 24 -152 25 -186 2 -35 -24 -41 -34 -34 -64 4 -22 1 -28
-18 -32 -13 -4 -53 -31 -90 -62 -57 -46 -66 -51 -58 -29 14 37 63 104 104 143
43 42 45 51 8 51 -19 0 -38 -11 -59 -32 -35 -37 -98 -134 -118 -181 -12 -30
-13 -28 -20 54 -4 47 -5 94 -4 104 3 10 22 24 48 34 60 22 85 58 84 119 -1 45
-4 52 -50 95 -27 26 -58 62 -69 82 -22 41 -33 40 -54 -1 -8 -16 -36 -51 -62
-77 -32 -31 -49 -56 -50 -74 -4 -78 13 -112 72 -138 l40 -18 0 -101 0 -101
-27 40 c-59 88 -136 175 -154 175 -20 0 -26 -24 -10 -35 13 -8 74 -115 69
-120 -2 -3 -34 11 -71 31 -63 33 -67 37 -67 70 0 46 -14 70 -50 89 -81 42
-235 -17 -285 -109 -24 -44 -16 -64 23 -58 22 3 49 -6 96 -33 47 -26 79 -37
110 -37 52 -1 64 6 80 43 l12 28 42 -20 c94 -47 166 -145 198 -270 21 -81 15
-90 -23 -32 -57 87 -141 162 -230 207 -59 29 -113 35 -113 11 0 -8 8 -15 19
-15 51 0 185 -122 256 -232 l17 -28 -47 18 c-33 12 -55 28 -72 53 -13 20 -35
41 -49 48 -37 17 -124 13 -164 -7 -39 -19 -100 -102 -100 -136 0 -19 4 -21 34
-18 24 3 47 -4 78 -22 87 -51 165 -44 195 19 15 32 20 35 48 29 38 -8 78 -28
94 -48 11 -13 8 -18 -21 -36 -150 -92 -295 -76 -428 46 -83 78 -123 157 -128
259 -10 181 88 386 233 489 201 144 424 192 640 140z m131 -513 l24 -19 -66
-47 c-67 -48 -135 -129 -183 -220 l-26 -50 -3 89 c-3 79 0 94 24 140 35 67 46
80 129 138 l70 49 3 -30 c2 -18 13 -39 28 -50z m-557 -612 c24 -5 73 -22 108
-37 l65 -27 -7 -70 c-18 -202 -72 -331 -215 -519 -39 -50 -40 -71 -2 -61 31 8
149 79 175 106 24 26 36 24 48 -8 19 -52 53 -113 61 -113 5 0 7 -84 6 -187 -2
-150 -6 -187 -17 -191 -9 -3 -12 0 -9 9 4 8 9 21 13 30 11 29 -176 101 -353
135 -112 22 -319 22 -421 0 -41 -9 -76 -15 -78 -13 -3 4 179 524 289 827 34
93 36 95 79 112 50 19 188 23 258 7z m698 -9 c26 -6 54 -14 61 -19 9 -5 257
-633 344 -872 5 -14 -8 -15 -121 -11 -143 5 -295 -9 -408 -39 -125 -33 -249
-103 -264 -148 -3 -8 -10 -11 -17 -7 -9 5 -12 60 -12 194 0 175 2 189 23 226
33 58 46 63 103 39 27 -12 69 -24 93 -28 l45 -7 -38 43 c-50 59 -112 186 -136
281 -21 85 -45 281 -37 302 3 7 18 16 34 19 15 3 53 12 83 21 66 17 180 20
247 6z m-1344 -633 c-178 -404 -242 -540 -260 -553 -14 -8 -26 -14 -28 -12 -1
2 106 243 240 536 213 469 269 581 281 569 2 -2 -103 -245 -233 -540z m1721
-2 c111 -264 199 -481 195 -483 -27 -11 -55 51 -225 493 -101 263 -184 481
-183 484 1 8 -23 62 213 -494z m312 -532 c-6 -6 -75 29 -80 41 -2 6 -82 193
-176 416 -95 223 -174 412 -177 420 -2 8 95 -185 216 -429 122 -244 219 -446
217 -448z m-1895 730 c-12 -20 -14 -14 -5 12 4 9 9 14 11 11 3 -2 0 -13 -6
-23z m-135 -338 c-67 -171 -122 -311 -121 -312 0 -1 36 9 78 22 118 38 206 48
362 42 147 -6 227 -19 362 -63 88 -28 120 -45 110 -61 -4 -6 -39 1 -89 18
-167 54 -237 64 -448 64 -202 -1 -280 -12 -395 -60 -36 -16 -37 -15 -31 2 20
53 290 663 292 660 2 -2 -52 -142 -120 -312z m539 -194 c83 -17 241 -69 274
-90 7 -5 11 -13 8 -19 -4 -5 -46 4 -104 23 -174 58 -248 70 -448 70 -140 0
-194 -4 -241 -18 -69 -19 -88 -21 -80 -8 8 12 151 50 229 61 86 12 255 3 362
-19z m1197 23 c20 -4 39 -12 41 -19 4 -9 -37 -12 -171 -12 -245 0 -407 -32
-549 -109 -42 -22 -63 -29 -63 -20 0 47 182 125 355 152 85 13 325 18 387 8z
m7 -72 c50 -6 56 -10 68 -41 13 -31 13 -33 -4 -26 -10 4 -58 15 -108 26 -228
48 -506 5 -655 -101 -16 -12 -31 -16 -35 -11 -12 21 134 92 250 121 142 35
342 49 484 32z"/>
<path d="M2390 1613 c-21 -8 -30 -24 -30 -53 0 -32 17 -50 48 -50 15 0 22 -5
19 -12 -2 -8 -17 -12 -35 -11 -24 2 -30 0 -26 -12 9 -23 43 -28 69 -11 22 14
25 24 25 71 0 44 -4 57 -22 69 -24 17 -25 17 -48 9z m37 -67 c-4 -9 -11 -16
-17 -16 -15 0 -24 26 -16 47 6 15 8 15 23 1 9 -9 13 -24 10 -32z"/>
<path d="M2233 1591 c-29 -24 -30 -45 -3 -36 18 6 20 2 20 -50 0 -41 3 -56 13
-53 8 3 13 31 15 81 3 84 -4 92 -45 58z"/>
<path d="M2626 1579 c-9 -47 -8 -51 17 -49 39 4 47 0 47 -20 0 -23 -31 -41
-38 -22 -5 16 -32 15 -32 -1 0 -35 56 -50 84 -21 19 18 21 65 4 82 -7 7 -23
12 -36 12 -13 0 -20 4 -17 10 3 6 17 10 31 10 15 0 24 6 24 15 0 11 -11 15
-39 15 -35 0 -39 -3 -45 -31z"/>
<path d="M2803 1591 c-29 -24 -30 -45 -3 -36 18 6 20 2 20 -49 0 -43 3 -56 15
-56 12 0 15 16 15 80 0 86 -7 95 -47 61z"/>
<path d="M1730 3491 c0 -6 13 -11 29 -11 50 0 45 -19 -5 -22 -30 -2 -49 -8
-52 -17 -4 -11 0 -12 14 -6 11 4 30 10 44 13 22 5 19 -1 -23 -42 -48 -49 -57
-66 -33 -66 7 0 19 -7 26 -15 7 -9 21 -13 31 -10 14 5 19 1 19 -14 0 -34 17
-24 25 15 6 34 7 35 24 20 10 -9 21 -13 25 -9 3 4 -12 25 -34 48 -37 37 -39
43 -25 55 14 11 21 8 55 -25 51 -50 62 -39 17 17 -19 24 -32 48 -30 54 2 7 -6
12 -19 12 -13 1 -38 4 -55 8 -22 4 -33 2 -33 -5z m48 -113 c28 -28 -1 -57 -34
-33 -15 11 -16 15 -5 29 16 19 23 20 39 4z"/>
<path d="M3160 3492 c0 -4 16 -23 35 -42 19 -18 32 -37 29 -42 -4 -5 -19 2
-34 17 -30 29 -57 30 -73 3 -8 -12 -7 -21 2 -32 17 -21 51 -21 51 0 0 10 -6
14 -15 11 -17 -7 -30 9 -14 18 6 4 21 -3 35 -16 l24 -23 -26 -27 c-17 -18 -22
-29 -14 -34 7 -4 26 10 46 34 22 25 40 38 49 34 28 -10 15 13 -33 60 -46 46
-62 56 -62 39z"/>
<path d="M3350 3294 c0 -3 4 -13 9 -23 6 -10 6 -23 1 -31 -7 -12 -12 -11 -28
3 -25 23 -28 22 -42 -13 -18 -43 -6 -76 32 -90 31 -10 32 -12 15 -25 -36 -26
4 -27 44 0 26 16 47 24 60 20 10 -4 19 -3 19 0 0 13 -95 165 -102 165 -5 0 -8
-3 -8 -6z m68 -129 c-6 -5 -47 -25 -51 -25 -3 0 -8 7 -11 16 -5 13 -1 15 20
10 30 -8 30 10 0 28 -14 9 -21 6 -36 -11 -15 -20 -20 -21 -30 -8 -20 24 -5 45
28 39 18 -4 32 -1 37 6 5 8 14 1 27 -20 10 -18 18 -33 16 -35z"/>
<path d="M1577 3183 c-21 -36 -34 -69 -31 -72 3 -3 13 4 21 17 21 30 35 28 31
-5 -3 -25 0 -28 27 -28 23 0 33 7 45 30 10 20 21 29 33 27 33 -7 16 15 -33 42
-28 15 -48 31 -45 36 3 5 1 11 -3 14 -5 3 -25 -25 -45 -61z m79 -18 c7 -16
-13 -55 -27 -55 -5 0 -7 11 -3 24 4 17 1 27 -12 34 -9 5 -14 14 -10 21 9 13
44 -3 52 -24z"/>
<path d="M3465 3071 c8 -23 10 -41 6 -41 -5 0 -11 9 -14 20 -6 24 -34 37 -49
22 -7 -7 -7 -20 0 -41 6 -17 7 -33 2 -36 -14 -8 -30 29 -23 53 3 13 1 22 -6
22 -19 0 -24 -49 -7 -75 19 -29 38 -32 56 -10 10 12 10 21 2 40 -7 14 -7 25
-2 25 5 0 12 -9 15 -20 3 -11 15 -20 25 -20 10 0 20 -6 23 -12 2 -7 8 -10 12
-6 10 10 -27 110 -42 115 -10 4 -9 -6 2 -36z"/>
<path d="M1530 3090 c0 -5 -11 -10 -25 -10 -37 0 -68 -35 -55 -60 6 -11 17
-20 25 -20 18 0 19 -13 5 -60 -5 -19 -6 -38 -1 -43 4 -4 13 12 20 37 14 56 34
62 25 8 -4 -28 -2 -41 9 -51 20 -16 57 -11 71 11 14 23 -1 36 -17 14 -8 -11
-19 -15 -30 -10 -20 7 -21 17 -7 44 9 16 15 18 37 9 16 -6 30 -6 35 -1 12 12
5 16 -54 32 -28 7 -48 18 -48 26 0 10 -7 13 -26 8 -22 -6 -25 -4 -22 12 2 11
13 20 27 22 16 3 21 0 16 -8 -5 -8 -1 -11 11 -8 11 3 41 -4 67 -14 56 -21 57
-21 57 -7 0 5 -22 19 -50 31 -27 11 -50 27 -50 34 0 8 -4 14 -10 14 -5 0 -10
-4 -10 -10z"/>
<path d="M3322 2989 c2 -6 8 -10 13 -10 5 0 11 4 13 10 2 6 -4 11 -13 11 -9 0
-15 -5 -13 -11z"/>
<path d="M3516 2939 c-4 -9 -6 -22 -4 -29 2 -7 -9 -20 -24 -29 -22 -13 -30
-13 -40 -3 -10 10 -8 14 10 18 26 7 20 24 -9 24 -17 0 -20 -6 -17 -32 2 -27 8
-34 30 -36 15 -2 36 2 48 8 17 9 20 8 20 -9 0 -16 -9 -21 -43 -26 -24 -4 -50
-11 -58 -15 -26 -17 0 -22 53 -11 36 8 54 9 56 1 2 -5 7 -8 12 -5 4 2 1 35 -6
72 -18 86 -20 91 -28 72z"/>
<path d="M1467 2860 c-20 -86 -14 -127 9 -70 16 38 49 42 41 4 -4 -23 -3 -25
27 -18 43 9 46 12 46 40 0 29 -16 32 -23 4 -7 -26 -20 -25 -32 3 -6 12 -19 22
-30 22 -11 0 -23 9 -26 20 -6 18 -7 18 -12 -5z"/>
<path d="M3540 2760 c0 -5 -11 -10 -24 -10 -42 0 -56 -11 -56 -41 0 -19 -5
-29 -15 -29 -8 0 -15 -7 -15 -16 0 -14 8 -16 55 -11 31 3 55 2 55 -4 0 -5 5
-9 10 -9 6 0 10 28 10 65 0 37 -4 65 -10 65 -5 0 -10 -4 -10 -10z m0 -55 c0
-21 -5 -25 -30 -25 -22 0 -30 5 -30 18 0 25 9 32 37 32 18 0 23 -5 23 -25z"/>
<path d="M1450 2680 c0 -40 4 -70 10 -70 6 0 10 5 10 11 0 14 42 7 48 -8 2 -8
-6 -13 -21 -13 -13 0 -30 -7 -37 -15 -16 -19 -3 -55 21 -55 24 0 24 9 2 26
-17 12 -16 13 7 14 15 0 30 -8 38 -20 10 -17 16 -18 33 -10 28 15 22 54 -9 58
-30 4 -25 36 6 40 12 2 22 8 22 14 0 7 -19 9 -55 5 l-55 -6 0 30 0 30 55 -6
c47 -6 55 -5 55 9 0 13 -11 16 -55 16 -30 0 -55 5 -55 10 0 6 -4 10 -10 10 -6
0 -10 -30 -10 -70z m110 -110 c0 -5 -4 -10 -10 -10 -5 0 -10 5 -10 10 0 6 5
10 10 10 6 0 10 -4 10 -10z"/>
<path d="M3370 2721 c-6 -16 -9 -39 -5 -50 8 -25 40 -28 49 -5 9 23 7 34 -4
34 -5 0 -10 -8 -10 -17 0 -13 -3 -14 -12 -5 -9 9 -9 18 0 37 14 31 15 35 3 35
-5 0 -14 -13 -21 -29z"/>
<path d="M3536 2589 c-4 -22 -11 -30 -23 -27 -11 2 -18 12 -17 26 0 18 -3 21
-25 15 -35 -8 -51 -22 -51 -44 0 -25 16 -24 23 1 7 26 20 25 32 -2 6 -15 18
-23 33 -22 12 0 22 -5 22 -13 0 -7 4 -13 9 -13 9 0 21 48 21 86 0 34 -16 30
-24 -7z"/>
<path d="M1263 848 l-122 -163 1391 -3 c765 -1 1393 0 1396 2 2 3 -40 77 -94
165 l-99 161 -1175 0 -1175 0 -122 -162z m613 72 c49 0 84 -4 84 -10 0 -5 -4
-10 -10 -10 -6 0 -10 -28 -10 -65 0 -51 -3 -65 -15 -65 -12 0 -15 14 -15 65 0
51 -3 65 -15 65 -11 0 -15 -11 -15 -39 0 -48 -11 -57 -36 -29 -14 15 -16 22
-6 25 6 3 12 13 12 24 0 14 -7 19 -25 19 -24 0 -25 -2 -25 -65 0 -51 -3 -65
-15 -65 -12 0 -15 14 -15 65 0 58 -2 65 -20 65 -18 0 -20 -7 -20 -65 0 -51 -3
-65 -15 -65 -8 0 -15 7 -15 15 0 10 -10 15 -30 15 -19 0 -33 7 -40 19 -14 28
-13 41 6 41 24 0 12 35 -14 38 -12 2 -22 8 -22 13 0 5 37 9 82 9 l82 0 -28 29
c-20 20 -24 30 -14 34 7 2 26 -11 41 -29 28 -34 29 -34 113 -34z m584 60 c12
-8 11 -11 -8 -16 -14 -4 -22 -13 -20 -23 3 -13 21 -16 106 -19 57 -1 102 -7
102 -12 0 -6 -4 -10 -10 -10 -6 0 -10 -28 -10 -65 0 -51 -3 -65 -15 -65 -10 0
-15 10 -15 30 0 33 -27 54 -50 40 -12 -7 -11 -12 4 -29 21 -23 13 -49 -10 -30
-24 19 -56 78 -49 89 5 8 11 7 21 -1 11 -9 14 -8 14 5 0 12 -9 16 -35 16 l-35
0 0 -60 c0 -47 -3 -60 -15 -60 -10 0 -15 10 -15 29 0 37 -17 49 -35 25 -20
-28 -48 -1 -40 38 l7 28 -54 -1 c-42 -1 -47 -3 -23 -8 24 -5 31 -12 33 -34 3
-27 -12 -57 -29 -57 -4 0 -5 16 -2 36 5 29 3 36 -8 32 -8 -3 -15 -22 -17 -46
-2 -29 -8 -42 -18 -42 -8 0 -14 7 -14 16 0 8 -4 12 -10 9 -15 -9 -48 12 -55
35 -8 25 10 50 36 50 24 0 24 -9 2 -26 -14 -10 -15 -15 -6 -24 17 -18 33 -3
33 31 0 28 -2 29 -45 29 -33 0 -45 4 -45 15 0 13 22 15 140 15 l140 0 0 29 c0
25 9 37 30 40 3 0 12 -4 20 -9z m471 -25 l24 -35 250 0 251 0 -4 -72 c-3 -40
-9 -75 -14 -77 -5 -2 1 -14 13 -27 27 -29 19 -43 -13 -22 -19 13 -23 25 -23
64 0 38 -4 49 -17 52 -11 2 -18 -3 -18 -12 0 -21 -13 -20 -34 3 -11 12 -14 21
-7 26 18 11 12 35 -9 35 -18 0 -20 -7 -20 -60 0 -53 -2 -60 -20 -60 -16 0 -20
7 -20 37 0 35 -1 36 -15 17 -14 -19 -15 -19 -21 4 -7 25 -29 29 -37 7 -4 -8 5
-23 20 -34 22 -18 23 -22 9 -27 -24 -9 -56 24 -56 57 0 35 28 53 63 40 14 -6
28 -7 31 -4 16 17 0 23 -59 23 l-65 0 0 -60 c0 -47 -3 -60 -15 -60 -12 0 -15
14 -15 65 0 48 -4 65 -14 65 -9 0 -12 -8 -9 -24 3 -16 -2 -31 -15 -44 -18 -18
-19 -22 -6 -33 10 -8 12 -15 4 -23 -7 -7 -19 -1 -40 19 -34 33 -39 49 -11 40
11 -3 22 -1 26 5 3 5 -1 10 -9 10 -9 0 -21 9 -28 20 -24 38 -38 24 -38 -40 0
-53 -2 -60 -20 -60 -18 0 -20 7 -20 60 l0 60 -42 -1 c-24 -1 -34 -4 -23 -6 30
-8 45 -23 45 -47 0 -25 -17 -46 -37 -46 -11 0 -11 5 -3 21 13 23 6 54 -10 44
-5 -3 -10 -24 -10 -46 0 -28 -4 -39 -15 -39 -8 0 -15 7 -15 15 0 9 -6 12 -15
8 -19 -7 -55 24 -55 47 0 21 20 40 42 40 22 0 24 -16 3 -24 -21 -8 -19 -38 3
-34 11 2 18 14 20 36 3 32 3 32 -42 32 -34 0 -46 4 -46 15 0 12 16 15 83 15
69 1 79 3 61 13 -12 7 -19 18 -17 24 3 9 16 4 41 -14 l37 -27 -28 30 c-24 27
-27 44 -7 44 4 0 18 -16 31 -35z m-911 -70 c0 -8 -9 -15 -20 -15 -11 0 -20 7
-20 15 0 8 9 15 20 15 11 0 20 -7 20 -15z m0 -80 c0 -8 -9 -15 -20 -15 -11 0
-20 7 -20 15 0 8 9 15 20 15 11 0 20 -7 20 -15z m595 -65 c11 -18 -16 -40 -47
-40 -35 0 -71 17 -63 31 4 6 13 5 25 -1 10 -5 29 -10 42 -9 l23 0 -22 9 c-13
5 -23 12 -23 15 0 10 59 5 65 -5z"/>
<path d="M1680 877 c0 -13 -5 -28 -12 -35 -15 -15 -4 -26 17 -19 17 7 22 77 5
77 -5 0 -10 -10 -10 -23z"/>
<path d="M2390 880 c0 -11 7 -20 15 -20 8 0 15 9 15 20 0 11 -7 20 -15 20 -8
0 -15 -9 -15 -20z"/>
<path d="M2560 880 c0 -11 7 -20 15 -20 8 0 15 9 15 20 0 11 -7 20 -15 20 -8
0 -15 -9 -15 -20z"/>
<path d="M3032 891 c4 -13 18 -16 19 -4 0 4 -5 9 -11 12 -7 2 -11 -2 -8 -8z"/>
<path d="M3380 880 c0 -13 7 -20 20 -20 13 0 20 7 20 20 0 13 -7 20 -20 20
-13 0 -20 -7 -20 -20z"/>
</g>
</svg>
