<?xml version="1.0" standalone="no"?>
<!DOCTYPE svg PUBLIC "-//W3C//DTD SVG 20010904//EN"
 "http://www.w3.org/TR/2001/REC-SVG-20010904/DTD/svg10.dtd">
<svg version="1.0" xmlns="http://www.w3.org/2000/svg"
 width="543.000000pt" height="78.000000pt" viewBox="0 0 543.000000 78.000000"
 preserveAspectRatio="xMidYMid meet">

<g transform="translate(0.000000,78.000000) scale(0.100000,-0.100000)"
fill="#000000" stroke="none">
<path d="M2926 595 c-41 -22 -55 -44 -56 -90 0 -50 17 -75 78 -116 63 -43 102
-79 113 -106 12 -32 -7 -78 -38 -92 -35 -16 -24 -23 16 -11 53 15 79 37 90 77
15 54 -13 108 -81 153 -88 59 -118 89 -118 119 0 40 21 63 66 71 l39 8 -40 1
c-22 0 -53 -6 -69 -14z"/>
<path d="M3309 587 c-29 -16 -54 -40 -74 -72 -26 -43 -30 -57 -30 -124 0 -63
4 -84 25 -120 14 -25 40 -54 58 -64 39 -23 102 -39 102 -26 0 5 -6 9 -14 9 -8
0 -28 15 -44 34 -76 87 -62 307 23 362 18 12 39 15 72 11 28 -3 40 -1 32 4
-27 17 -105 10 -150 -14z"/>
<path d="M4200 588 c-67 -34 -101 -90 -108 -176 -7 -108 31 -187 105 -218 55
-23 67 -17 30 16 -95 83 -76 348 28 391 14 5 15 8 5 8 -9 1 -36 -9 -60 -21z"/>
<path d="M4305 603 c11 -3 32 -16 47 -30 80 -75 77 -300 -5 -369 l-32 -27 30
7 c133 33 189 235 98 355 -28 36 -94 71 -133 70 -20 -1 -21 -2 -5 -6z"/>
<path d="M4684 599 c-17 -5 -50 -29 -72 -53 -92 -100 -74 -282 36 -344 48 -27
91 -32 54 -6 -12 8 -32 34 -45 57 -19 36 -22 57 -22 142 1 118 23 177 78 200
36 16 19 18 -29 4z"/>
<path d="M4790 593 c55 -28 84 -97 84 -197 0 -94 -14 -143 -54 -186 -34 -36
-21 -38 36 -5 119 70 129 296 15 370 -20 13 -54 27 -76 30 l-40 7 35 -19z"/>
<path d="M204 587 c15 -11 17 -32 14 -204 -3 -211 -6 -202 57 -195 l30 4 -5
185 c-5 186 -2 204 30 216 8 3 -21 6 -64 6 -67 1 -77 -1 -62 -12z"/>
<path d="M418 590 c20 -9 22 -16 24 -97 1 -86 2 -87 7 -26 l6 63 129 -175 c70
-96 132 -175 137 -175 5 0 9 32 9 71 0 42 -4 68 -10 64 -5 -3 -58 60 -117 139
l-108 145 -50 0 c-40 0 -45 -2 -27 -9z"/>
<path d="M693 588 c21 -7 27 -17 28 -41 2 -30 2 -31 6 -5 2 15 14 35 26 43 20
14 18 15 -33 14 -49 0 -52 -2 -27 -11z"/>
<path d="M848 590 c22 -9 22 -12 22 -193 0 -129 -4 -187 -12 -195 -9 -9 -8
-12 8 -12 10 -1 51 -2 89 -4 39 -2 55 -1 38 1 -20 2 -37 12 -44 24 -6 13 -9
84 -7 195 2 142 6 177 18 184 10 7 -9 10 -60 9 -55 0 -69 -3 -52 -9z"/>
<path d="M1044 591 c71 -24 96 -77 96 -203 0 -94 -21 -152 -64 -180 l-31 -20
30 7 c68 15 129 86 141 162 19 129 -43 224 -156 237 -37 5 -40 4 -16 -3z"/>
<path d="M1298 590 c22 -9 22 -12 22 -200 0 -138 -3 -190 -12 -190 -6 0 -9 -3
-5 -6 3 -4 29 -7 57 -8 43 -2 50 0 43 13 -4 9 -9 53 -11 98 -3 72 -1 82 15 86
16 4 16 5 1 6 -16 1 -18 12 -18 79 0 92 7 119 29 125 9 3 -20 5 -64 5 -57 1
-74 -2 -57 -8z"/>
<path d="M1480 587 c33 -16 54 -79 43 -127 -6 -23 -20 -42 -42 -57 -21 -14
-28 -23 -18 -23 22 0 33 -23 47 -98 16 -81 36 -106 81 -103 19 2 58 3 87 4 28
1 52 5 52 9 0 5 -4 8 -10 8 -5 0 -10 15 -10 33 l-1 32 -16 -30 c-21 -39 -30
-44 -62 -36 -22 6 -29 17 -42 67 -22 84 -27 92 -66 105 l-35 11 40 18 c21 10
47 28 56 41 19 28 21 87 2 111 -16 21 -77 48 -108 48 -23 0 -23 0 2 -13z"/>
<path d="M1837 593 c-14 -23 -35 -83 -28 -78 7 4 71 -142 71 -162 0 -2 -31 -3
-70 -1 -40 2 -71 -1 -74 -7 -2 -6 25 -9 74 -7 l78 3 21 -64 c12 -35 19 -70 16
-78 -4 -11 7 -14 54 -14 57 0 58 0 43 20 -8 11 -47 103 -86 204 -65 169 -85
207 -99 184z"/>
<path d="M2088 590 c12 -5 22 -18 22 -28 0 -20 268 -388 276 -379 10 10 9 127
-1 127 -5 1 -58 66 -118 145 l-107 145 -48 -1 c-38 0 -43 -2 -24 -9z"/>
<path d="M2358 590 c12 -5 27 -20 32 -32 l9 -23 0 23 c1 14 10 26 24 32 17 7
10 9 -33 9 -43 0 -50 -2 -32 -9z"/>
<path d="M2510 593 c8 -3 18 -11 22 -17 13 -19 9 -361 -4 -374 -7 -7 -8 -12
-2 -13 67 -5 95 -5 99 2 3 4 1 10 -5 14 -6 4 -10 77 -10 191 0 182 0 185 23
194 16 6 -1 9 -58 9 -44 -1 -73 -3 -65 -6z"/>
<path d="M3542 588 c-2 -21 -32 -24 -52 -5 -7 6 -2 -3 13 -21 15 -19 27 -41
27 -50 1 -15 2 -15 11 1 6 9 8 34 6 55 -2 20 -4 29 -5 20z"/>
<path d="M3638 589 l23 -9 -3 -197 -3 -198 65 -1 c36 -1 58 1 50 4 -31 9 -40
36 -40 119 l0 84 93 -3 92 -3 0 -75 c0 -41 -2 -86 -5 -99 -5 -22 -2 -23 40
-25 l45 -1 -3 195 c-3 176 -2 196 14 207 15 11 6 13 -56 13 -66 0 -72 -1 -54
-14 15 -12 19 -28 21 -86 1 -39 -1 -78 -4 -86 -4 -11 -26 -14 -94 -14 l-89 0
0 73 c0 87 7 115 29 120 9 3 -20 5 -64 5 -59 1 -74 -2 -57 -9z"/>
<path d="M5033 589 c15 -9 17 -29 17 -198 0 -185 0 -188 -22 -199 -19 -9 -11
-10 40 -9 l64 2 -2 197 c-1 179 1 198 17 207 14 8 0 10 -57 10 -56 0 -71 -2
-57 -10z"/>
<path d="M3070 575 c5 -6 16 -27 24 -46 l15 -34 1 41 c0 37 -3 42 -25 46 -19
4 -23 2 -15 -7z"/>
<path d="M5306 279 c-3 -17 -19 -44 -36 -60 -16 -17 -30 -31 -30 -32 0 -1 18
-3 40 -5 l40 -2 0 65 c0 71 -4 82 -14 34z"/>
<path d="M3537 293 c-4 -3 -7 -14 -7 -23 0 -10 -10 -30 -22 -46 -17 -21 -18
-25 -4 -14 16 13 20 12 32 -5 12 -16 13 -12 11 38 -1 31 -2 57 -3 57 0 0 -4
-3 -7 -7z"/>
<path d="M2869 245 c-4 -47 -3 -50 21 -51 14 -1 36 -4 50 -8 20 -5 21 -5 5 3
-27 12 -51 40 -62 76 -10 29 -10 28 -14 -20z"/>
<path d="M441 238 c0 -15 -5 -30 -11 -33 -18 -11 -10 -20 19 -20 26 0 28 2 16
15 -7 8 -15 26 -18 40 l-4 25 -2 -27z"/>
<path d="M2097 209 c-9 -10 -13 -20 -9 -20 53 -9 60 -5 38 23 -12 16 -14 16
-29 -3z"/>
</g>
</svg>
