<?xml version="1.0" standalone="no"?>
<!DOCTYPE svg PUBLIC "-//W3C//DTD SVG 20010904//EN"
 "http://www.w3.org/TR/2001/REC-SVG-20010904/DTD/svg10.dtd">
<svg version="1.0" xmlns="http://www.w3.org/2000/svg"
 width="512.000000pt" height="512.000000pt" viewBox="0 0 512.000000 512.000000"
 preserveAspectRatio="xMidYMid meet">

<g transform="translate(0.000000,512.000000) scale(0.100000,-0.100000)"
fill="#000000" stroke="none">
<path d="M1242 5109 c-462 -60 -862 -391 -1012 -837 -71 -211 -77 -400 -26
-755 l32 -228 -30 -61 c-29 -58 -31 -70 -31 -173 0 -99 3 -116 27 -168 71
-152 228 -247 408 -247 59 0 60 0 60 -28 0 -42 34 -169 65 -243 62 -146 193
-305 328 -395 67 -45 208 -114 235 -114 21 0 13 -14 -24 -39 -122 -84 -249
-300 -270 -463 -6 -44 -11 -51 -43 -68 -47 -24 -96 -76 -115 -122 -18 -41 -21
-133 -7 -170 8 -23 4 -26 -57 -56 -368 -173 -379 -700 -20 -883 112 -57 134
-59 588 -59 247 0 430 4 451 10 55 15 100 50 137 105 19 28 38 51 42 53 5 2
23 -18 39 -45 16 -27 44 -59 61 -71 66 -49 90 -52 440 -52 180 0 352 4 381 10
130 24 270 124 337 242 81 141 83 336 4 482 -51 95 -171 195 -274 230 -15 4
-16 10 -8 31 13 34 13 110 0 156 -13 46 -72 114 -119 139 -35 17 -38 23 -50
87 -30 164 -141 351 -260 438 -42 31 -51 45 -28 45 6 0 46 15 87 33 202 88
366 248 459 449 39 83 81 224 81 272 0 25 3 26 54 26 183 0 336 89 409 239 30
62 32 72 32 176 0 97 -3 116 -26 165 -14 30 -38 69 -53 87 l-27 32 142 178
c78 98 146 183 151 189 5 7 -33 66 -102 157 -61 81 -110 149 -110 152 0 3 114
62 252 131 l253 127 -96 91 c-219 208 -464 338 -747 396 -55 11 -117 20 -139
20 -80 0 -88 -15 155 308 l24 32 -998 -1 c-550 -1 -1027 -5 -1062 -10z m1608
-319 c-66 -88 -120 -161 -120 -164 0 -2 102 -6 228 -8 202 -5 237 -8 322 -30
184 -49 336 -121 481 -228 l61 -44 -236 -118 c-130 -65 -236 -121 -236 -125 0
-3 59 -85 131 -180 88 -118 127 -178 121 -186 -67 -89 -214 -267 -220 -267 -4
1 -34 7 -67 15 -33 8 -85 15 -116 15 l-57 0 -4 178 c-4 159 -7 185 -31 252
-51 143 -147 256 -278 325 -120 63 -138 65 -596 65 l-413 0 0 -79 0 -80 418
-3 417 -3 72 -34 c51 -24 89 -51 128 -92 51 -53 105 -148 105 -184 0 -13 -88
-15 -680 -15 -465 0 -696 4 -732 11 -122 26 -237 105 -307 210 -62 93 -81 167
-81 315 l0 124 -86 0 -87 0 6 -142 c5 -151 30 -260 77 -336 24 -39 24 -42 6
-42 -7 0 -51 -19 -96 -41 -145 -73 -257 -209 -297 -361 l-17 -65 -85 -6 c-52
-3 -108 -13 -140 -26 -30 -11 -55 -20 -56 -18 -1 1 -13 76 -26 167 -33 230
-32 416 4 553 108 409 439 718 852 795 28 6 420 10 903 11 l852 1 -120 -160z
m-1590 -1025 c61 -45 150 -89 225 -111 55 -16 125 -18 773 -21 l713 -4 -3
-527 c-4 -586 -1 -558 -76 -710 -91 -184 -262 -324 -467 -384 -78 -22 -90 -23
-525 -23 -433 0 -447 1 -523 23 -246 71 -434 248 -515 487 l-27 80 0 460 0
460 27 58 c53 114 178 213 298 236 25 5 47 9 49 10 2 1 25 -15 51 -34z m-600
-551 c0 -65 -3 -83 -12 -78 -7 4 -32 20 -55 36 -23 15 -45 28 -50 28 -4 0 -27
-29 -50 -65 l-43 -65 105 -70 105 -70 0 -60 0 -60 -67 0 c-156 1 -257 97 -257
245 0 84 23 135 86 189 51 44 82 54 171 55 l67 1 0 -86z m2641 74 c120 -35
192 -175 155 -300 -33 -112 -124 -178 -248 -178 l-68 0 0 60 0 60 105 70 105
70 -43 65 c-23 36 -45 65 -49 65 -4 0 -32 -16 -63 -35 l-55 -36 0 86 0 85 61
0 c34 0 79 -5 100 -12z m-1611 -1476 c0 -4 -20 -28 -45 -52 l-44 -43 -21 47
c-11 26 -20 50 -20 52 0 2 29 4 65 4 36 0 65 -4 65 -8z m550 4 c0 -8 -39 -96
-43 -96 -1 0 -25 23 -52 50 l-49 50 72 0 c40 0 72 -2 72 -4z m-160 -211 c96
-96 178 -171 181 -167 4 4 31 66 59 137 28 72 55 134 59 138 10 10 84 -52 134
-113 46 -55 92 -147 110 -220 l14 -55 -156 -5 c-180 -6 -207 -15 -271 -88 -48
-54 -64 -106 -57 -190 5 -60 3 -64 -19 -72 -43 -17 -85 -54 -111 -97 -27 -47
-57 -56 -68 -22 -12 37 -69 92 -120 115 -38 18 -68 24 -122 24 l-71 0 5 60
c10 107 -44 201 -142 246 -45 22 -64 24 -198 24 -137 0 -148 1 -143 18 3 9 10
37 16 62 26 100 106 221 187 284 26 20 50 33 53 29 4 -5 31 -70 61 -145 30
-76 56 -138 59 -138 3 0 84 79 180 175 96 96 177 175 180 175 3 0 84 -79 180
-175z m-641 -460 c57 -29 61 -103 9 -139 -19 -13 -54 -16 -211 -16 l-189 0
-29 29 c-16 16 -29 40 -29 53 0 30 26 67 54 78 11 5 99 9 194 9 133 1 180 -2
201 -14z m1341 -10 c11 -11 22 -34 26 -52 5 -27 1 -37 -24 -63 l-30 -30 -192
0 -192 0 -30 30 c-25 26 -29 36 -24 62 14 72 33 78 258 75 173 -2 189 -4 208
-22z m-1021 -316 c57 -20 61 -40 61 -324 0 -276 -5 -309 -53 -320 -12 -3 -213
-4 -447 -3 -417 3 -426 3 -470 25 -63 31 -128 98 -159 163 -37 79 -37 191 1
272 45 96 135 167 239 187 68 13 790 13 828 0z m1164 -13 c66 -25 150 -104
184 -174 24 -49 28 -69 27 -137 0 -59 -6 -93 -22 -127 -31 -69 -97 -136 -167
-169 l-60 -29 -335 0 c-286 1 -330 3 -299 14 226 80 297 356 139 530 -33 35
-69 62 -110 80 -33 15 -60 29 -60 32 0 3 147 4 328 2 283 -4 333 -7 375 -22z
m-687 -172 c53 -39 69 -71 69 -137 0 -49 -5 -69 -23 -95 -40 -55 -87 -72 -202
-72 l-100 0 0 166 0 166 114 -4 c97 -2 119 -6 142 -24z"/>
<path d="M994 3258 c17 -110 94 -210 194 -256 44 -20 73 -26 132 -26 66 -1 84
3 142 32 101 50 170 141 184 245 l7 47 -81 0 c-81 0 -82 0 -88 -27 -26 -111
-157 -169 -245 -110 -41 28 -79 82 -79 113 0 23 -2 24 -86 24 l-87 0 7 -42z"/>
<path d="M2150 3270 c0 -16 9 -54 20 -84 54 -144 214 -235 364 -206 141 27
248 136 271 278 l7 42 -86 0 c-84 0 -86 -1 -86 -24 0 -28 -35 -82 -72 -109
-14 -11 -49 -22 -75 -24 -85 -9 -160 46 -178 129 -7 28 -7 28 -86 28 l-79 0 0
-30z"/>
<path d="M2141 2605 c-13 -49 -45 -90 -85 -109 -29 -13 -75 -16 -300 -16
l-266 0 0 -85 0 -85 258 0 c279 0 337 8 411 54 79 50 151 167 151 246 l0 30
-80 0 -79 0 -10 -35z"/>
<path d="M1820 1570 l0 -80 80 0 80 0 0 80 0 80 -80 0 -80 0 0 -80z"/>
<path d="M1820 1240 l0 -80 80 0 80 0 0 80 0 80 -80 0 -80 0 0 -80z"/>
<path d="M4790 4540 l0 -80 -85 0 -86 0 3 -82 3 -83 83 -3 82 -3 0 -79 0 -80
80 0 80 0 0 80 0 80 85 0 85 0 0 85 0 85 -85 0 -85 0 0 80 0 80 -80 0 -80 0 0
-80z"/>
<path d="M4790 3880 l0 -79 -82 -3 -83 -3 0 -80 0 -80 83 -3 82 -3 0 -79 0
-80 80 0 80 0 0 80 0 80 85 0 85 0 0 85 0 85 -85 0 -85 0 0 80 0 80 -80 0 -80
0 0 -80z"/>
<path d="M4790 3220 l0 -79 -82 -3 -83 -3 0 -80 0 -80 83 -3 82 -3 0 -79 0
-80 80 0 80 0 0 80 0 80 85 0 85 0 0 85 0 85 -85 0 -85 0 0 80 0 80 -80 0 -80
0 0 -80z"/>
<path d="M168 2398 l-3 -83 -82 -3 -83 -3 0 -79 0 -79 83 -3 82 -3 3 -82 3
-83 79 0 80 0 0 85 0 85 85 0 85 0 0 80 0 80 -85 0 -85 0 0 85 0 85 -80 0 -79
0 -3 -82z"/>
<path d="M3589 2471 c-45 -14 -79 -43 -100 -82 -17 -34 -19 -60 -19 -246 0
-236 14 -347 61 -487 38 -114 106 -245 175 -338 30 -40 54 -76 54 -80 0 -4
-24 -39 -53 -78 -112 -148 -191 -335 -222 -525 -12 -76 -16 -151 -13 -315 3
-207 4 -216 26 -248 13 -18 41 -41 62 -52 38 -19 62 -20 732 -20 l694 0 44 22
c33 17 51 35 68 68 21 41 22 57 22 240 0 121 -6 232 -15 293 -29 195 -118 403
-235 553 l-48 61 59 79 c64 85 146 241 178 339 44 135 53 204 58 447 5 229 5
239 -17 282 -13 27 -36 54 -58 68 l-37 23 -695 2 c-382 1 -707 -2 -721 -6z
m1361 -241 l0 -80 -660 0 -660 0 0 80 0 80 660 0 660 0 0 -80z m-4 -314 c-22
-216 -125 -433 -289 -611 l-65 -70 75 -78 c156 -164 255 -373 278 -590 l7 -67
-657 0 -658 0 7 69 c8 87 47 226 91 318 43 92 100 176 187 275 l70 79 -60 64
c-163 174 -269 397 -289 608 l-6 67 658 0 658 0 -7 -64z m4 -1666 l0 -80 -660
0 -660 0 0 80 0 80 660 0 660 0 0 -80z"/>
<path d="M168 1738 l-3 -83 -82 -3 -83 -3 0 -79 0 -79 83 -3 82 -3 3 -82 3
-83 79 0 80 0 0 85 0 85 85 0 85 0 0 80 0 80 -85 0 -85 0 0 85 0 85 -80 0 -79
0 -3 -82z"/>
<path d="M168 1078 l-3 -83 -82 -3 -83 -3 0 -79 0 -79 83 -3 82 -3 3 -82 3
-83 79 0 80 0 0 85 0 85 85 0 85 0 0 80 0 80 -85 0 -85 0 0 85 0 85 -80 0 -79
0 -3 -82z"/>
</g>
</svg>
