<?xml version="1.0" standalone="no"?>
<!DOCTYPE svg PUBLIC "-//W3C//DTD SVG 20010904//EN"
 "http://www.w3.org/TR/2001/REC-SVG-20010904/DTD/svg10.dtd">
<svg version="1.0" xmlns="http://www.w3.org/2000/svg"
 width="2224.000000pt" height="360.000000pt" viewBox="0 0 2224.000000 360.000000"
 preserveAspectRatio="xMidYMid meet">

<g transform="translate(0.000000,360.000000) scale(0.100000,-0.100000)"
fill="#000000" stroke="none">
<path d="M3190 3591 c0 -5 -16 -15 -35 -21 -63 -21 -75 -48 -75 -170 l0 -107
56 -41 c50 -37 63 -42 111 -42 59 0 116 20 150 52 27 25 40 17 45 -26 4 -37
25 -45 38 -14 6 13 17 34 25 48 29 50 13 112 -34 128 -29 10 -31 14 -31 61 0
57 -19 82 -82 108 -21 8 -38 19 -38 24 0 5 -29 9 -65 9 -36 0 -65 -4 -65 -9z"/>
<path d="M243 3294 c-3 -11 -11 -23 -17 -27 -8 -6 -7 -10 2 -14 21 -8 14 -50
-9 -56 -15 -4 -18 -10 -13 -19 5 -7 7 -597 6 -1310 -3 -1084 -2 -1298 10
-1298 7 -1 285 -1 618 -1 333 0 955 1 1383 1 l777 0 0 75 c0 68 -2 75 -20 75
-19 0 -25 14 -22 53 1 9 -3 17 -8 17 -12 0 -13 -67 -2 -74 5 -3 8 -29 8 -58
l-1 -53 -1339 -2 c-746 -1 -1347 2 -1356 7 -15 8 -16 80 -18 792 -1 431 3 851
8 933 5 83 10 315 11 516 1 202 4 372 8 378 8 12 1382 20 1986 11 198 -3 362
-4 365 -2 2 2 -1 11 -6 20 -10 16 -89 17 -1167 17 -1118 0 -1156 1 -1176 19
-20 18 -21 18 -28 0z"/>
<path d="M2600 3300 c0 -5 14 -23 32 -40 24 -23 29 -33 20 -42 -21 -21 -15
-162 10 -221 24 -59 86 -129 133 -152 18 -8 38 -21 45 -30 9 -10 31 -15 74
-15 l62 0 12 228 c12 245 10 282 -19 282 -27 0 -28 -8 -16 -98 8 -60 8 -85 0
-93 -8 -8 -13 2 -18 37 -16 104 -13 100 -70 108 -29 5 -45 12 -45 22 0 11 -14
14 -57 13 -42 0 -52 -3 -38 -9 15 -6 8 -9 -28 -9 -34 -1 -49 3 -53 14 -7 17
-44 21 -44 5z m215 -70 c21 -5 4 -8 -57 -9 -53 -1 -88 3 -88 9 0 11 100 11
145 0z"/>
<path d="M3572 3268 c-17 -17 -15 -53 3 -68 10 -8 12 -17 6 -23 -6 -6 -7 -289
-3 -750 4 -601 8 -744 19 -755 11 -11 1523 -14 9100 -16 l9088 -3 23 25 22 25
0 769 c0 683 -2 768 -15 768 -9 0 -18 6 -20 13 -7 16 -17935 13 -17965 -3 -10
-5 -57 -10 -103 -10 -71 0 -87 3 -102 20 -21 23 -36 25 -53 8z m345 -24 c-3
-3 -12 -4 -19 -1 -8 3 -5 6 6 6 11 1 17 -2 13 -5z m1073 -219 c23 -28 30 -298
15 -567 -3 -48 -1 -89 4 -92 5 -4 58 43 118 102 141 141 187 172 257 172 59 0
70 -10 95 -80 16 -46 52 -369 44 -400 -9 -37 -42 -69 -99 -96 -80 -38 -84 -35
-84 44 0 114 -26 249 -55 293 -45 69 -94 49 -236 -98 -71 -73 -169 -207 -169
-230 0 -16 -36 -43 -57 -43 -24 0 -24 1 -19 83 20 300 10 723 -16 755 -7 8
-28 12 -57 10 -45 -2 -47 0 -42 32 0 6 12 10 26 10 14 0 33 9 42 20 10 11 24
20 32 20 8 0 31 11 50 23 20 13 47 31 61 40 32 20 74 21 90 2z m4918 3 c5 -7
13 -106 16 -223 3 -115 8 -232 10 -260 2 -27 5 -130 7 -228 4 -184 1 -196 -38
-197 -7 0 -17 -9 -23 -20 -6 -11 -21 -20 -34 -20 -13 0 -31 -9 -41 -20 -13
-14 -29 -20 -49 -18 -31 3 -31 3 -26 53 10 102 2 666 -11 718 -14 61 -20 67
-76 67 -24 0 -43 4 -43 8 0 14 23 32 40 32 9 0 25 9 35 20 10 11 23 20 29 20
6 1 40 19 76 40 66 41 110 50 128 28z m-5356 -131 c104 -56 108 -65 46 -99
-138 -76 -152 -82 -156 -70 -9 27 -68 72 -94 72 -15 0 -37 4 -50 9 -34 13
-128 -13 -151 -42 -25 -32 -31 -65 -18 -90 19 -34 81 -77 112 -77 16 0 43 -9
61 -20 21 -12 51 -20 80 -20 30 0 60 -7 80 -20 18 -11 44 -20 57 -20 33 0 123
-45 152 -76 53 -57 16 -162 -88 -250 -32 -27 -64 -54 -71 -61 -7 -7 -19 -13
-26 -13 -7 0 -25 -9 -39 -20 -14 -11 -33 -20 -43 -20 -9 0 -26 -8 -36 -17 -34
-31 -178 -43 -327 -28 -65 7 -77 12 -102 39 -16 17 -32 41 -35 53 -6 23 21 73
40 73 6 0 38 18 71 40 65 44 105 52 105 22 0 -26 92 -102 123 -102 13 0 38 -7
56 -16 30 -15 35 -15 86 6 89 36 110 78 77 152 -15 35 -30 49 -71 71 -29 15
-68 27 -86 27 -18 0 -52 9 -76 20 -24 11 -65 20 -90 20 -25 0 -54 7 -65 15
-10 8 -36 19 -56 25 -51 14 -94 53 -102 91 -8 44 11 111 44 151 31 37 143 118
164 118 7 0 25 9 39 20 14 11 36 20 49 21 12 0 43 9 68 19 33 14 70 19 137 19
78 1 99 -3 135 -22z m3613 -59 c59 -47 66 -63 33 -74 -13 -3 -30 -12 -38 -19
-28 -24 -112 -42 -155 -33 -32 7 -43 15 -52 38 -11 29 -10 30 60 79 40 27 78
50 85 50 7 1 37 -18 67 -41z m1364 -6 c28 -26 49 -51 45 -55 -12 -12 -129 -65
-149 -67 -50 -6 -77 2 -100 26 -29 32 -32 52 -7 61 9 3 25 13 35 22 29 25 91
59 108 60 9 1 39 -21 68 -47z m-1813 -64 c-11 -58 -9 -129 3 -141 8 -8 22 -8
56 1 52 14 94 15 113 4 9 -6 -8 -25 -58 -65 -40 -31 -77 -57 -84 -57 -7 0 -22
-11 -34 -23 -31 -33 -40 -156 -18 -246 16 -69 26 -81 68 -81 15 0 30 -5 33
-10 8 -14 -49 -70 -71 -70 -10 0 -27 -8 -38 -18 -12 -10 -42 -23 -68 -30 -65
-16 -90 -3 -117 62 -19 46 -21 70 -21 233 0 204 2 199 -77 187 -59 -9 -69 16
-22 56 19 16 39 29 44 30 22 0 83 61 88 87 5 22 19 34 67 58 34 17 66 36 72
43 6 6 24 12 40 12 29 0 30 -2 24 -32z m3799 5 c-4 -16 -9 -54 -12 -85 -5 -56
-4 -57 23 -64 15 -4 41 -2 59 5 38 13 92 15 99 2 8 -13 -90 -98 -140 -122 -60
-29 -67 -49 -62 -175 5 -140 17 -168 76 -172 23 -2 42 -8 42 -15 0 -23 -54
-67 -81 -67 -16 0 -32 -7 -37 -17 -5 -9 -33 -22 -62 -30 -46 -12 -56 -11 -76
2 -53 35 -64 86 -64 298 0 133 -3 177 -13 179 -6 1 -34 2 -62 2 -84 2 -71 27
54 109 20 12 39 36 45 55 9 25 25 39 76 66 35 19 66 39 68 45 2 6 20 11 39 11
34 0 35 -1 28 -27z m6769 -123 c3 -130 14 -268 35 -447 4 -34 5 -66 2 -70 -6
-8 -28 -19 -146 -74 -22 -11 -49 -19 -60 -19 -20 0 -20 7 -20 304 0 236 -3
307 -13 319 -9 10 -33 17 -65 19 -40 2 -53 7 -55 21 -3 13 3 17 25 18 15 0 62
17 103 38 63 32 84 38 133 37 l58 -1 3 -145z m-3959 23 c66 -64 228 -281 280
-375 37 -69 59 -65 111 20 71 115 96 170 123 278 11 40 13 42 56 47 25 2 54
11 63 20 9 8 39 17 66 20 30 3 52 11 58 21 11 20 78 22 78 3 0 -7 -18 -30 -40
-51 -57 -54 -336 -411 -368 -471 -8 -16 -18 -46 -21 -65 -6 -31 -10 -35 -45
-41 -21 -3 -43 -14 -48 -23 -7 -12 -23 -16 -63 -16 -45 0 -57 4 -67 21 -63
107 -211 327 -261 387 -122 148 -119 146 -178 152 -62 6 -75 30 -22 41 18 3
43 13 55 21 13 9 38 19 56 23 18 4 36 13 39 21 3 8 20 14 42 14 30 0 46 -8 86
-47z m1068 -13 c14 -11 30 -20 36 -20 6 0 11 -8 11 -19 0 -14 -10 -21 -36 -25
-19 -4 -38 -14 -41 -22 -4 -10 -24 -14 -82 -14 -75 0 -76 0 -89 30 -17 38 -11
46 38 54 22 3 43 13 46 21 9 23 86 19 117 -5z m-5122 -20 c39 0 55 -5 80 -28
31 -27 31 -29 16 -58 -20 -39 -90 -103 -127 -116 -17 -5 -35 -19 -41 -30 -10
-18 2 -33 105 -134 102 -101 120 -114 150 -114 48 0 52 -13 13 -43 -17 -13
-43 -36 -57 -50 -19 -18 -41 -27 -83 -32 l-58 -7 -89 88 c-116 117 -180 194
-180 216 0 11 20 29 55 49 61 34 107 82 99 103 -6 15 -47 36 -69 36 -31 0 -14
40 30 70 25 17 45 35 45 40 0 10 30 19 48 14 8 -2 36 -4 63 -4z m-4186 -31
c44 -39 191 -234 241 -320 21 -35 50 -80 66 -99 15 -19 28 -42 28 -51 0 -20
-27 -44 -60 -54 -14 -4 -34 -18 -46 -30 -35 -38 -67 -23 -115 54 -23 36 -51
77 -63 90 -33 37 -107 81 -137 81 -14 0 -43 7 -62 15 -20 8 -46 15 -57 15 -22
0 -100 -45 -100 -59 0 -4 19 -27 42 -50 40 -42 43 -43 102 -41 172 6 198 -8
104 -55 -29 -15 -60 -33 -68 -40 -8 -7 -48 -21 -88 -31 -60 -14 -79 -15 -106
-6 -18 7 -44 12 -59 12 -15 0 -27 4 -27 9 0 5 -16 26 -35 45 -48 50 -46 79 9
142 50 56 174 124 229 124 34 0 99 28 104 46 4 14 -43 65 -82 89 -16 11 -48
22 -69 25 -22 3 -41 10 -43 17 -3 7 26 27 66 47 38 20 72 40 76 46 3 5 31 10
60 10 46 0 59 -5 90 -31z m637 -4 c5 -16 11 -74 15 -127 4 -67 10 -98 18 -98
7 0 50 39 96 86 46 48 108 102 137 121 28 18 52 38 52 43 0 6 26 10 58 10 44
0 63 -5 75 -18 22 -25 55 -122 63 -185 3 -29 12 -88 19 -132 8 -44 16 -101 20
-127 l6 -46 -53 -27 c-29 -15 -62 -35 -74 -46 -11 -10 -32 -19 -47 -19 -26 0
-27 2 -27 58 0 31 -9 90 -20 130 -11 39 -20 86 -20 104 0 39 -6 48 -42 71 -36
22 -50 22 -106 -7 -68 -35 -158 -140 -231 -269 -37 -66 -77 -110 -94 -104 -8
2 -15 57 -20 158 -4 85 -13 185 -19 222 -12 78 -25 89 -97 80 -34 -5 -41 -3
-41 11 0 9 11 21 24 25 13 5 26 17 29 25 4 9 14 16 24 16 9 0 33 11 52 23 20
13 47 31 61 40 17 11 43 16 79 14 51 -2 55 -4 63 -32z m1451 23 c20 -16 37
-178 37 -364 l0 -122 -34 -26 c-19 -14 -39 -26 -45 -26 -5 0 -23 -12 -40 -26
-22 -18 -40 -24 -63 -22 l-32 3 3 131 c3 129 -13 276 -32 302 -5 7 -31 12 -58
12 -27 0 -49 4 -49 9 0 14 56 53 141 98 15 7 32 20 39 28 15 19 109 20 133 3z
m414 0 c13 -17 44 -214 37 -233 -14 -36 28 -10 92 56 38 39 99 94 137 121 37
28 67 55 67 59 0 5 29 9 66 9 l65 0 25 -56 c27 -62 50 -170 64 -311 5 -51 12
-104 16 -118 5 -21 1 -27 -27 -41 -55 -25 -79 -40 -92 -58 -9 -12 -24 -17 -47
-14 l-35 3 -6 110 c-4 61 -11 126 -17 145 -6 19 -13 47 -16 61 -4 18 -19 34
-46 48 l-39 20 -66 -37 c-54 -31 -76 -53 -135 -132 -39 -52 -84 -123 -100
-156 -55 -113 -86 -113 -93 -2 -12 185 -26 325 -36 349 -12 33 -32 41 -82 33
-35 -6 -39 -4 -39 15 0 11 6 21 13 21 7 0 20 9 30 20 9 11 24 20 34 20 9 0 25
8 35 17 61 55 170 83 195 51z m955 -33 c11 -69 30 -348 26 -405 l-3 -55 -55
-32 c-30 -18 -62 -39 -71 -48 -9 -8 -32 -15 -52 -15 l-37 0 -1 163 c0 288 -2
293 -76 283 -25 -3 -45 -1 -49 5 -8 14 48 61 114 95 30 15 56 34 59 41 4 10
23 13 72 11 l66 -3 7 -40z m1481 23 c44 -29 57 -47 57 -79 0 -48 -49 -93 -188
-169 -15 -8 -38 -23 -52 -33 -33 -23 -83 -23 -78 0 2 9 16 20 32 24 35 10 86
56 86 79 0 9 -15 31 -34 49 -32 31 -39 33 -85 29 -65 -6 -78 -18 -86 -79 -13
-94 60 -197 180 -254 63 -29 105 -29 161 0 34 18 64 19 64 4 0 -16 -65 -76
-103 -95 -18 -9 -41 -24 -52 -34 -49 -44 -207 -43 -264 1 -13 11 -29 19 -36
19 -7 0 -24 15 -39 33 -104 123 -97 279 16 389 27 26 83 67 126 92 76 43 79
44 170 45 81 1 98 -2 125 -21z m1159 -50 c38 -40 107 -129 152 -198 156 -237
153 -231 114 -267 -35 -31 -105 -63 -138 -63 -24 0 -30 4 -30 22 0 57 -157
218 -214 218 -13 0 -40 7 -59 15 -47 19 -80 19 -120 -1 -63 -33 -63 -64 1
-104 44 -28 53 -30 133 -28 47 1 91 -2 97 -6 14 -9 4 -36 -14 -36 -7 0 -18 -9
-24 -20 -6 -11 -21 -20 -34 -20 -13 0 -31 -9 -41 -20 -10 -11 -31 -20 -46 -20
-15 0 -40 -5 -54 -12 -32 -14 -121 4 -182 39 -41 23 -43 26 -43 71 0 61 26
113 68 134 18 9 41 23 50 31 30 25 105 55 155 61 104 13 113 44 31 110 -48 39
-62 46 -101 46 -37 0 -44 3 -41 18 2 9 14 18 28 20 14 2 33 11 44 20 36 33
102 59 149 61 47 1 50 0 119 -71z m606 22 c8 -25 17 -81 20 -124 4 -44 12 -81
18 -83 5 -2 57 44 115 102 124 125 171 155 243 155 48 0 53 -2 68 -32 27 -55
55 -178 67 -293 7 -60 14 -126 16 -145 4 -31 1 -38 -28 -57 -58 -40 -134 -76
-149 -71 -10 4 -18 41 -27 129 -17 163 -24 188 -66 229 -35 34 -35 34 -64 17
-16 -9 -35 -17 -43 -17 -34 0 -176 -172 -233 -283 -32 -62 -69 -101 -88 -94
-15 5 -17 24 -17 129 0 138 -17 290 -35 314 -8 12 -28 17 -70 18 -68 1 -82 18
-33 41 18 8 69 38 113 65 71 44 85 50 130 47 49 -2 49 -2 63 -47z m2932 16 c0
-35 13 -46 53 -46 11 0 28 -7 38 -16 10 -9 37 -18 61 -21 24 -3 61 -14 84 -24
22 -10 57 -19 77 -19 20 0 51 -9 69 -20 18 -11 45 -20 60 -20 18 0 41 -13 68
-40 35 -34 40 -45 40 -84 0 -35 -7 -54 -33 -88 -18 -24 -46 -49 -62 -57 -17
-7 -39 -22 -50 -32 -11 -10 -47 -30 -80 -44 -33 -15 -72 -33 -87 -41 -39 -21
-266 -20 -275 1 -3 9 -22 24 -42 34 -46 24 -67 48 -78 91 -18 65 21 133 82
144 18 4 36 13 39 21 3 9 19 15 40 15 l34 0 -1 -63 c-2 -74 19 -107 96 -150
82 -47 178 -31 223 37 20 31 13 82 -16 119 -24 30 -159 97 -196 97 -14 0 -39
7 -55 16 -17 8 -53 18 -82 21 -29 3 -66 14 -83 24 -17 11 -50 19 -73 19 -33 0
-47 6 -71 31 -34 36 -31 49 9 49 15 0 36 9 46 20 10 11 29 20 42 20 13 0 31 9
40 20 11 12 30 20 50 20 31 0 33 -2 33 -34z m5183 19 c1 -5 -13 -14 -30 -20
-30 -8 -33 -13 -33 -48 0 -34 -2 -38 -22 -35 -20 3 -23 8 -20 41 3 36 3 37
-32 37 -36 0 -52 12 -41 30 8 14 174 9 178 -5z m134 -5 c3 -11 11 -20 19 -20
7 0 25 -11 40 -23 37 -32 27 -57 -21 -57 -31 0 -36 3 -41 30 -8 38 -22 39 -26
3 -3 -24 -8 -28 -33 -28 -30 0 -30 0 -26 50 4 63 5 65 48 65 26 0 36 -5 40
-20z m159 5 c4 -8 1 -22 -6 -30 -10 -12 -10 -18 0 -30 16 -19 6 -45 -19 -45
-30 0 -72 84 -56 110 10 16 75 12 81 -5z m-5800 -108 c0 -1 8 -14 17 -30 14
-22 19 -61 24 -190 l6 -163 -32 -27 c-18 -15 -42 -27 -54 -27 -12 0 -33 -9
-47 -20 -14 -11 -37 -20 -51 -20 l-27 0 -4 148 c-5 177 -17 212 -73 212 -28 0
-35 4 -35 20 0 15 7 20 26 20 24 0 45 9 149 64 33 17 58 24 75 20 14 -3 25 -6
26 -7z m1211 -47 c12 -25 24 -65 28 -90 4 -25 18 -75 32 -112 27 -75 45 -84
93 -51 14 10 37 25 52 33 45 25 114 97 162 168 24 37 55 73 67 81 20 12 25 11
39 -7 15 -18 18 -61 23 -309 l6 -288 -30 -27 c-26 -25 -37 -28 -93 -28 -36 0
-72 -3 -82 -7 -16 -6 -16 5 -10 153 4 87 9 178 13 202 4 35 3 42 -12 42 -10 0
-36 -19 -59 -42 -23 -24 -72 -67 -108 -95 -62 -50 -70 -53 -122 -53 -68 0 -96
25 -115 103 -25 100 -61 213 -75 232 -8 11 -31 21 -57 24 -57 8 -59 32 -5 43
22 5 47 15 56 23 9 8 25 15 36 15 10 0 33 9 49 20 17 10 43 18 60 17 25 -2 34
-10 52 -47z m1034 34 c7 -8 26 -22 42 -31 42 -22 118 -94 201 -193 96 -114
116 -143 116 -174 0 -23 -4 -26 -35 -26 -24 0 -37 -6 -45 -20 -8 -15 -21 -20
-50 -20 -35 0 -42 5 -69 43 -43 61 -91 104 -128 112 -18 4 -33 10 -33 15 0 29
-218 43 -255 16 -21 -15 -15 -43 12 -52 10 -4 36 -15 58 -25 55 -25 148 -29
173 -6 23 21 52 22 52 2 0 -8 -4 -15 -9 -15 -5 0 -16 -6 -24 -14 -8 -8 -45
-28 -82 -45 -62 -29 -76 -31 -176 -31 -68 0 -109 4 -109 10 0 6 -15 20 -34 31
-19 11 -37 27 -40 36 -12 31 69 122 110 123 12 0 33 9 47 20 15 12 41 20 64
20 42 1 144 39 150 57 2 6 -6 14 -19 18 -13 4 -31 16 -41 26 -14 15 -32 19
-82 19 -52 0 -65 3 -65 15 0 9 8 18 18 21 9 3 35 14 58 25 23 10 48 19 56 19
9 0 26 9 39 20 29 23 82 26 100 4z m1216 -4 c14 -11 31 -20 37 -20 16 0 171
-162 246 -255 84 -107 91 -145 25 -145 -24 0 -38 -6 -45 -20 -7 -14 -21 -20
-43 -20 -26 0 -38 8 -62 41 -40 54 -98 100 -167 133 -51 24 -66 26 -150 24
l-93 -3 -3 -32 c-3 -28 0 -33 25 -38 15 -4 39 -12 53 -19 31 -16 109 -27 138
-20 13 4 22 15 24 30 3 24 4 24 26 8 l23 -16 -35 -34 c-19 -19 -42 -34 -51
-34 -8 0 -32 -9 -52 -20 -32 -17 -57 -20 -155 -20 -65 0 -118 4 -118 9 0 4
-13 22 -30 39 -16 18 -30 41 -30 53 0 27 63 85 109 100 20 7 45 18 56 24 11 7
44 15 74 18 29 4 64 13 77 22 13 8 30 15 39 15 21 0 19 29 -2 37 -10 4 -29 15
-42 25 -17 13 -41 18 -87 18 -51 0 -64 3 -64 15 0 9 8 18 18 21 9 3 35 14 57
24 22 11 52 22 67 26 15 3 32 12 39 20 17 20 67 17 96 -6z m646 -22 c15 -23
27 -49 27 -57 0 -69 64 -221 94 -221 44 0 221 161 283 258 29 45 38 53 61 50
l27 -3 3 -310 c3 -376 10 -355 -124 -355 l-84 0 5 168 c3 92 8 179 10 195 7
46 -21 33 -109 -52 -91 -87 -135 -111 -205 -111 -36 0 -49 5 -59 21 -14 22
-49 123 -77 224 -26 91 -47 115 -101 115 -64 0 -57 28 10 45 26 7 51 17 55 22
3 6 22 13 43 17 20 4 39 13 42 21 3 9 19 15 38 15 28 0 38 -7 61 -42z m1082 0
c60 -45 142 -121 185 -173 126 -152 152 -186 147 -199 -3 -8 -23 -20 -44 -25
-21 -6 -47 -17 -58 -25 -11 -9 -35 -16 -52 -16 -28 0 -36 6 -52 38 -30 59 -64
89 -145 127 -65 30 -85 35 -149 35 -109 0 -137 -7 -137 -36 0 -25 26 -44 61
-44 12 0 30 -7 39 -15 24 -22 144 -24 168 -3 9 9 26 15 36 15 29 -1 -62 -74
-100 -82 -18 -3 -37 -12 -44 -20 -10 -12 -38 -15 -123 -15 -94 0 -115 3 -146
22 -50 29 -59 44 -52 77 7 32 83 96 127 107 14 4 28 13 31 20 3 9 22 14 53 14
52 0 140 33 140 53 0 7 -11 25 -25 40 -23 24 -32 27 -95 27 -63 0 -70 2 -70
20 0 14 7 20 24 20 13 0 35 9 49 20 14 11 36 20 49 20 12 0 34 9 48 20 38 30
71 25 135 -22z"/>
<path d="M1475 3060 c-27 -11 -65 -19 -83 -20 -18 0 -45 -6 -60 -14 -15 -8
-46 -17 -67 -21 -36 -5 -72 -14 -235 -55 -25 -6 -79 -19 -120 -30 -41 -10 -92
-23 -114 -28 -79 -21 -73 -52 10 -52 35 0 69 -7 94 -20 22 -11 58 -20 80 -20
22 0 58 -9 80 -20 22 -11 55 -20 75 -20 20 0 52 -8 73 -19 20 -10 61 -21 90
-24 29 -3 62 -13 74 -22 13 -8 41 -15 63 -15 22 0 58 -9 80 -20 51 -26 129
-26 186 0 24 11 61 20 82 20 21 0 55 9 77 20 22 11 55 20 75 20 20 0 53 9 75
20 22 11 59 20 82 20 24 0 63 9 87 20 24 11 56 20 72 20 l29 0 0 -286 c0 -266
1 -285 18 -282 16 3 17 26 20 296 2 240 5 292 16 292 8 0 17 -7 20 -16 3 -9 6
-121 6 -250 0 -197 2 -234 14 -234 8 0 18 5 21 11 4 5 6 117 6 247 -1 228 4
273 28 258 7 -5 11 -75 11 -222 0 -118 3 -214 8 -214 30 1 32 18 30 245 l-3
229 -60 11 c-33 6 -70 16 -82 23 -12 7 -32 12 -45 12 -13 0 -52 8 -88 19 -124
37 -220 61 -242 61 -13 1 -41 8 -63 16 -22 9 -64 20 -94 25 -29 5 -66 16 -82
24 -41 22 -180 18 -244 -5z"/>
<path d="M1151 2160 l0 -519 27 -33 c64 -77 139 -139 202 -170 125 -60 209
-72 301 -42 38 13 58 28 85 62 19 25 34 53 34 62 0 25 -50 111 -80 137 -14 12
-79 50 -145 84 -66 34 -131 70 -144 81 -13 10 -30 18 -38 18 -31 0 -122 102
-158 177 -40 85 -44 130 -15 198 11 26 20 55 20 64 0 19 44 76 95 124 91 85
246 119 402 87 68 -14 268 -111 301 -146 13 -13 26 -22 30 -20 11 7 14 329 3
346 -8 12 -19 11 -78 -8 -37 -12 -77 -22 -87 -22 -11 0 -42 -7 -70 -15 -163
-47 -269 -65 -281 -46 -3 6 -27 13 -53 16 -26 3 -71 15 -100 26 -30 10 -66 19
-80 19 -15 1 -52 9 -82 20 -100 35 -90 90 -89 -500z"/>
<path d="M1546 2285 c-26 -8 -61 -26 -77 -41 -26 -25 -29 -34 -29 -88 0 -34 6
-68 13 -77 22 -28 128 -109 143 -109 25 0 169 -77 236 -127 68 -50 105 -94
144 -171 20 -38 24 -63 24 -132 0 -74 -4 -92 -31 -146 -35 -71 -94 -144 -116
-144 -8 0 -27 -12 -42 -28 -21 -20 -38 -28 -67 -28 -21 -1 -52 -6 -68 -13 -27
-11 -28 -13 -12 -30 9 -9 16 -23 16 -29 0 -24 37 -11 69 25 26 29 34 34 42 22
5 -8 9 -22 9 -31 0 -25 32 -22 56 4 11 13 44 43 73 68 66 57 111 126 111 171
0 19 9 47 19 63 18 27 20 51 20 297 1 164 -3 278 -9 294 -15 40 -87 123 -113
131 -12 3 -41 22 -64 40 -23 19 -46 34 -53 34 -6 0 -28 9 -48 19 -78 40 -161
49 -246 26z"/>
<path d="M3655 1448 c-3 -7 -4 -148 -3 -313 l3 -300 42 -9 c23 -5 53 -6 67 -2
l26 6 0 119 c0 90 3 121 14 130 23 20 81 24 135 11 46 -11 64 -25 172 -131 66
-65 127 -119 135 -119 8 0 14 -4 14 -9 0 -5 32 -9 72 -10 39 -1 69 2 65 5 -4
4 -2 12 3 19 6 8 -1 23 -23 49 -89 105 -121 136 -141 136 -20 0 -71 53 -71 74
0 6 14 14 30 19 17 5 44 15 60 23 17 7 42 18 58 24 33 12 46 43 53 126 5 59 3
64 -26 97 -45 52 -104 61 -418 64 -208 3 -263 1 -267 -9z m478 -77 c77 -18
110 -93 65 -146 -18 -20 -37 -28 -88 -35 -95 -14 -260 -12 -290 3 -23 12 -25
18 -25 87 0 69 2 75 25 87 29 15 254 17 313 4z"/>
<path d="M4633 1452 c-9 -6 -13 -85 -13 -307 -2 -284 -1 -300 17 -303 10 -2
22 -8 28 -13 13 -13 428 -12 420 1 -3 6 1 10 10 10 9 0 13 -4 10 -10 -3 -6 1
-10 10 -10 9 0 13 5 10 10 -3 6 -1 10 4 10 6 0 11 -4 11 -10 0 -6 28 -10 63
-10 57 0 65 2 77 24 11 21 10 27 -3 41 -14 13 -47 16 -229 15 -208 -1 -273 7
-290 32 -10 17 -10 119 1 136 15 25 85 33 273 32 173 -1 187 0 197 18 5 10 7
29 4 41 -5 21 -8 22 -197 21 -193 0 -262 8 -277 32 -5 7 -9 38 -9 68 0 30 4
61 9 68 15 25 85 32 292 32 l205 -1 13 27 c24 53 18 54 -318 54 -168 0 -311
-4 -318 -8z"/>
<path d="M5679 1450 c-9 -5 -43 -13 -75 -16 -64 -8 -105 -31 -123 -71 -6 -13
-7 -22 -3 -19 5 3 8 -21 8 -54 -1 -55 2 -61 33 -89 19 -17 42 -31 50 -31 9 -1
34 -9 56 -20 25 -12 62 -20 100 -20 38 0 75 -8 100 -20 22 -11 55 -19 74 -20
41 0 99 -36 107 -67 8 -32 -10 -58 -63 -89 -44 -25 -56 -28 -144 -27 -108 0
-134 10 -198 77 -32 33 -40 36 -93 36 l-58 0 0 -35 c0 -24 6 -37 20 -45 11 -6
20 -17 20 -26 0 -8 8 -17 18 -21 9 -3 24 -14 33 -23 11 -10 41 -19 80 -24 35
-3 68 -11 73 -16 13 -13 199 -13 212 0 5 5 43 12 84 16 47 4 81 13 92 23 80
74 79 72 72 136 -6 60 -38 118 -74 136 -57 27 -137 50 -195 56 -38 3 -80 12
-95 20 -14 7 -38 13 -53 13 -37 0 -87 22 -111 48 -17 20 -17 23 -3 45 40 61
230 74 310 20 20 -14 37 -30 37 -34 0 -5 32 -9 70 -9 l70 0 0 33 c0 48 -55 90
-140 107 -81 17 -269 23 -291 10z"/>
<path d="M6362 1447 c-8 -9 -11 -109 -11 -308 l1 -294 26 -13 c34 -16 84 -15
106 1 16 11 17 38 17 307 0 162 0 301 -1 308 0 17 -124 17 -138 -1z"/>
<path d="M6737 1454 c-4 -4 -7 -144 -7 -310 0 -231 3 -305 13 -311 19 -13 419
-16 426 -4 4 6 34 13 66 17 105 12 204 74 205 128 0 12 7 30 15 40 23 31 20
168 -7 252 -20 65 -53 122 -71 123 -5 1 -21 9 -35 20 -15 10 -54 24 -87 31
-65 14 -506 26 -518 14z m308 -71 c79 -7 154 -21 168 -33 6 -6 24 -19 39 -31
67 -50 90 -203 46 -301 -17 -39 -32 -54 -76 -79 -50 -28 -66 -32 -172 -38
-117 -6 -152 0 -171 31 -10 15 -12 388 -2 413 8 22 83 57 103 49 8 -4 38 -9
65 -11z"/>
<path d="M7677 1442 c-10 -10 -15 -21 -12 -24 4 -3 6 -134 5 -290 l0 -284 33
-12 c47 -17 343 -17 350 1 4 10 6 10 6 0 1 -7 7 -13 15 -13 8 0 17 6 19 13 4
10 6 10 6 0 1 -7 7 -13 15 -13 8 0 17 6 19 13 4 10 6 10 6 0 1 -17 28 -17 34
0 4 10 6 9 6 0 1 -17 28 -17 34 0 4 10 6 9 6 0 1 -9 17 -13 47 -13 27 0 43 4
39 10 -3 6 0 10 8 10 8 0 20 6 26 14 9 11 6 17 -14 30 -22 14 -55 17 -233 16
-174 -1 -215 1 -250 16 l-43 17 3 70 3 70 40 14 c22 7 50 14 62 15 13 2 23 7
23 12 0 6 5 5 12 -2 8 -8 60 -12 168 -12 154 0 157 0 167 23 8 17 7 28 -2 40
-11 15 -35 17 -201 17 -150 0 -197 3 -231 16 l-43 17 0 67 c0 59 2 68 23 77
46 22 66 24 272 24 l210 -1 11 24 c10 21 9 28 -5 41 -15 13 -61 15 -318 15
-278 0 -301 -1 -316 -18z m270 -608 c-3 -3 -12 -4 -19 -1 -8 3 -5 6 6 6 11 1
17 -2 13 -5z"/>
<path d="M8537 1453 c-12 -11 -8 -611 3 -618 22 -14 117 -18 125 -5 4 6 7 92
6 189 -2 148 1 180 13 190 23 20 59 2 100 -49 79 -97 102 -124 122 -144 35
-36 100 -120 107 -139 10 -28 91 -57 157 -57 37 0 59 4 62 13 3 10 2 595 -1
620 -2 12 -119 8 -127 -5 -4 -6 -6 -98 -5 -204 2 -185 2 -192 -18 -199 -25 -8
-73 25 -92 64 -22 43 -75 109 -149 188 -39 41 -77 88 -85 104 -22 42 -63 59
-143 59 -38 0 -72 -3 -75 -7z"/>
<path d="M9440 1440 c-21 -17 -23 -21 -10 -30 8 -5 21 -10 28 -10 7 0 10 -4 7
-10 -4 -6 32 -10 102 -10 165 0 153 22 153 -285 0 -232 2 -255 18 -263 26 -13
80 -14 102 -2 19 10 20 22 20 264 0 276 -1 270 58 282 18 4 32 10 32 15 0 5
33 9 73 8 49 0 66 -3 52 -9 -18 -8 -17 -9 8 -9 15 -1 27 4 27 9 0 6 7 10 15
10 24 0 30 29 9 45 -16 12 -79 14 -344 14 -308 1 -326 0 -350 -19z m113 -47
c-13 -2 -35 -2 -50 0 -16 2 -5 4 22 4 28 0 40 -2 28 -4z"/>
<path d="M10285 1450 c-4 -6 -7 -143 -7 -305 0 -249 3 -297 16 -310 18 -18 45
-19 97 -3 l39 11 -2 306 -3 306 -67 3 c-40 2 -69 -1 -73 -8z"/>
<path d="M10873 1427 c-13 -18 -23 -38 -23 -44 0 -9 -40 -96 -75 -165 -5 -11
-31 -61 -57 -111 -26 -51 -63 -125 -83 -164 -20 -40 -41 -73 -46 -73 -24 0 -5
-28 24 -35 17 -4 39 -9 47 -11 8 -2 24 0 35 5 11 5 28 12 38 15 10 3 17 15 17
29 0 33 34 74 78 95 32 15 58 17 200 12 l164 -5 29 -33 c16 -18 29 -43 29 -56
0 -38 44 -66 102 -66 69 0 84 17 53 62 -46 68 -245 452 -264 511 -19 57 -41
67 -151 67 l-95 0 -22 -33z m158 -94 c8 -10 21 -34 30 -53 9 -19 31 -66 49
-104 37 -79 34 -95 -21 -109 -52 -14 -197 -4 -215 15 -19 18 -12 69 12 89 8 6
14 16 14 21 0 13 50 128 63 146 14 18 52 15 68 -5z"/>
<path d="M11595 1447 c-3 -7 -6 -144 -8 -305 -2 -271 -1 -293 16 -298 9 -3 17
-10 17 -15 0 -5 104 -8 258 -7 145 1 233 4 202 8 l-55 7 58 1 c38 1 57 -2 57
-10 0 -9 3 -9 12 0 7 7 20 12 29 12 9 0 22 7 29 15 26 32 -4 38 -207 42 -207
4 -228 6 -254 30 -15 12 -16 42 -12 259 3 178 1 250 -8 260 -15 18 -128 20
-134 1z"/>
<path d="M12747 1454 c-4 -4 -7 -143 -7 -309 l0 -302 25 -11 c34 -16 92 -15
102 1 4 6 6 62 4 123 -3 107 -2 112 20 128 13 9 36 16 52 16 16 0 26 4 22 10
-4 6 22 10 70 10 42 0 74 -4 71 -9 -3 -5 32 -11 78 -12 115 -5 117 -8 116
-133 -1 -56 -1 -106 -1 -112 1 -10 28 -20 86 -30 45 -8 46 -4 46 315 0 166 -3
306 -6 311 -7 11 -84 14 -109 4 -13 -5 -16 -26 -16 -124 0 -97 -3 -120 -17
-131 -26 -22 -341 -26 -382 -5 l-30 16 -3 123 -3 122 -55 3 c-31 2 -59 0 -63
-4z m430 -290 c-3 -3 -12 -4 -19 -1 -8 3 -5 6 6 6 11 1 17 -2 13 -5z"/>
<path d="M13697 1454 c-11 -11 -8 -612 3 -619 22 -13 110 -17 124 -6 13 11 15
60 13 319 l-2 307 -65 3 c-36 2 -69 0 -73 -4z"/>
<path d="M14340 1451 c-8 -5 -43 -12 -77 -16 -46 -5 -75 -16 -118 -44 -58 -38
-64 -47 -109 -140 -35 -72 -35 -148 -1 -224 51 -112 132 -170 253 -182 40 -4
75 -11 78 -16 8 -13 182 -11 186 2 2 6 42 14 88 19 47 4 101 13 120 20 19 7
44 16 55 20 19 7 21 15 18 116 -1 60 -2 115 -2 122 -1 9 -42 12 -170 12 -161
0 -170 -1 -176 -20 -16 -52 15 -70 120 -70 76 0 85 -5 85 -51 0 -37 -2 -40
-52 -63 -55 -25 -224 -50 -234 -34 -3 4 -19 8 -36 8 -38 0 -113 42 -147 83
-62 72 -78 162 -43 239 25 53 123 129 175 135 23 3 47 9 52 13 6 4 43 3 84 -2
75 -9 153 -44 165 -73 6 -18 101 -21 111 -4 4 5 18 14 31 19 28 11 29 18 6 45
-27 33 -91 64 -157 76 -77 15 -285 22 -305 10z"/>
<path d="M15085 1450 c-3 -6 -6 -144 -6 -307 l0 -297 23 -12 c13 -8 36 -13 51
-14 50 0 57 17 57 139 l0 111 38 16 c20 9 45 20 54 25 25 13 131 12 123 -1 -4
-6 22 -10 70 -10 51 0 89 -6 112 -17 l35 -16 -3 -109 c-4 -108 -3 -110 21
-124 30 -16 86 -18 95 -4 8 13 6 595 -1 615 -8 19 -99 21 -111 3 -4 -7 -6 -63
-4 -124 l3 -111 -35 -16 c-48 -23 -310 -24 -363 -2 l-35 14 2 111 c1 75 -3
115 -11 125 -14 17 -105 21 -115 5z"/>
<path d="M16570 1451 c-8 -5 -37 -13 -65 -16 -97 -13 -143 -69 -132 -162 4
-34 13 -52 37 -74 17 -16 39 -29 50 -29 10 0 37 -9 61 -20 24 -11 65 -20 92
-20 26 0 73 -9 104 -20 32 -11 68 -20 82 -20 27 0 88 -37 96 -59 10 -25 -15
-76 -48 -98 -41 -29 -150 -40 -228 -24 -44 9 -66 22 -109 61 -51 47 -58 50
-107 50 -47 0 -53 -2 -59 -24 -4 -16 0 -31 13 -44 10 -11 28 -30 40 -43 46
-50 59 -57 125 -64 37 -3 70 -11 73 -16 8 -12 178 -12 191 1 5 5 43 13 84 18
92 10 160 47 160 87 0 14 5 34 12 44 16 27 -6 107 -40 141 -16 16 -43 29 -67
33 -22 4 -45 13 -51 22 -7 9 -28 15 -55 16 -80 1 -248 42 -292 72 -33 21 -35
56 -7 82 18 16 110 37 160 36 48 0 111 -21 149 -49 38 -28 52 -32 106 -32 66
0 62 -3 56 52 -1 4 -15 22 -32 39 -23 24 -48 36 -98 47 -79 18 -280 26 -301
13z"/>
<path d="M17526 1452 c-3 -6 -37 -14 -74 -17 -37 -4 -74 -13 -82 -20 -112 -96
-151 -160 -158 -262 -3 -49 1 -75 19 -120 22 -56 92 -143 115 -143 6 0 19 -8
28 -19 12 -14 35 -20 83 -23 39 -2 68 -9 71 -16 5 -16 179 -17 184 -1 2 7 37
15 78 19 78 7 141 32 174 68 18 21 15 42 -6 42 -6 0 -19 6 -27 14 -27 24 -111
25 -111 2 0 -8 -19 -25 -42 -39 -38 -21 -77 -31 -177 -43 -33 -4 -119 36 -166
77 -104 92 -100 249 8 344 68 59 108 70 218 57 85 -9 98 -14 144 -59 14 -15
34 -23 55 -23 38 0 110 30 109 45 0 24 -105 90 -164 103 -78 18 -271 27 -279
14z"/>
<path d="M18225 1451 c-3 -6 -6 -144 -6 -308 l0 -297 23 -13 c29 -16 94 -17
104 -1 4 6 6 62 5 124 -2 107 -1 113 21 128 12 9 45 17 73 17 44 1 46 2 20 9
-21 5 -2 8 60 8 59 0 83 -2 70 -8 -14 -6 2 -9 52 -9 39 -1 83 -5 97 -11 26 -9
26 -10 26 -129 0 -71 4 -122 10 -126 22 -13 117 -18 124 -6 11 17 8 613 -2
623 -5 5 -36 8 -68 6 l-59 -3 -5 -130 c-6 -155 12 -143 -210 -144 -213 -1
-204 -8 -210 149 l-5 125 -57 3 c-31 2 -59 -2 -63 -7z m432 -287 c-3 -3 -12
-4 -19 -1 -8 3 -5 6 6 6 11 1 17 -2 13 -5z"/>
<path d="M19424 1451 c-11 -5 -47 -12 -80 -16 -68 -9 -123 -37 -177 -93 -42
-43 -49 -72 -50 -207 -1 -111 10 -149 57 -198 23 -24 52 -48 66 -52 13 -4 30
-13 36 -20 7 -7 44 -15 83 -19 39 -4 73 -11 76 -17 8 -12 188 -12 201 1 5 5
39 13 74 16 36 4 75 13 87 20 12 8 29 14 38 14 9 0 38 21 65 46 37 34 50 54
50 75 0 15 5 50 11 77 9 36 9 72 2 131 -10 72 -15 87 -48 127 -21 25 -49 51
-64 57 -14 6 -33 16 -41 23 -35 28 -337 55 -386 35z m263 -103 c24 -12 61 -41
82 -63 44 -47 57 -103 46 -189 -6 -43 -14 -57 -52 -93 -25 -23 -64 -53 -87
-67 -45 -26 -143 -49 -152 -35 -3 5 -22 9 -43 9 -24 0 -54 11 -86 31 -112 71
-147 136 -129 244 9 56 12 60 81 118 40 33 87 63 105 68 57 14 185 2 235 -23z"/>
<path d="M20446 1451 c-4 -5 -32 -13 -64 -17 -77 -9 -117 -31 -181 -99 -42
-45 -51 -59 -40 -66 12 -8 11 -12 -5 -24 -15 -11 -18 -28 -19 -92 -2 -100 21
-164 76 -221 54 -56 98 -78 170 -85 32 -3 64 -11 72 -17 18 -15 181 -11 214 6
14 8 46 14 71 15 29 0 64 10 100 29 30 16 65 34 78 39 12 6 25 19 29 28 3 10
15 38 27 63 28 63 28 196 -1 260 -11 25 -23 53 -26 63 -4 9 -13 17 -20 17 -8
0 -20 7 -28 16 -21 25 -103 63 -166 75 -79 16 -279 23 -287 10z m278 -109 c50
-34 76 -59 101 -97 27 -41 27 -155 -1 -205 -22 -40 -67 -90 -80 -90 -5 0 -25
-9 -45 -19 -56 -30 -151 -41 -207 -23 -26 8 -54 21 -63 29 -8 7 -22 13 -31 13
-20 0 -76 55 -90 88 -35 87 -23 188 31 250 57 67 138 93 266 85 65 -4 87 -10
119 -31z"/>
<path d="M21215 1450 c-3 -6 -6 -144 -6 -308 0 -273 2 -298 18 -310 14 -10 80
-13 288 -12 229 2 273 4 288 17 9 9 17 22 17 28 0 23 -34 28 -229 31 -154 3
-198 7 -217 19 l-24 15 -2 263 -3 262 -62 3 c-36 2 -64 -2 -68 -8z m252 -616
c-3 -3 -12 -4 -19 -1 -8 3 -5 6 6 6 11 1 17 -2 13 -5z m40 0 c-3 -3 -12 -4
-19 -1 -8 3 -5 6 6 6 11 1 17 -2 13 -5z m131 -1 c-21 -2 -57 -2 -80 0 -24 2
-7 4 37 4 44 0 63 -2 43 -4z"/>
<path d="M1219 1273 c22 -32 51 -71 65 -88 24 -29 25 -29 26 -7 0 35 32 27 70
-18 37 -44 55 -50 63 -20 8 30 44 25 76 -11 34 -37 64 -33 79 10 10 28 10 29
-36 34 -90 12 -194 34 -201 44 -3 6 -22 15 -42 22 -19 6 -53 29 -74 51 -58 60
-72 50 -26 -17z"/>
<path d="M13068 1103 c7 -3 16 -2 19 1 4 3 -2 6 -13 5 -11 0 -14 -3 -6 -6z"/>
<path d="M18548 1103 c7 -3 16 -2 19 1 4 3 -2 6 -13 5 -11 0 -14 -3 -6 -6z"/>
<path d="M1480 871 c0 -8 9 -24 19 -35 10 -12 31 -44 46 -73 14 -28 33 -57 41
-63 19 -16 42 -6 54 24 5 13 14 27 20 31 8 5 70 117 70 127 0 2 -56 3 -125 3
-102 0 -125 -3 -125 -14z"/>
<path d="M2940 844 c0 -19 4 -33 8 -30 8 5 4 66 -4 66 -2 0 -4 -16 -4 -36z"/>
<path d="M8093 593 c-17 -6 -17 -60 0 -66 8 -3 29 -2 48 2 25 5 35 13 37 29 2
12 -3 24 -10 26 -30 10 -64 14 -75 9z"/>
<path d="M11615 587 c-7 -16 35 -67 54 -67 6 0 11 -14 11 -32 0 -23 -9 -39
-32 -60 -17 -15 -35 -28 -40 -28 -4 0 -8 -9 -8 -20 0 -24 22 -26 40 -5 7 8 22
15 35 15 33 0 85 29 97 55 7 15 7 37 1 62 -8 34 -13 39 -48 47 -51 11 -56 13
-82 32 -20 14 -23 14 -28 1z"/>
<path d="M15733 593 c-12 -2 -24 -10 -26 -18 -13 -33 55 -66 87 -42 14 10 15
18 7 40 -10 27 -20 29 -68 20z"/>
<path d="M6700 560 c0 -29 1 -30 50 -30 49 0 50 1 50 30 0 29 -1 30 -50 30
-49 0 -50 -1 -50 -30z"/>
<path d="M11124 579 c-3 -6 -19 -9 -34 -5 -42 8 -126 -38 -196 -108 -29 -29
-41 -35 -62 -30 -15 4 -29 8 -31 10 -2 2 -4 31 -5 66 l-1 63 -45 -4 c-25 -1
-45 -4 -45 -5 0 0 1 -76 3 -168 l4 -168 23 0 c13 0 27 -5 31 -12 12 -18 34 21
34 61 0 28 8 42 46 78 59 54 98 58 134 12 14 -17 33 -38 43 -47 9 -9 17 -22
17 -28 0 -17 61 -74 87 -81 13 -3 30 0 38 7 8 7 22 10 30 6 32 -12 12 15 -74
101 -67 65 -91 96 -93 118 -3 27 3 33 77 77 44 26 81 52 83 58 5 14 -55 13
-64 -1z"/>
<path d="M12200 583 c1 -5 21 -21 45 -36 39 -25 45 -33 45 -63 0 -48 -24 -81
-65 -88 -21 -4 -35 -13 -35 -21 0 -19 -10 -19 -24 -1 -6 8 -28 18 -48 21 -31
6 -38 4 -38 -9 0 -10 15 -20 45 -27 31 -8 59 -26 93 -59 59 -58 124 -94 140
-78 9 9 18 8 37 -2 14 -7 28 -10 32 -6 9 9 -72 84 -113 106 -45 24 -40 60 14
85 66 32 75 45 67 98 -8 49 -8 50 -98 62 -26 4 -50 11 -53 16 -6 11 -44 12
-44 2z"/>
<path d="M12914 579 c-4 -7 -24 -9 -55 -6 -31 4 -50 2 -56 -6 -4 -7 -6 -86 -3
-177 l5 -165 32 0 c17 -1 29 3 27 7 -10 15 29 8 48 -9 10 -9 21 -13 26 -9 7 7
-19 31 -41 39 -5 1 -12 29 -15 61 -4 49 -2 60 16 77 12 10 25 19 29 18 46 -8
41 15 -8 34 -39 16 -40 17 -33 54 4 24 18 48 38 65 23 20 27 27 14 28 -9 0
-20 -5 -24 -11z"/>
<path d="M3923 573 c-31 -4 -52 -20 -58 -45 -10 -41 -19 -58 -30 -58 -7 0 -41
-48 -75 -107 -33 -60 -66 -116 -73 -126 -16 -23 4 -37 53 -37 46 0 64 13 65
47 0 25 4 28 40 31 50 4 63 16 40 38 -19 20 -14 67 10 94 8 9 15 26 15 37 0
50 83 74 100 29 5 -13 14 -27 19 -31 6 -3 11 -14 11 -24 0 -10 9 -30 20 -44
24 -30 26 -53 5 -61 -23 -9 -18 -26 9 -26 16 0 33 -13 52 -37 15 -20 30 -31
32 -25 5 17 32 15 38 -3 4 -8 15 -15 26 -15 17 0 19 4 13 28 -3 15 -15 36 -26
48 -10 11 -19 26 -19 34 0 8 -9 23 -19 34 -11 12 -31 45 -46 74 -14 28 -30 52
-34 52 -5 0 -14 13 -21 29 -22 55 -68 75 -147 64z m-86 -188 c-1 -63 -9 -82
-21 -49 -15 38 -1 114 20 114 1 0 1 -29 1 -65z"/>
<path d="M5176 571 l-29 -6 -1 -162 c-1 -176 -4 -168 56 -186 33 -11 39 16 36
189 -3 184 -1 179 -62 165z"/>
<path d="M10239 570 c-58 -7 -81 -24 -73 -56 5 -19 1 -26 -20 -34 -33 -12 -33
-28 0 -40 25 -10 25 -11 23 -108 -2 -106 3 -131 26 -112 9 7 27 9 45 5 l30 -7
0 103 c0 81 3 106 17 121 15 17 15 19 0 36 -20 21 -22 53 -6 69 20 20 5 28
-42 23z"/>
<path d="M11327 571 c-1 -3 -1 -79 1 -167 l3 -162 27 -6 c15 -3 37 -8 49 -12
21 -6 22 -3 25 62 3 60 6 70 26 79 12 5 22 12 22 15 0 3 -10 10 -22 15 -21 9
-23 17 -24 87 0 43 -2 79 -5 81 -8 8 -99 15 -102 8z"/>
<path d="M11931 572 c-15 -5 -15 -316 -1 -343 6 -10 19 -19 30 -19 31 0 48 35
42 87 -4 40 -2 48 19 64 l24 18 -23 22 c-22 19 -23 27 -17 78 3 31 9 65 11 76
4 18 0 20 -35 20 -22 0 -44 -1 -50 -3z"/>
<path d="M13693 568 c-29 -8 -31 -11 -23 -33 12 -31 2 -82 -16 -89 -19 -7 -18
-35 3 -58 9 -11 17 -34 17 -53 0 -19 -8 -42 -17 -53 -27 -29 -21 -39 28 -46
80 -13 80 -13 80 131 0 71 2 143 5 162 4 30 2 35 -20 41 -14 4 -39 3 -57 -2z"/>
<path d="M17527 574 c-4 -4 -7 -83 -7 -174 0 -187 3 -197 57 -175 l32 14 3
161 c2 89 1 163 -2 165 -14 9 -76 15 -83 9z"/>
<path d="M19923 569 c-7 -7 -9 -26 -6 -46 4 -26 0 -42 -17 -65 l-23 -31 21
-41 c27 -51 27 -49 -3 -94 -14 -20 -21 -39 -17 -43 4 -4 33 -9 66 -11 l58 -3
2 162 c1 160 1 162 -22 173 -29 13 -45 13 -59 -1z"/>
<path d="M18148 556 c-10 -7 -18 -20 -18 -29 0 -9 -4 -18 -9 -21 -5 -3 -18
-25 -30 -48 -11 -24 -41 -74 -66 -113 -76 -118 -78 -124 -59 -132 9 -3 25 -1
35 5 10 7 26 12 34 12 8 0 33 18 54 39 29 29 38 45 34 61 -3 11 1 28 9 38 8 9
27 43 41 75 14 31 33 60 42 63 26 10 63 -24 92 -84 14 -31 33 -62 41 -68 18
-13 6 -38 -15 -30 -26 10 -8 -18 21 -32 15 -8 37 -29 49 -48 24 -37 35 -42 43
-19 4 10 15 12 35 8 21 -4 29 -2 29 9 0 19 -32 48 -53 48 -9 0 -17 5 -17 10 0
6 5 10 10 10 20 0 9 28 -20 50 -16 13 -30 31 -30 41 0 10 -8 26 -19 36 -10 10
-31 44 -45 76 l-27 57 -72 0 c-44 -1 -79 -6 -89 -14z"/>
<path d="M7040 529 c0 -7 -11 -9 -27 -6 -21 4 -36 -2 -62 -23 -34 -29 -38 -60
-6 -60 17 0 17 1 15 -100 -1 -48 4 -81 12 -92 16 -21 83 -27 100 -9 11 11 9
11 -9 2 l-23 -12 0 99 c0 92 2 101 23 116 l22 16 -22 16 c-23 17 -31 44 -13
44 6 0 10 5 10 10 0 6 -4 10 -10 10 -5 0 -10 -5 -10 -11z"/>
<path d="M6440 519 c-13 -6 -32 -18 -42 -28 -9 -11 -22 -21 -29 -23 -18 -6 -1
-28 22 -28 21 0 22 -6 23 -123 1 -62 3 -69 27 -84 16 -9 36 -13 50 -10 24 6
25 7 21 105 -4 95 -3 100 19 116 21 15 22 18 8 26 -9 6 -20 21 -23 35 -7 27
-31 32 -76 14z"/>
<path d="M7815 522 c-25 -9 -85 -53 -85 -64 0 -4 8 -8 18 -8 32 0 45 -41 40
-125 l-5 -77 33 -15 c57 -28 64 -17 64 101 0 89 3 107 18 115 12 8 14 13 5 19
-6 4 -16 20 -22 35 -11 27 -26 32 -66 19z"/>
<path d="M15417 500 c-56 -38 -64 -48 -41 -57 10 -4 22 0 29 10 7 10 14 17 16
17 2 0 5 -48 6 -107 2 -89 5 -110 21 -125 14 -14 24 -17 42 -10 24 9 24 13 25
108 0 93 1 100 23 109 27 12 28 21 3 28 -11 2 -21 15 -23 28 -5 36 -44 36
-101 -1z"/>
<path d="M693 473 c-7 -3 -13 -11 -13 -18 0 -7 -7 -15 -15 -19 -8 -3 -15 -12
-15 -20 0 -7 7 -16 15 -20 12 -4 15 -25 15 -101 0 -86 2 -96 18 -93 14 3 17
17 20 87 l3 83 31 -6 c18 -3 39 -13 48 -21 9 -8 34 -15 54 -15 31 0 37 -3 32
-16 -3 -9 -6 -20 -6 -25 0 -5 -6 -9 -14 -9 -7 0 -19 -6 -26 -14 -16 -20 -40
-9 -40 19 0 13 -5 27 -10 30 -16 10 -23 -22 -13 -62 6 -28 14 -39 31 -41 13
-2 25 3 28 12 9 23 41 20 49 -5 13 -40 30 -13 33 54 l3 66 42 5 c77 10 112 14
132 18 17 3 20 -3 23 -39 2 -24 -1 -43 -7 -43 -5 0 -13 -9 -16 -20 -5 -16 -15
-20 -51 -20 -38 0 -45 3 -42 18 2 11 15 19 37 22 39 6 47 18 28 44 -11 15 -17
16 -35 7 -11 -6 -30 -11 -41 -11 -17 0 -21 -6 -21 -32 0 -65 8 -76 57 -80 25
-2 53 2 61 8 12 9 19 8 30 -3 27 -26 36 -8 39 77 2 46 5 86 8 88 2 3 11 2 20
-1 12 -5 15 -24 15 -92 0 -77 2 -86 18 -83 15 3 17 16 17 97 l0 94 -179 -1
c-99 -1 -182 -5 -185 -10 -4 -6 -28 -6 -61 0 -55 9 -94 14 -117 17 -7 0 -13 9
-13 20 0 27 75 45 118 29 33 -13 53 -5 34 14 -11 11 -115 19 -139 11z"/>
<path d="M1741 454 c-24 -30 -25 -41 -11 -79 10 -26 13 -27 56 -20 33 5 50 3
62 -8 27 -23 69 -29 76 -11 9 23 25 7 19 -19 -15 -59 -77 -78 -107 -32 -20 31
-36 32 -36 3 0 -29 64 -93 82 -82 7 4 19 16 26 26 19 26 50 23 54 -4 2 -13 10
-23 18 -23 12 0 15 15 15 77 0 42 3 79 5 81 3 3 32 2 65 -1 45 -5 61 -11 63
-24 2 -13 -6 -19 -35 -24 -21 -3 -45 -16 -55 -27 -14 -19 -15 -24 -2 -49 25
-49 84 -63 84 -19 0 10 6 21 14 24 8 3 20 19 28 35 13 24 13 32 1 47 -19 27
-16 35 12 35 25 0 25 -1 25 -84 0 -64 4 -88 16 -101 17 -17 13 -42 -10 -51 -7
-3 -33 8 -57 25 -44 29 -75 28 -50 -3 14 -17 91 -56 110 -56 15 0 71 51 71 64
0 5 -9 20 -21 32 -17 18 -20 35 -20 107 l-1 86 -31 10 c-45 13 -242 7 -261 -8
-22 -18 -36 -5 -36 33 0 44 -12 52 -86 60 -59 6 -63 5 -83 -20z m127 -20 c44
-30 15 -62 -45 -48 -57 12 -63 16 -63 34 0 29 73 39 108 14z m250 -172 c3 -16
-2 -22 -16 -22 -50 0 -68 24 -29 40 30 12 41 7 45 -18z"/>
<path d="M2840 464 c0 -9 9 -18 19 -21 19 -5 31 -30 31 -67 0 -15 -3 -16 -15
-6 -28 23 -91 30 -227 23 -114 -5 -136 -8 -127 -19 6 -8 20 -14 31 -14 10 0
32 -14 48 -30 16 -17 41 -35 55 -40 21 -8 25 -16 25 -50 0 -34 3 -41 18 -38
14 3 17 15 18 63 1 115 -4 107 62 100 39 -5 62 -13 73 -27 14 -18 17 -18 28
-4 32 39 36 0 7 -67 -17 -38 -23 -40 -83 -21 -24 7 -13 33 14 36 17 2 29 10
31 21 3 14 -4 17 -43 17 l-46 0 7 -37 c15 -81 18 -84 78 -80 68 6 76 11 76 51
0 18 7 41 15 52 29 38 16 82 -43 147 -29 30 -52 35 -52 11z m-160 -120 c0 -24
-13 -30 -44 -18 -23 9 -20 33 7 43 29 11 37 6 37 -25z"/>
<path d="M8449 467 c-8 -8 -32 -17 -54 -21 -60 -11 -75 -16 -75 -28 0 -6 -7
-16 -16 -23 -22 -15 -21 -95 0 -111 9 -6 16 -16 16 -22 0 -14 25 -22 76 -22
32 0 44 -4 44 -15 0 -8 9 -15 20 -15 11 0 20 5 20 10 0 6 -6 10 -13 10 -7 0
-23 11 -34 24 -11 13 -26 25 -33 28 -17 5 -17 111 0 116 7 3 20 13 28 23 9 11
22 19 29 19 17 0 27 20 15 32 -6 6 -14 4 -23 -5z"/>
<path d="M8527 473 c-13 -12 -7 -24 18 -33 14 -5 25 -14 25 -19 0 -5 9 -12 19
-16 11 -3 24 -19 30 -35 13 -38 -3 -87 -30 -95 -10 -4 -19 -11 -19 -16 0 -5
-11 -14 -25 -19 -14 -5 -25 -16 -25 -25 0 -22 38 -18 45 5 5 17 15 20 57 20
41 0 51 3 55 20 3 11 12 20 19 20 16 0 15 -1 18 59 2 36 -3 48 -27 72 -29 30
-32 31 -80 34 -15 1 -35 9 -45 19 -20 18 -26 19 -35 9z"/>
<path d="M9764 464 c-4 -15 -16 -20 -52 -22 -37 -2 -53 -10 -79 -36 -42 -41
-41 -89 3 -135 24 -25 37 -31 72 -31 29 0 45 -5 48 -15 7 -17 44 -21 44 -5 0
6 -8 14 -17 17 -45 16 -106 104 -83 118 6 4 10 15 10 25 0 10 9 22 20 25 11 3
20 11 20 16 0 5 12 14 26 19 26 10 29 30 5 38 -7 2 -15 -4 -17 -14z"/>
<path d="M16086 465 c-8 -9 -35 -19 -61 -24 -54 -10 -89 -48 -92 -101 -2 -48
33 -91 78 -96 46 -6 69 -14 69 -25 0 -5 9 -9 20 -9 11 0 20 5 20 11 0 6 -9 13
-20 16 -11 3 -20 12 -20 19 0 8 -11 19 -25 24 -22 8 -25 15 -25 60 0 44 3 52
24 59 13 5 26 17 29 25 4 9 13 16 22 16 16 0 21 25 6 35 -5 3 -16 -2 -25 -10z"/>
<path d="M16169 470 c-16 -10 -2 -30 20 -30 10 0 24 -6 30 -14 7 -8 23 -17 36
-20 23 -6 25 -11 25 -66 0 -44 -4 -60 -14 -60 -7 0 -25 -9 -39 -20 -14 -11
-35 -20 -46 -20 -15 0 -21 -6 -21 -21 0 -19 4 -21 32 -15 17 3 39 13 48 21 9
8 26 15 38 15 66 0 103 63 82 140 -12 45 -33 60 -83 60 -20 0 -37 6 -40 14 -6
16 -50 26 -68 16z"/>
<path d="M18767 465 c-8 -8 -35 -17 -59 -21 -60 -9 -93 -45 -93 -103 -1 -58
32 -96 92 -105 53 -8 66 9 29 39 -23 18 -27 28 -25 66 3 44 34 87 74 103 8 3
15 10 15 15 0 18 -18 21 -33 6z"/>
<path d="M18853 473 c-19 -7 -16 -33 3 -33 9 0 22 -6 28 -14 14 -19 98 -25
104 -8 2 6 -5 15 -15 19 -10 4 -24 13 -31 20 -8 7 -17 11 -22 8 -5 -3 -19 -1
-32 3 -12 5 -29 7 -35 5z"/>
<path d="M20277 474 c-14 -15 17 -34 54 -34 35 0 51 12 31 24 -15 9 -78 17
-85 10z"/>
<path d="M4530 460 c0 -5 5 -10 10 -10 6 0 10 5 10 10 0 6 -4 10 -10 10 -5 0
-10 -4 -10 -10z"/>
<path d="M4617 464 c-3 -4 4 -20 16 -36 18 -24 22 -44 23 -111 l1 -80 42 -13
c55 -16 60 -5 52 116 l-6 95 -52 8 c-29 5 -53 13 -53 18 0 10 -14 12 -23 3z"/>
<path d="M5535 460 c-3 -5 -1 -10 4 -10 6 0 11 5 11 10 0 6 -2 10 -4 10 -3 0
-8 -4 -11 -10z"/>
<path d="M6005 460 c-3 -5 1 -10 10 -10 9 0 13 5 10 10 -3 6 -8 10 -10 10 -2
0 -7 -4 -10 -10z"/>
<path d="M6130 461 c0 -14 45 -61 57 -61 6 0 18 11 27 25 17 26 13 29 -26 26
-9 -1 -19 3 -23 9 -8 13 -35 13 -35 1z"/>
<path d="M8091 457 c-7 -7 -11 -53 -11 -124 0 -126 6 -138 57 -108 29 17 29
17 28 118 l-2 101 -30 13 c-23 9 -33 9 -42 0z"/>
<path d="M9010 460 c0 -5 7 -10 15 -10 8 0 15 5 15 10 0 6 -7 10 -15 10 -8 0
-15 -4 -15 -10z"/>
<path d="M9090 461 c0 -5 6 -14 14 -20 20 -17 39 -106 33 -153 -7 -55 0 -69
29 -62 13 4 31 1 38 -6 12 -9 17 -7 24 7 12 22 6 193 -7 206 -5 5 -30 12 -55
14 -26 3 -49 10 -52 14 -7 12 -24 12 -24 0z"/>
<path d="M9840 460 c0 -6 10 -15 23 -20 27 -12 61 -40 70 -60 4 -8 13 -23 19
-33 11 -15 10 -20 -4 -28 -10 -6 -18 -16 -18 -24 0 -8 -9 -19 -20 -25 -26 -14
-25 -23 5 -36 19 -9 27 -9 36 3 7 7 19 11 27 8 8 -3 16 2 19 14 3 11 13 21 24
24 16 4 18 11 12 54 -10 78 -54 118 -116 106 -19 -4 -29 0 -33 11 -7 17 -44
22 -44 6z"/>
<path d="M13520 460 c0 -5 -11 -10 -24 -10 -14 0 -47 -5 -75 -12 -49 -11 -50
-12 -57 -55 -7 -50 0 -111 15 -126 6 -6 39 -13 73 -15 l63 -4 -39 37 c-35 33
-38 40 -33 73 7 37 50 81 91 92 27 8 33 30 7 30 -12 0 -21 -4 -21 -10z"/>
<path d="M14642 458 c3 -7 13 -15 24 -17 10 -1 26 -9 34 -16 13 -12 53 -19 88
-16 24 2 11 20 -31 40 -49 24 -121 29 -115 9z"/>
<path d="M15030 461 c-8 -5 -32 -11 -52 -15 -68 -12 -58 -46 13 -46 31 0 38 4
43 25 4 14 13 25 21 25 8 0 15 5 15 10 0 12 -19 13 -40 1z"/>
<path d="M15126 461 c-3 -5 0 -11 8 -14 15 -6 26 1 26 15 0 11 -27 10 -34 -1z"/>
<path d="M16650 460 c0 -5 5 -10 10 -10 6 0 10 5 10 10 0 6 -4 10 -10 10 -5 0
-10 -4 -10 -10z"/>
<path d="M16737 464 c-3 -4 0 -13 8 -20 19 -19 38 -119 32 -166 -6 -41 -3 -44
45 -52 50 -8 61 15 53 113 -4 47 -9 89 -11 92 -2 4 -26 9 -54 13 -27 4 -50 11
-50 16 0 11 -13 13 -23 4z"/>
<path d="M17124 457 c-3 -8 -16 -12 -32 -10 -15 3 -36 -3 -47 -11 -17 -14 -18
-17 -5 -26 29 -19 70 -12 80 15 5 14 14 25 20 25 5 0 10 5 10 10 0 15 -20 12
-26 -3z"/>
<path d="M17200 467 c0 -3 17 -15 37 -27 l37 -22 -27 -16 c-34 -21 -34 -25 3
-39 24 -9 30 -17 30 -41 0 -16 -9 -37 -20 -47 -11 -10 -20 -21 -20 -25 0 -4
24 -10 53 -14 28 -3 62 -9 75 -12 19 -5 22 -2 22 19 0 14 -5 29 -10 32 -6 4
-7 28 -4 60 9 74 -8 98 -78 114 -29 7 -63 14 -75 18 -13 3 -23 3 -23 0z"/>
<path d="M19200 460 c0 -5 -13 -10 -28 -10 -16 0 -37 -7 -48 -15 -16 -13 -17
-16 -4 -25 8 -5 30 -10 47 -10 26 0 34 5 39 25 3 14 10 25 15 25 5 0 9 5 9 10
0 6 -7 10 -15 10 -8 0 -15 -4 -15 -10z"/>
<path d="M19280 465 c0 -3 16 -11 35 -19 41 -17 44 -29 13 -50 -24 -17 -24
-17 16 -34 24 -11 27 -16 21 -40 -3 -15 -16 -37 -27 -49 -16 -18 -18 -23 -7
-27 19 -6 79 -17 109 -19 l25 -2 -1 100 c-2 100 -2 100 -30 112 -16 7 -46 12
-66 13 -21 0 -38 5 -38 10 0 6 -11 10 -25 10 -14 0 -25 -2 -25 -5z"/>
<path d="M20775 460 c-3 -5 -1 -10 4 -10 6 0 11 5 11 10 0 6 -2 10 -4 10 -3 0
-8 -4 -11 -10z"/>
<path d="M21055 460 c-4 -6 16 -10 52 -10 36 0 53 -4 44 -9 -11 -7 -10 -13 2
-32 12 -18 15 -40 11 -84 -8 -94 -2 -105 51 -103 l45 2 0 91 c0 49 -4 96 -8
103 -21 32 -182 67 -197 42z"/>
<path d="M4373 446 c-8 -12 -6 -214 2 -226 4 -7 13 -7 25 0 10 5 29 9 42 7 22
-2 23 1 24 76 2 65 5 82 23 101 25 27 19 36 -26 36 -18 0 -33 4 -33 9 0 11
-50 9 -57 -3z"/>
<path d="M5392 450 c-22 -9 -23 -13 -20 -117 l3 -108 29 3 c16 2 33 -3 37 -10
17 -27 31 11 33 86 2 63 6 80 24 99 27 29 20 37 -30 37 -21 0 -38 5 -38 10 0
12 -7 12 -38 0z"/>
<path d="M6709 453 c0 -4 0 -53 0 -108 l0 -100 30 -9 c50 -14 57 0 56 116 l0
103 -42 3 c-24 2 -43 0 -44 -5z"/>
<path d="M7257 448 l-29 -10 5 -92 4 -91 34 -12 c19 -7 44 -12 56 -12 12 -1
25 -6 28 -11 3 -5 15 -10 26 -10 10 0 19 5 19 10 0 6 -4 10 -9 10 -4 0 -22 14
-40 30 -29 28 -31 35 -31 99 0 103 -5 110 -63 89z"/>
<path d="M7539 447 c-21 -11 -22 -18 -20 -80 2 -54 -1 -73 -15 -88 -12 -13
-14 -23 -7 -30 13 -13 109 -24 116 -12 3 5 7 51 8 102 l2 94 -30 12 c-24 10
-36 10 -54 2z"/>
<path d="M8849 443 c-1 -19 -1 -190 0 -209 1 -6 20 -11 46 -10 53 1 55 5 53
95 -1 55 2 67 21 82 29 24 19 39 -24 39 -19 0 -37 5 -40 10 -11 18 -55 12 -56
-7z"/>
<path d="M13931 448 l-34 -9 6 -91 c7 -98 18 -117 67 -116 14 1 42 -5 63 -12
20 -8 40 -10 44 -6 5 5 2 11 -5 13 -8 3 -27 18 -43 34 -27 26 -29 34 -29 102
0 43 -5 78 -12 85 -14 14 -11 14 -57 0z"/>
<path d="M14208 447 c-13 -10 -15 -25 -11 -78 4 -52 2 -67 -11 -78 -31 -26
-19 -47 31 -58 72 -17 76 -11 77 105 1 96 0 102 -22 112 -29 13 -43 12 -64 -3z"/>
<path d="M15183 450 c-13 -5 -23 -18 -23 -29 0 -11 -10 -26 -22 -32 -21 -11
-21 -12 10 -25 28 -11 31 -17 29 -44 -2 -18 -13 -37 -26 -46 -29 -21 -18 -34
30 -34 21 0 39 -4 39 -10 0 -15 40 -12 56 5 9 8 13 19 10 24 -10 16 -16 122
-7 117 22 -14 -5 47 -29 64 -31 22 -35 23 -67 10z"/>
<path d="M15724 448 c-4 -7 -8 -56 -8 -110 -1 -88 1 -98 17 -98 10 0 20 -7 23
-15 8 -20 31 -19 38 3 8 28 10 207 2 220 -9 16 -63 16 -72 0z"/>
<path d="M16510 451 c-24 -7 -24 -8 -23 -111 1 -58 2 -108 2 -111 1 -3 24 -5
51 -5 l50 0 0 77 c0 61 4 81 20 101 23 30 18 38 -25 38 -17 0 -35 4 -40 8 -6
5 -21 6 -35 3z"/>
<path d="M20199 447 c-14 -7 -38 -25 -53 -42 -25 -27 -28 -36 -24 -83 3 -29 9
-57 15 -63 5 -5 33 -13 62 -18 29 -4 57 -13 64 -20 13 -13 57 -15 57 -2 0 5
-14 14 -30 20 -30 10 -82 60 -74 72 2 4 18 9 35 13 33 6 36 29 3 34 -33 6 -37
20 -15 48 16 20 18 30 10 40 -13 16 -16 16 -50 1z"/>
<path d="M20648 453 c7 -3 16 -2 19 1 4 3 -2 6 -13 5 -11 0 -14 -3 -6 -6z"/>
<path d="M20857 453 c22 -16 33 -64 33 -149 l0 -85 48 3 47 3 5 88 c3 59 9 91
19 96 23 14 4 28 -46 35 -27 3 -64 8 -83 12 -20 3 -30 2 -23 -3z"/>
<path d="M21366 451 c-9 -13 4 -40 23 -50 9 -5 27 -31 40 -58 13 -26 30 -55
38 -64 19 -22 53 -90 53 -106 0 -7 -7 -13 -15 -13 -8 0 -19 -9 -25 -20 -6 -11
-17 -20 -25 -20 -8 0 -15 -9 -15 -20 0 -24 38 -28 47 -4 4 11 13 13 33 9 24
-5 36 1 75 39 31 29 45 50 42 60 -4 9 6 35 22 58 59 89 121 187 121 191 0 2
-19 3 -43 2 -62 -3 -84 -18 -92 -64 -4 -23 -18 -49 -35 -66 -40 -38 -72 -29
-95 27 -23 58 -55 100 -71 94 -7 -3 -16 -1 -19 4 -8 13 -52 13 -59 1z"/>
<path d="M5648 416 c17 -29 22 -53 22 -111 0 -71 1 -75 24 -81 56 -14 61 -7
64 100 1 55 -1 103 -6 108 -5 5 -35 12 -68 15 l-58 6 22 -37z"/>
<path d="M19640 439 c-13 -6 -28 -15 -32 -22 -11 -17 -10 -129 1 -146 5 -8 29
-21 53 -28 55 -16 70 -4 45 38 -23 40 -22 80 3 122 18 31 19 35 4 41 -21 8
-44 7 -74 -5z"/>
<path d="M20393 439 c-12 -12 17 -77 44 -96 55 -41 95 17 46 66 -31 32 -74 46
-90 30z"/>
<path d="M5913 430 c-45 -18 -14 -69 52 -87 67 -17 96 -23 130 -23 22 0 47 -6
55 -13 23 -18 22 -55 -1 -67 -23 -13 -25 -30 -4 -30 8 0 15 6 15 14 0 10 13
14 45 14 57 -1 78 15 69 56 -8 40 -21 53 -36 38 -9 -9 -16 -8 -30 5 -11 9 -45
19 -85 22 -76 8 -111 25 -119 59 -5 17 -13 22 -38 21 -17 0 -41 -4 -53 -9z"/>
<path d="M6236 433 c-11 -11 -6 -23 9 -23 8 0 15 4 15 9 0 13 -16 22 -24 14z"/>
<path d="M14465 432 c-15 -10 -35 -59 -35 -85 0 -12 5 -39 11 -59 8 -30 15
-38 34 -38 13 0 27 -4 30 -10 10 -16 45 -12 52 6 3 8 -3 27 -14 42 -26 36 -34
60 -22 67 5 4 18 24 29 46 l20 39 -47 0 c-27 0 -53 -4 -58 -8z"/>
<path d="M20619 436 c-2 -2 -4 -49 -4 -103 l0 -98 43 -9 c23 -5 45 -6 48 -3 3
3 7 42 7 87 2 66 5 83 20 91 9 6 17 17 17 24 0 12 -15 15 -63 15 -35 0 -66 -2
-68 -4z"/>
<path d="M253 386 c-3 -5 1 -14 9 -20 8 -6 17 -19 21 -28 9 -24 28 -23 34 2 6
23 35 26 52 6 9 -10 8 -16 -4 -26 -20 -17 -10 -30 26 -30 32 0 37 11 14 30
-23 19 -18 40 10 40 24 0 25 -2 25 -76 0 -66 2 -75 17 -72 14 2 18 18 21 83 2
44 5 82 7 84 2 2 11 1 20 -2 12 -5 15 -24 15 -92 0 -77 2 -86 18 -83 15 3 17
16 17 98 l0 95 -148 0 c-82 1 -151 -3 -154 -9z"/>
<path d="M1340 386 c0 -17 22 -26 65 -26 18 0 38 -7 46 -16 8 -10 21 -13 36
-9 27 6 28 3 7 -59 -17 -50 -20 -51 -96 -30 -24 7 -23 -22 1 -35 10 -6 42 -8
70 -4 43 5 51 9 51 26 0 11 8 44 17 74 14 45 20 53 41 53 24 0 25 -2 19 -57
-3 -32 -8 -66 -12 -75 -6 -14 -2 -18 18 -18 25 0 26 1 29 86 2 51 -1 89 -7 94
-6 5 -26 5 -45 1 -19 -4 -66 -4 -105 0 -107 12 -135 11 -135 -5z"/>
<path d="M2268 393 c-42 -10 4 -33 65 -33 11 0 31 -10 44 -22 l23 -21 0 21 c0
23 24 30 36 11 10 -16 -26 -74 -57 -93 -45 -27 -59 -21 -59 24 0 22 -4 40 -9
40 -18 0 -32 -30 -29 -62 6 -61 100 -76 115 -17 8 29 37 19 41 -14 2 -18 9
-27 22 -27 21 0 33 54 18 83 -5 10 -7 36 -3 58 5 29 3 39 -7 40 -7 1 -42 2
-78 3 -36 2 -74 5 -85 8 -11 2 -28 3 -37 1z"/>
<path d="M14975 353 c-16 -3 -40 -16 -54 -29 -22 -22 -23 -27 -10 -50 7 -15
23 -30 35 -35 12 -4 25 -13 29 -18 8 -14 132 -14 140 -1 4 6 -16 10 -52 10
-34 0 -53 4 -45 8 10 7 8 14 -8 34 l-20 26 26 20 c26 18 26 44 1 41 -7 -1 -25
-4 -42 -6z"/>
<path d="M17053 353 c-7 -2 -13 -11 -13 -18 0 -7 -9 -15 -20 -18 -26 -7 -28
-65 -2 -73 9 -3 24 -9 33 -14 18 -9 69 -2 69 11 0 4 -5 20 -10 35 -9 22 -7 31
10 49 l21 22 -32 7 c-35 7 -38 7 -56 -1z"/>
<path d="M19155 352 c-46 -15 -67 -39 -63 -73 3 -29 7 -34 32 -36 16 -1 34 -7
40 -13 5 -5 20 -10 32 -10 22 0 22 1 8 28 -19 37 -18 69 4 81 15 9 15 12 2 21
-17 11 -25 11 -55 2z"/>
<path d="M20355 340 c3 -5 15 -10 26 -10 10 0 19 5 19 10 0 6 -12 10 -26 10
-14 0 -23 -4 -19 -10z"/>
<path d="M1355 300 c-8 -25 11 -52 23 -33 4 6 21 13 37 15 48 5 39 32 -12 36
-35 3 -42 0 -48 -18z"/>
<path d="M1738 269 c-3 -54 11 -74 35 -49 9 10 9 14 0 17 -8 3 -13 22 -13 44
0 57 -17 48 -22 -12z"/>
<path d="M2522 295 c-25 -29 -28 -45 -9 -45 8 0 24 -11 37 -25 26 -28 60 -33
60 -10 0 9 -11 20 -25 25 -20 8 -25 16 -25 45 0 42 -9 44 -38 10z"/>
<path d="M260 299 c1 -42 107 -109 140 -89 17 10 4 30 -19 30 -10 0 -30 9 -44
20 -14 11 -29 20 -33 20 -4 0 -16 7 -26 17 -14 13 -18 13 -18 2z"/>
<path d="M5928 273 c-47 -5 -48 -18 -5 -36 43 -18 107 -30 107 -20 0 11 -49
63 -58 61 -4 -1 -24 -3 -44 -5z"/>
<path d="M14723 261 c-9 -12 -23 -21 -30 -21 -7 0 -13 -9 -13 -20 0 -27 20
-25 86 6 58 27 69 44 30 44 -13 0 -31 3 -40 6 -8 3 -22 -3 -33 -15z"/>
<path d="M18925 273 c-16 -3 -34 -11 -38 -19 -4 -8 -17 -14 -27 -14 -14 0 -20
-7 -20 -21 0 -18 4 -20 48 -13 26 3 54 12 62 19 8 6 23 15 34 19 15 5 16 9 6
21 -7 8 -18 14 -24 14 -6 -1 -24 -4 -41 -6z"/>
<path d="M20393 259 c-32 -21 -42 -42 -24 -53 17 -11 106 37 106 56 0 21 -48
20 -82 -3z"/>
<path d="M9844 229 c-10 -17 13 -36 27 -22 12 12 4 33 -11 33 -5 0 -12 -5 -16
-11z"/>
<path d="M18760 226 c0 -10 9 -16 21 -16 24 0 21 23 -4 28 -10 2 -17 -3 -17
-12z"/>
<path d="M13515 220 c3 -5 15 -10 26 -10 10 0 19 5 19 10 0 6 -12 10 -26 10
-14 0 -23 -4 -19 -10z"/>
</g>
</svg>
