<?xml version="1.0" standalone="no"?>
<!DOCTYPE svg PUBLIC "-//W3C//DTD SVG 20010904//EN"
 "http://www.w3.org/TR/2001/REC-SVG-20010904/DTD/svg10.dtd">
<svg version="1.0" xmlns="http://www.w3.org/2000/svg"
 width="512.000000pt" height="512.000000pt" viewBox="0 0 512.000000 512.000000"
 preserveAspectRatio="xMidYMid meet">

<g transform="translate(0.000000,512.000000) scale(0.100000,-0.100000)"
fill="#000000" stroke="none">
<path d="M725 5095 c-28 -28 -33 -75 -10 -99 8 -8 146 -96 306 -196 160 -101
287 -186 282 -190 -4 -4 -125 -80 -267 -169 -158 -99 -265 -160 -274 -156 -16
6 -510 312 -525 325 -4 4 45 40 110 80 65 40 128 82 141 93 45 41 14 127 -46
127 -30 0 -384 -214 -415 -251 -15 -19 -17 -54 -17 -404 0 -350 1 -385 18
-403 22 -26 719 -462 739 -462 8 0 27 7 43 15 72 37 687 428 703 446 16 19 17
54 17 408 l0 388 -22 20 c-44 40 -716 453 -737 453 -12 0 -33 -11 -46 -25z
m-290 -785 c127 -79 238 -150 248 -158 15 -14 17 -40 17 -280 0 -240 -1 -264
-16 -258 -9 4 -131 77 -270 164 l-253 157 -1 274 0 273 23 -14 c12 -8 126 -79
252 -158z m945 -102 l0 -273 -257 -160 c-141 -88 -260 -161 -265 -163 -4 -2
-8 118 -8 266 l0 270 263 165 c144 91 263 166 265 166 1 1 2 -122 2 -271z"/>
<path d="M3999 4902 c-191 -119 -356 -226 -368 -236 -21 -19 -21 -25 -21 -406
0 -355 1 -390 18 -409 21 -25 698 -450 730 -458 26 -6 50 8 482 280 l275 172
3 406 c2 377 1 407 -15 421 -19 15 -661 417 -700 437 -12 6 -30 11 -40 11 -10
-1 -174 -98 -364 -218z m645 -118 c240 -150 265 -168 248 -180 -41 -28 -488
-307 -507 -316 -18 -8 -65 18 -288 158 -147 92 -265 170 -262 173 14 15 521
330 532 330 6 1 131 -74 277 -165z m-541 -518 l187 -117 0 -271 c0 -148 -4
-268 -8 -266 -5 2 -124 75 -265 163 l-257 160 0 273 0 272 78 -48 c42 -27 161
-102 265 -166z m873 -322 c-4 -11 -486 -317 -519 -330 -16 -6 -17 14 -15 262
l3 269 265 166 265 166 3 -261 c1 -143 0 -266 -2 -272z"/>
<path d="M1850 4350 c-31 -31 -30 -85 2 -112 19 -17 68 -18 718 -18 l699 0 20
26 c28 35 26 69 -4 99 l-24 25 -696 0 c-682 0 -695 0 -715 -20z"/>
<path d="M1423 3555 c-26 -18 -38 -66 -24 -93 14 -27 374 -262 401 -262 51 0
86 42 75 91 -6 26 -34 48 -197 155 -104 68 -199 124 -211 124 -13 0 -32 -7
-44 -15z"/>
<path d="M3465 3449 c-99 -66 -186 -127 -192 -136 -19 -25 -16 -57 8 -87 37
-47 62 -38 269 98 204 134 215 147 186 204 -35 67 -63 59 -271 -79z"/>
<path d="M2189 3199 c-195 -121 -360 -227 -366 -236 -19 -24 -19 -782 -1 -805
24 -31 719 -458 744 -458 33 0 21 -7 389 222 176 110 332 213 348 229 l27 29
0 383 c-1 297 -4 386 -14 399 -7 9 -171 116 -366 238 -237 148 -362 220 -380
220 -18 0 -144 -72 -381 -221z m655 -109 c146 -91 265 -167 265 -170 0 -3
-121 -80 -269 -172 l-270 -168 -270 168 c-148 92 -269 169 -269 172 0 7 533
339 541 337 3 -1 126 -76 272 -167z m-580 -495 l225 -140 1 -273 0 -272 -77
48 c-43 27 -162 102 -265 166 l-188 117 0 271 0 270 39 -23 c22 -13 141 -87
265 -164z m916 -84 l0 -269 -264 -166 c-146 -91 -267 -166 -270 -166 -3 0 -6
121 -6 268 l0 269 267 166 c147 92 269 167 270 167 2 0 3 -121 3 -269z"/>
<path d="M743 3070 c-12 -5 -26 -18 -32 -29 -7 -13 -11 -176 -11 -489 l0 -469
23 -21 c33 -31 80 -29 106 4 21 26 21 36 21 494 0 431 -1 469 -17 488 -21 25
-60 35 -90 22z"/>
<path d="M4312 3057 c-22 -23 -22 -24 -22 -496 l0 -472 25 -24 c31 -32 69 -32
100 0 l25 24 0 469 c0 460 0 470 -21 496 -27 34 -77 36 -107 3z"/>
<path d="M1595 1749 c-99 -66 -186 -127 -192 -136 -32 -42 5 -113 58 -113 38
0 404 237 413 268 16 50 -23 103 -74 101 -14 0 -101 -51 -205 -120z"/>
<path d="M3293 1855 c-26 -18 -38 -66 -24 -93 14 -27 374 -262 401 -262 32 0
60 18 70 46 21 55 7 70 -192 200 -104 68 -199 124 -211 124 -13 0 -32 -7 -44
-15z"/>
<path d="M399 1510 c-195 -122 -362 -230 -372 -241 -16 -19 -17 -54 -17 -405
l0 -383 23 -24 c33 -37 713 -457 739 -457 25 0 702 420 736 456 l22 25 0 384
0 384 -22 24 c-13 14 -171 117 -353 230 -358 222 -367 227 -388 227 -7 0 -173
-99 -368 -220z m638 -111 c142 -89 262 -165 266 -169 8 -7 -513 -340 -532
-340 -13 0 -542 332 -537 337 10 10 531 333 537 333 4 0 124 -73 266 -161z
m-339 -913 c2 -219 0 -267 -11 -264 -7 2 -129 75 -270 163 l-257 160 0 272 0
272 268 -167 267 -168 3 -268z m682 327 l0 -268 -259 -162 c-143 -90 -262
-163 -265 -163 -3 0 -6 121 -6 268 l0 268 258 162 c141 89 260 161 265 162 4
0 7 -120 7 -267z"/>
<path d="M4335 1718 c-98 -54 -685 -426 -702 -445 l-23 -24 0 -388 0 -388 23
-20 c41 -38 715 -453 735 -453 10 0 31 9 46 21 l26 20 2 357 3 356 260 163
c143 90 263 163 268 163 4 0 7 -120 7 -267 l0 -268 -137 -85 c-75 -46 -148
-94 -161 -105 -30 -26 -33 -77 -6 -106 34 -38 70 -25 246 84 92 57 174 109
182 117 14 11 16 60 14 419 l-3 406 -364 228 c-200 125 -371 227 -380 227 -9
0 -25 -6 -36 -12z m314 -329 c144 -89 258 -166 254 -170 -18 -16 -525 -329
-534 -329 -16 0 -540 332 -534 338 27 27 524 330 537 328 9 -2 134 -77 277
-167z m-618 -471 l259 -162 0 -268 c0 -147 -3 -268 -6 -268 -4 0 -123 73 -265
162 l-259 163 0 268 c0 147 3 267 6 267 3 0 123 -73 265 -162z"/>
<path d="M1855 875 c-30 -30 -32 -64 -4 -99 l20 -26 700 0 c686 0 699 0 719
20 12 12 20 33 20 55 0 22 -8 43 -20 55 -20 20 -33 20 -715 20 l-696 0 -24
-25z"/>
</g>
</svg>
